SplineFontDB: 3.0
FontName: Galle
FullName: Galle
FamilyName: Galle
Weight: Regular
Copyright: Copyright (c) 2015-2018 mooniak (http://mooniak.com)  Copyright (c) 2017 Janaka CB Attanayake (janakacb@gmail.com) \n
Version: 0.1
StyleMapFamilyName: 
ItalicAngle: 0
UnderlinePosition: 0
UnderlineWidth: 0
Ascent: 800
Descent: 200
InvalidEm: 1
UFOAscent: 553
UFODescent: -184
LayerCount: 2
Layer: 0 0 "Back" 1
Layer: 1 0 "public.default" 0 "glyphs"
StyleMap: 0x0040
FSType: 0
OS2Version: 0
OS2_WeightWidthSlopeOnly: 0
OS2_UseTypoMetrics: 0
CreationTime: 1533724629
ModificationTime: 1533724629
PfmFamily: 16
TTFWeight: 400
TTFWidth: 5
LineGap: 0
VLineGap: 0
OS2TypoAscent: 0
OS2TypoAOffset: 1
OS2TypoDescent: 0
OS2TypoDOffset: 1
OS2TypoLinegap: 0
OS2WinAscent: 0
OS2WinAOffset: 1
OS2WinDescent: 0
OS2WinDOffset: 1
HheadAscent: 0
HheadAOffset: 1
HheadDescent: 0
HheadDOffset: 1
Lookup: 4 0 0 "akhands" { "akhands subtable"  } ['akhn' ('tml2' <'dflt' > 'taml' <'dflt' > ) ]
Lookup: 4 0 0 "above_base_sub_1" { "above_base_sub_1 subtable"  } ['abvs' ('tml2' <'dflt' > 'taml' <'dflt' > ) ]
Lookup: 6 0 0 "above_base_sub_2" { "above_base_sub_2 subtable"  } ['abvs' ('tml2' <'dflt' > 'taml' <'dflt' > ) ]
Lookup: 1 0 0 "Single Substitution lookup 3" { "Single Substitution lookup 3 subtable"  } []
Lookup: 4 0 0 "post_base_sub_1" { "post_base_sub_1 subtable"  } ['psts' ('tml2' <'dflt' > 'taml' <'dflt' > ) ]
Lookup: 4 0 0 "post_base_sub_2" { "post_base_sub_2 subtable"  } ['psts' ('tml2' <'dflt' > 'taml' <'dflt' > ) ]
Lookup: 6 0 0 "post_base_sub_3" { "post_base_sub_3 subtable"  } ['psts' ('tml2' <'dflt' > 'taml' <'dflt' > ) ]
Lookup: 1 0 0 "Single Substitution lookup 7" { "Single Substitution lookup 7 subtable"  } []
Lookup: 6 0 0 "post_base_sub_4" { "post_base_sub_4 subtable"  } ['psts' ('tml2' <'dflt' > 'taml' <'dflt' > ) ]
Lookup: 1 0 0 "Single Substitution lookup 9" { "Single Substitution lookup 9 subtable"  } []

StartChar: .notdef
Encoding: 0 -1 0
GlifName: _notdef
Width: 566
VWidth: 566
Flags: W
HStem: 33 35 307 35
VStem: 117 33 346 33
LayerCount: 2
Fore
SplineSet
526 0 m 257
 40 0 l 257
 40 539 l 257
 526 539 l 257
 526 359 526 180 526 0 c 257
101 479 m 257
 101 60 l 257
 465 60 l 257
 465 479 l 257
 101 479 l 257
EndSplineSet
PickledDataWithLists: "(dp1
S'com.schriftgestaltung.Glyphs.lastChange'
p2
S'2018-08-04 00:59:56 +0000'
p3
sS'com.fontlab.hintData'
p4
(dp5
S'vhints'
p6
(lp7
(dp8
S'position'
p9
I117
sS'width'
p10
I33
sa(dp11
g9
I346
sg10
I33
sasS'hhints'
p12
(lp13
(dp14
g9
I33
sg10
I35
sa(dp15
g9
I307
sg10
I35
sass."
EndChar

StartChar: ArchaicEight
Encoding: 1 70120 1
GlifName: A_rchaicE_ight
Width: 931
VWidth: 0
Flags: W
LayerCount: 2
Fore
SplineSet
705 -309 m 256
 715 -318 729 -326 739 -320 c 256
 751 -313 761 -300 748 -282 c 256
 670 -172 500 -159 364 -159 c 256
 337 -159 323 -168 322 -184 c 256
 321 -202 334 -210 363 -210 c 256
 509 -210 626 -236 705 -309 c 256
349 -210 m 256
 609 -210 814 -164 883 72 c 256
 944 279 868 538 711 538 c 256
 655 538 613 517 588 484 c 257
 565 517 526 538 473 538 c 256
 411 538 375 518 355 486 c 257
 330 515 290 533 238 533 c 256
 81 533 -7 366 39 165 c 256
 70 30 178 0 210 0 c 256
 232 0 249 10 249 27 c 256
 249 43 237 60 213 60 c 256
 161 60 110 93 89 165 c 256
 39 340 121 484 239 484 c 256
 295 484 336 446 336 399 c 258
 336 280 l 258
 336 255 342 240 361 240 c 256
 380 240 387 254 387 274 c 256
 387 371 387 301 387 399 c 256
 387 451 402 489 474 489 c 256
 524 489 561 451 561 404 c 256
 561 308 561 375 561 279 c 256
 561 257 570 246 587 245 c 256
 604 245 613 257 613 279 c 256
 613 375 613 308 613 404 c 256
 613 451 654 489 710 489 c 256
 828 489 900 272 837 82 c 256
 760 -150 524 -159 350 -159 c 256
 334 -159 322 -173 322 -185 c 256
 322 -196 332 -210 349 -210 c 256
EndSplineSet
PickledDataWithLists: "(dp1
S'com.schriftgestaltung.Glyphs.lastChange'
p2
S'2018-08-08 10:17:17 +0000'
p3
s."
EndChar

StartChar: ArchaicEighty
Encoding: 2 70129 2
GlifName: A_rchaicE_ighty
Width: 836
VWidth: 0
Flags: W
LayerCount: 2
Fore
SplineSet
489 -12 m 256
 668 -12 809 95 809 246 c 256
 809 335 758 406 660 411 c 257
 668 420 683 443 683 462 c 256
 683 641 279 522 279 714 c 256
 279 769 336 815 427 815 c 256
 573 815 661 749 682 674 c 256
 686 661 680 641 680 625 c 256
 680 603 686 585 706 585 c 256
 722 585 730 602 730 625 c 256
 731 704 771 742 791 769 c 256
 797 777 800 784 800 791 c 256
 800 803 791 812 779 812 c 256
 770 812 759 807 749 795 c 256
 733 775 720 755 709 734 c 257
 670 808 582 863 427 863 c 256
 304 863 227 800 227 714 c 256
 227 465 635 594 635 462 c 256
 635 444 629 432 617 421 c 256
 603 408 596 400 581 386 c 256
 571 377 573 362 581 356 c 256
 587 351 598 353 603 355 c 256
 612 359 627 378 644 378 c 256
 712 382 762 318 762 246 c 256
 762 126 645 36 489 36 c 256
 338 36 215 121 215 229 c 256
 215 333 280 378 322 358 c 256
 332 354 340 347 350 348 c 256
 363 349 370 360 369 371 c 256
 368 377 365 383 359 390 c 256
 335 418 312 432 309 445 c 256
 306 460 314 474 327 475 c 256
 334 476 340 471 348 463 c 256
 358 452 363 445 373 434 c 256
 380 427 387 422 394 423 c 256
 406 424 413 435 411 448 c 256
 411 452 409 456 408 460 c 256
 407 462 406 464 405 466 c 256
 394 486 375 500 353 512 c 256
 347 515 341 517 336 519 c 256
 227 553 42 483 42 228 c 256
 42 137 88 54 148 10 c 256
 162 0 179 0 187 11 c 256
 196 23 190 39 178 49 c 256
 127 92 90 140 90 228 c 256
 90 413 194 476 270 476 c 257
 260 456 270 416 287 397 c 257
 219 392 167 331 167 229 c 256
 167 85 305 -12 489 -12 c 256
EndSplineSet
PickledDataWithLists: "(dp1
S'com.schriftgestaltung.Glyphs.lastChange'
p2
S'2018-08-08 10:17:17 +0000'
p3
s."
EndChar

StartChar: ArchaicFifty
Encoding: 3 70126 3
GlifName: A_rchaicF_ifty
Width: 950
VWidth: 0
Flags: W
LayerCount: 2
Fore
SplineSet
794 624 m 256
 794 607 800 590 819 590 c 256
 835 590 843 605 843 624 c 256
 843 703 885 741 905 768 c 256
 911 776 914 783 914 790 c 256
 914 802 905 811 893 811 c 256
 884 811 873 806 863 794 c 256
 818 738 794 677 794 624 c 256
361 47 m 256
 250 47 233 131 233 216 c 256
 233 331 317 434 426 434 c 256
 526 434 588 384 588 324 c 256
 588 248 527 214 527 131 c 256
 527 70 578 -2 700 -2 c 256
 803 -2 894 72 894 205 c 256
 894 588 326 501 326 716 c 256
 326 791 435 814 503 814 c 256
 678 814 781 723 794 618 c 256
 796 606 800 590 818 590 c 256
 836 590 841 605 841 614 c 256
 841 615 841 617 841 618 c 256
 831 747 702 862 503 862 c 256
 391 862 278 815 278 716 c 256
 278 443 845 561 845 205 c 256
 845 104 780 46 700 46 c 256
 600 46 583 101 583 131 c 256
 583 206 636 228 636 324 c 256
 636 416 553 482 426 482 c 256
 281 482 185 352 185 216 c 256
 185 98 228 -2 361 -2 c 256
 435 -2 488 53 488 119 c 256
 488 194 437 237 364 237 c 256
 364 237 l 256
 212 237 257 57 163 57 c 256
 106 57 75 110 75 198 c 256
 75 290 130 378 192 413 c 256
 208 422 216 431 216 442 c 256
 216 460 198 470 181 462 c 256
 118 433 27 336 27 198 c 256
 27 77 82 4 165 4 c 256
 286 4 249 189 364 189 c 256
 407 189 439 161 439 119 c 256
 439 74 401 47 361 47 c 256
EndSplineSet
PickledDataWithLists: "(dp1
S'com.schriftgestaltung.Glyphs.lastChange'
p2
S'2018-08-08 10:17:17 +0000'
p3
s."
EndChar

StartChar: ArchaicFive
Encoding: 4 70117 4
GlifName: A_rchaicF_ive
Width: 1393
VWidth: 0
Flags: W
LayerCount: 2
Fore
SplineSet
1106 54 m 256
 1178 18 1256 106 1307 167 c 256
 1329 193 1349 195 1357 188 c 256
 1372 175 1370 155 1350 134 c 256
 1268 48 1188 -34 1088 6 c 256
 986 46 984 293 914 311 c 256
 870 322 846 263 846 205 c 256
 846 144 846 88 846 40 c 256
 846 17 838 0 822 0 c 256
 802 0 796 18 796 40 c 258
 796 100 l 257
 791 210 771 284 739 304 c 256
 697 330 649 273 649 165 c 256
 649 119 649 76 649 40 c 256
 649 17 641 0 625 0 c 256
 605 0 599 18 599 40 c 256
 599 122 599 77 599 165 c 256
 599 359 496 492 345 492 c 256
 191 492 75 393 75 248 c 256
 75 142 143 40 267 40 c 256
 342 41 406 88 409 163 c 256
 412 240 371 279 325 279 c 256
 286 279 259 259 259 230 c 256
 259 226 261 220 263 216 c 257
 263 230 273 244 294 245 c 256
 322 246 336 224 334 196 c 256
 332 173 307 156 281 156 c 256
 246 157 213 177 213 229 c 256
 213 291 270 328 324 328 c 256
 398 328 464 267 460 162 c 256
 457 64 385 -8 269 -10 c 256
 123 -12 27 104 27 245 c 256
 27 421 148 540 341 540 c 256
 476 540 602 449 626 269 c 257
 640 330 681 369 738 353 c 256
 768 345 790 317 806 279 c 257
 817 324 870 365 918 358 c 256
 1038 341 1019 98 1106 54 c 256
EndSplineSet
PickledDataWithLists: "(dp1
S'com.schriftgestaltung.Glyphs.lastChange'
p2
S'2018-08-08 10:17:17 +0000'
p3
s."
EndChar

StartChar: ArchaicForty
Encoding: 5 70125 5
GlifName: A_rchaicF_orty
Width: 1103
VWidth: 0
Flags: W
LayerCount: 2
Fore
SplineSet
197 233 m 257
 231 110 302 0 450 0 c 256
 578 0 667 89 667 213 c 256
 667 340 586 428 482 428 c 256
 456 428 410 423 384 412 c 257
 456 467 536 492 612 492 c 256
 671 492 762 465 791 418 c 256
 806 394 809 371 837 371 c 256
 860 371 869 391 867 421 c 256
 864 470 906 489 940 489 c 256
 986 489 1042 427 1042 279 c 256
 1042 159 1012 47 938 47 c 256
 885 47 852 79 852 126 c 256
 852 178 887 210 929 210 c 256
 991 210 1009 160 1024 100 c 257
 1034 121 1052 142 1057 161 c 257
 1047 223 991 263 929 263 c 256
 871 263 800 225 800 126 c 256
 800 54 853 -2 938 -1 c 256
 1046 0 1091 128 1091 279 c 256
 1091 486 1000 537 938 537 c 256
 875 537 833 504 826 453 c 257
 792 502 707 540 612 540 c 256
 513 540 432 511 345 442 c 257
 355 504 309 536 249 535 c 256
 168 534 55 467 55 273 c 256
 55 109 135 0 224 0 c 256
 243 0 250 11 250 25 c 256
 250 39 240 48 224 48 c 256
 149 49 103 169 103 273 c 256
 103 410 193 486 249 486 c 256
 294 486 302 456 302 427 c 256
 302 406 295 396 279 378 c 256
 246 342 223 290 197 233 c 257
246 233 m 257
 267 271 296 326 326 350 c 256
 359 377 424 385 470 385 c 256
 561 385 621 319 621 213 c 256
 621 114 548 48 450 48 c 256
 311 48 258 171 246 233 c 257
EndSplineSet
PickledDataWithLists: "(dp1
S'com.schriftgestaltung.Glyphs.lastChange'
p2
S'2018-08-08 10:17:17 +0000'
p3
s."
EndChar

StartChar: ArchaicFour
Encoding: 6 70116 6
GlifName: A_rchaicF_our
Width: 1045
VWidth: 0
Flags: W
LayerCount: 2
Fore
SplineSet
39 165 m 256
 70 30 178 0 210 0 c 256
 232 0 249 10 249 27 c 256
 249 43 237 60 213 60 c 256
 161 60 110 93 89 165 c 256
 39 340 121 484 239 484 c 256
 295 484 336 446 336 399 c 256
 336 357 336 316 336 274 c 256
 336 252 345 240 362 240 c 256
 380 240 387 255 387 274 c 256
 387 321 386 358 386 414 c 256
 386 459 409 489 474 489 c 256
 524 489 561 451 561 404 c 256
 561 308 561 375 561 279 c 256
 561 256 571 245 588 245 c 256
 604 245 613 257 613 279 c 256
 613 375 613 308 613 404 c 256
 613 451 654 489 710 489 c 256
 828 489 853 372 853 170 c 256
 853 39 853 -196 853 -274 c 257
 791 -274 720 -274 658 -274 c 256
 587 -274 546 -247 520 -203 c 256
 468 -116 520 -11 603 54 c 256
 622 68 625 79 615 93 c 256
 606 107 592 108 576 96 c 256
 472 20 408 -121 477 -234 c 256
 514 -295 574 -324 656 -324 c 256
 713 -324 777 -324 847 -324 c 256
 877 -324 902 -316 902 -284 c 256
 902 -247 902 -10 902 170 c 256
 902 386 868 538 711 538 c 256
 655 538 613 517 588 484 c 257
 565 517 526 538 473 538 c 256
 411 538 375 518 355 486 c 257
 330 515 290 533 238 533 c 256
 81 533 -7 366 39 165 c 256
EndSplineSet
PickledDataWithLists: "(dp1
S'com.schriftgestaltung.Glyphs.lastChange'
p2
S'2018-08-08 10:17:17 +0000'
p3
s."
EndChar

StartChar: ArchaicHundred
Encoding: 7 70131 7
GlifName: A_rchaicH_undred
Width: 1495
VWidth: 0
Flags: W
LayerCount: 2
Fore
SplineSet
1349 165 m 257
 1349 40 l 258
 1349 18 1355 0 1375 0 c 256
 1391 0 1399 17 1399 40 c 258
 1399 165 l 258
 1399 296 1408 370 1464 466 c 256
 1467 471 1468 476 1468 480 c 256
 1468 493 1456 504 1443 504 c 256
 1436 504 1428 500 1422 492 c 256
 1404 467 1383 415 1365 338 c 257
 1349 165 l 257
472 -317 m 256
 669 -317 892 -130 892 180 c 256
 892 359 821 538 704 538 c 256
 641 538 608 517 588 484 c 257
 565 517 526 538 473 538 c 256
 410 538 374 517 355 486 c 257
 330 515 290 533 238 533 c 256
 109 533 27 420 27 269 c 256
 27 102 119 0 210 0 c 256
 232 0 249 10 249 27 c 256
 249 43 236 50 213 50 c 256
 130 50 74 159 74 268 c 256
 74 393 145 484 239 484 c 256
 295 484 336 446 336 399 c 258
 336 280 l 258
 336 255 342 240 361 240 c 256
 380 240 387 254 387 274 c 258
 387 399 l 258
 387 451 401 489 474 489 c 256
 524 489 561 451 561 404 c 258
 561 279 l 258
 561 257 570 245 587 245 c 256
 604 245 613 257 613 279 c 258
 613 404 l 258
 613 451 647 489 703 489 c 256
 788 489 843 335 843 180 c 256
 843 -114 624 -268 472 -268 c 256
 342 -268 303 -216 303 -138 c 256
 303 -19 509 86 782 86 c 256
 1040 86 1262 -8 1262 -138 c 256
 1262 -208 1230 -266 1158 -266 c 256
 1056 -266 980 -105 980 95 c 256
 980 298 1087 478 1184 478 c 256
 1303 478 1345 195 1345 41 c 256
 1345 15 1352 0 1373 0 c 256
 1393 0 1399 18 1399 41 c 256
 1399 207 1360 534 1184 534 c 256
 1045 534 926 332 926 95 c 256
 926 -91 994 -316 1158 -316 c 256
 1262 -316 1312 -252 1312 -138 c 256
 1312 29 1063 135 782 135 c 256
 497 135 253 20 253 -138 c 256
 253 -251 320 -317 472 -317 c 256
EndSplineSet
PickledDataWithLists: "(dp1
S'com.schriftgestaltung.Glyphs.lastChange'
p2
S'2018-08-08 10:17:17 +0000'
p3
s."
EndChar

StartChar: ArchaicNine
Encoding: 8 70121 8
GlifName: A_rchaicN_ine
Width: 1408
VWidth: 0
Flags: W
LayerCount: 2
Fore
SplineSet
1262 165 m 256
 1262 77 1262 122 1262 40 c 256
 1262 18 1268 0 1288 0 c 256
 1304 0 1312 17 1312 40 c 256
 1312 76 1312 119 1312 165 c 256
 1312 296 1321 370 1377 466 c 256
 1394 494 1355 519 1335 492 c 256
 1317 467 1296 415 1278 338 c 257
 1262 165 l 256
1153 140 m 256
 1168 327 1128 558 920 558 c 256
 864 558 822 537 797 504 c 257
 768 537 720 578 654 578 c 256
 575 578 528 538 504 506 c 257
 479 535 439 553 387 553 c 256
 230 553 142 377 188 165 c 256
 219 6 327 -30 359 -30 c 256
 381 -30 398 -20 398 -3 c 256
 398 13 385 30 362 30 c 256
 310 30 259 72 238 165 c 256
 188 351 270 504 388 504 c 256
 444 504 485 466 485 419 c 258
 485 280 l 258
 485 255 491 240 510 240 c 256
 529 240 536 254 536 274 c 256
 536 387 536 306 536 419 c 256
 536 471 557 529 655 529 c 256
 723 529 770 471 770 424 c 256
 770 312 770 390 770 279 c 256
 770 257 779 246 796 245 c 256
 813 245 822 257 822 279 c 256
 822 390 822 312 822 424 c 256
 822 471 863 509 919 509 c 256
 1090 509 1120 278 1103 140 c 256
 1078 -60 940 -265 659 -274 c 256
 361 -284 80 -126 76 249 c 256
 72 618 364 807 638 807 c 256
 908 807 1262 743 1262 40 c 256
 1312 40 l 256
 1312 748 970 858 638 858 c 256
 332 858 27 678 27 248 c 256
 27 -165 318 -333 659 -324 c 256
 991 -315 1135 -90 1153 140 c 256
EndSplineSet
PickledDataWithLists: "(dp1
S'com.schriftgestaltung.Glyphs.lastChange'
p2
S'2018-08-08 10:17:17 +0000'
p3
s."
EndChar

StartChar: ArchaicNinety
Encoding: 9 70130 9
GlifName: A_rchaicN_inety
Width: 836
VWidth: 0
Flags: W
LayerCount: 2
Fore
SplineSet
489 -12 m 256
 668 -12 809 95 809 246 c 256
 809 335 758 406 660 411 c 257
 668 420 683 443 683 462 c 256
 683 641 279 522 279 714 c 256
 279 769 336 815 427 815 c 256
 573 815 661 749 682 674 c 256
 686 661 680 641 680 625 c 256
 680 603 686 585 706 585 c 256
 722 585 730 602 730 625 c 256
 731 704 771 742 791 769 c 256
 797 777 800 784 800 791 c 256
 800 803 791 812 779 812 c 256
 770 812 759 807 749 795 c 256
 733 775 720 755 709 734 c 257
 670 808 582 863 427 863 c 256
 304 863 227 800 227 714 c 256
 227 465 635 594 635 462 c 256
 635 430 604 425 580 400 c 256
 559 378 545 344 545 314 c 256
 545 254 600 210 600 192 c 256
 600 178 609 162 626 162 c 256
 644 162 652 173 652 192 c 256
 652 221 594 265 594 314 c 256
 594 348 611 378 644 378 c 256
 712 378 762 318 762 246 c 256
 762 126 645 36 489 36 c 256
 338 36 215 121 215 229 c 256
 215 333 280 378 322 358 c 256
 332 354 340 347 350 348 c 256
 363 349 370 360 369 371 c 256
 368 377 365 383 359 390 c 256
 335 418 312 432 309 445 c 256
 306 460 314 474 327 475 c 256
 334 476 340 471 348 463 c 256
 358 452 363 445 373 434 c 256
 380 427 387 422 394 423 c 256
 406 424 413 435 411 448 c 256
 411 452 409 456 408 460 c 256
 407 462 406 464 405 466 c 256
 394 486 375 500 353 512 c 256
 347 515 341 517 336 519 c 256
 227 553 42 483 42 228 c 256
 42 137 88 54 148 10 c 256
 162 0 179 0 187 11 c 256
 196 23 190 39 178 49 c 256
 127 92 90 140 90 228 c 256
 90 413 194 476 270 476 c 257
 254 458 270 416 287 397 c 257
 219 392 167 331 167 229 c 256
 167 85 305 -12 489 -12 c 256
EndSplineSet
PickledDataWithLists: "(dp1
S'com.schriftgestaltung.Glyphs.lastChange'
p2
S'2018-08-08 10:17:17 +0000'
p3
s."
EndChar

StartChar: ArchaicOne
Encoding: 10 70113 10
GlifName: A_rchaicO_ne
Width: 745
VWidth: 0
Flags: W
LayerCount: 2
Fore
SplineSet
672 492 m 256
 654 467 633 415 615 338 c 257
 584 458 468 540 341 540 c 256
 148 540 27 421 27 245 c 256
 27 104 123 -12 269 -10 c 256
 385 -8 457 64 460 162 c 256
 464 267 398 328 324 328 c 256
 270 328 213 291 213 229 c 256
 213 177 246 157 281 156 c 256
 307 156 332 173 334 196 c 256
 336 224 322 246 294 245 c 256
 273 244 263 230 263 216 c 257
 261 220 259 226 259 230 c 256
 259 259 286 279 325 279 c 256
 371 279 412 240 409 163 c 256
 406 88 342 41 267 40 c 256
 143 40 75 142 75 248 c 256
 75 393 191 492 345 492 c 256
 496 492 599 359 599 165 c 256
 599 77 599 122 599 40 c 256
 599 18 605 0 625 0 c 256
 641 0 649 17 649 40 c 256
 649 76 649 119 649 165 c 256
 649 296 658 370 714 466 c 256
 731 494 692 519 672 492 c 256
EndSplineSet
PickledDataWithLists: "(dp1
S'com.schriftgestaltung.Glyphs.lastChange'
p2
S'2018-08-08 10:17:17 +0000'
p3
s."
EndChar

StartChar: ArchaicSeven
Encoding: 11 70119 11
GlifName: A_rchaicS_even
Width: 855
VWidth: 0
Flags: W
LayerCount: 2
Fore
SplineSet
708 28 m 256
 708 6 714 -12 734 -12 c 256
 750 -12 758 5 758 28 c 256
 759 107 799 145 819 172 c 256
 845 207 806 234 777 198 c 256
 732 142 708 81 708 28 c 256
238 128 m 256
 144 108 77 184 77 269 c 256
 77 406 177 487 314 487 c 256
 579 487 607 226 607 107 c 256
 607 -51 531 -274 365 -274 c 256
 279 -274 216 -228 216 -131 c 256
 216 -54 280 -12 342 -12 c 256
 470 -12 592 -12 730 -12 c 256
 746 -12 756 1 757 15 c 256
 758 29 747 43 732 43 c 256
 593 43 429 43 342 43 c 256
 256 43 166 -22 166 -132 c 256
 166 -250 240 -324 366 -324 c 256
 521 -324 659 -134 659 108 c 256
 659 275 587 540 313 538 c 256
 168 537 27 456 27 265 c 256
 27 128 138 56 234 70 c 256
 274 76 316 96 303 123 c 256
 295 139 280 137 238 128 c 256
EndSplineSet
PickledDataWithLists: "(dp1
S'com.schriftgestaltung.Glyphs.lastChange'
p2
S'2018-08-08 10:17:17 +0000'
p3
s."
EndChar

StartChar: ArchaicSeventy
Encoding: 12 70128 12
GlifName: A_rchaicS_eventy
Width: 1655
VWidth: 0
Flags: W
LayerCount: 2
Fore
SplineSet
1393 111 m 257
 1374 70 1343 52 1308 52 c 256
 1274 52 1234 83 1234 116 c 256
 1234 148 1253 185 1308 185 c 256
 1355 185 1397 151 1393 111 c 257
514 231 m 257
 569 173 640 14 640 -108 c 256
 640 -224 570 -272 505 -272 c 256
 438 -272 351 -230 351 -112 c 256
 351 -25 424 123 514 231 c 257
810 482 m 257
 796 461 803 429 815 409 c 257
 756 409 675 362 675 234 c 256
 675 85 786 0 925 0 c 256
 1027 0 1129 67 1129 172 c 256
 1129 249 1090 291 1021 291 c 257
 1033 394 1096 479 1206 479 c 256
 1309 479 1417 420 1417 245 c 256
 1417 227 1416 210 1415 195 c 257
 1389 220 1351 238 1308 238 c 256
 1241 238 1180 190 1180 116 c 256
 1180 43 1242 0 1308 0 c 256
 1361 0 1404 25 1432 74 c 257
 1451 85 1464 62 1464 34 c 256
 1464 12 1469 2 1489 2 c 256
 1497 2 1501 6 1506 9 c 256
 1563 38 1589 138 1589 260 c 256
 1589 421 1522 498 1467 526 c 256
 1455 532 1431 537 1424 520 c 256
 1418 506 1428 495 1441 487 c 256
 1505 446 1541 373 1541 260 c 256
 1541 212 1538 122 1505 70 c 257
 1496 92 1480 117 1453 124 c 257
 1463 158 1468 198 1468 245 c 256
 1468 432 1359 529 1206 529 c 256
 1066 529 970 414 970 275 c 256
 970 264 978 248 991 248 c 256
 1002 248 1012 248 1023 248 c 256
 1060 248 1081 222 1081 172 c 256
 1081 121 1025 48 925 48 c 256
 806 48 727 122 727 234 c 256
 727 341 782 370 833 370 c 256
 844 370 854 366 860 360 c 256
 868 352 883 351 892 358 c 256
 902 366 904 383 896 392 c 256
 889 400 872 411 855 436 c 256
 846 449 848 471 863 479 c 256
 881 489 899 473 911 459 c 256
 925 443 930 438 938 430 c 256
 948 420 961 417 972 425 c 256
 982 432 987 450 975 462 c 256
 950 486 928 512 883 530 c 256
 866 537 826 536 804 531 c 256
 716 510 610 400 583 369 c 257
 591 463 543 544 439 544 c 256
 378 544 341 523 320 492 c 257
 299 521 263 539 220 539 c 256
 109 539 30 429 30 287 c 256
 30 83 169 6 206 6 c 256
 219 6 228 13 228 27 c 256
 228 37 221 46 203 56 c 256
 190 63 80 131 80 284 c 256
 80 401 147 490 221 490 c 256
 265 490 295 452 295 405 c 258
 295 356 l 258
 295 331 301 316 320 316 c 256
 338 316 345 331 345 350 c 258
 345 405 l 258
 345 457 368 495 440 495 c 256
 508 495 543 426 540 358 c 256
 539 326 523 318 504 293 c 256
 389 147 302 1 302 -112 c 256
 302 -255 399 -321 505 -321 c 256
 613 -321 689 -237 689 -108 c 256
 689 35 596 219 545 267 c 257
 630 359 732 466 810 482 c 257
EndSplineSet
PickledDataWithLists: "(dp1
S'com.schriftgestaltung.Glyphs.lastChange'
p2
S'2018-08-08 10:17:17 +0000'
p3
s."
EndChar

StartChar: ArchaicSix
Encoding: 13 70118 13
GlifName: A_rchaicS_ix
Width: 779
VWidth: 0
Flags: W
LayerCount: 2
Fore
SplineSet
426 -3 m 256
 646 -8 753 161 753 334 c 256
 753 607 541 783 318 783 c 256
 264 783 212 775 162 758 c 256
 147 753 142 743 142 734 c 256
 142 722 151 710 167 710 c 256
 171 710 173 710 177 711 c 256
 224 724 271 731 318 731 c 256
 516 731 704 593 704 334 c 256
 704 197 615 45 426 45 c 256
 316 45 212 116 212 220 c 256
 212 312 253 348 300 370 c 256
 312 376 316 371 327 360 c 256
 335 352 350 351 359 358 c 256
 369 366 371 383 363 392 c 256
 356 400 339 411 322 436 c 256
 313 449 315 471 330 479 c 256
 348 489 366 473 378 459 c 256
 392 443 397 438 405 430 c 256
 415 420 428 417 439 425 c 256
 449 432 454 450 442 462 c 256
 417 486 397 517 350 530 c 256
 256 558 45 505 45 235 c 256
 45 139 103 40 157 10 c 256
 169 4 192 -1 200 16 c 256
 206 30 196 41 183 49 c 256
 119 90 93 178 93 235 c 256
 93 396 179 474 280 486 c 257
 261 466 270 429 282 409 c 257
 215 377 164 334 164 220 c 256
 164 81 290 0 426 -3 c 256
EndSplineSet
PickledDataWithLists: "(dp1
S'com.schriftgestaltung.Glyphs.lastChange'
p2
S'2018-08-08 10:17:17 +0000'
p3
s."
EndChar

StartChar: ArchaicSixty
Encoding: 14 70127 14
GlifName: A_rchaicS_ixty
Width: 1040
VWidth: 0
Flags: W
LayerCount: 2
Fore
SplineSet
792 34 m 256
 792 25 801 13 813 13 c 256
 823 13 834 20 845 33 c 256
 895 93 949 98 982 107 c 256
 1000 112 1004 124 1004 134 c 256
 1004 146 997 156 978 156 c 256
 906 156 836 100 806 64 c 256
 798 54 792 43 792 34 c 256
974 422 m 256
 974 480 954 543 888 543 c 256
 727 543 392 46 392 -156 c 256
 392 -250 425 -319 505 -319 c 256
 582 -319 619 -250 619 -152 c 256
 619 44 446 142 406 169 c 257
 452 188 564 276 564 388 c 256
 564 496 512 544 407 544 c 256
 346 544 309 523 288 492 c 257
 267 521 231 539 188 539 c 256
 77 539 28 459 28 317 c 256
 28 113 167 6 204 6 c 256
 217 6 226 13 226 27 c 256
 226 37 219 46 201 56 c 256
 188 63 78 161 78 314 c 256
 78 431 115 490 189 490 c 256
 233 490 263 452 263 405 c 258
 263 396 l 258
 263 371 269 356 288 356 c 256
 306 356 313 371 313 390 c 258
 313 405 l 258
 313 457 336 495 408 495 c 256
 476 495 512 469 512 388 c 256
 512 296 406 223 376 202 c 256
 367 196 358 187 358 171 c 256
 358 155 366 147 374 141 c 256
 428 96 569 6 569 -152 c 256
 569 -234 549 -270 505 -270 c 256
 467 -270 441 -231 441 -156 c 256
 441 32 759 494 888 494 c 256
 923 494 925 456 925 422 c 256
 925 333 847 164 798 57 c 256
 789 37 790 22 802 16 c 256
 815 9 834 16 843 36 c 256
 911 190 974 326 974 422 c 256
EndSplineSet
PickledDataWithLists: "(dp1
S'com.schriftgestaltung.Glyphs.lastChange'
p2
S'2018-08-08 10:17:17 +0000'
p3
s."
EndChar

StartChar: ArchaicTen
Encoding: 15 70122 15
GlifName: A_rchaicT_en
Width: 1139
VWidth: 0
Flags: W
LayerCount: 2
Fore
SplineSet
323 370 m 256
 334 370 344 366 350 360 c 256
 358 352 373 351 382 358 c 256
 392 366 394 383 386 392 c 256
 379 400 362 411 345 436 c 256
 336 449 338 471 353 479 c 256
 371 489 389 473 401 459 c 256
 415 443 420 438 428 430 c 256
 438 420 451 417 462 425 c 256
 472 432 477 450 465 462 c 256
 440 486 420 516 373 530 c 256
 279 558 68 505 68 235 c 256
 68 139 126 40 180 10 c 256
 192 4 215 -1 223 16 c 256
 229 30 219 41 206 49 c 256
 142 90 116 178 116 235 c 256
 116 396 202 474 303 486 c 257
 284 466 293 429 305 409 c 257
 246 409 165 362 165 234 c 256
 165 85 276 0 415 0 c 256
 517 0 619 67 619 172 c 256
 619 249 580 291 511 291 c 257
 523 394 586 479 696 479 c 256
 799 479 907 420 907 245 c 256
 907 227 906 210 905 195 c 257
 879 220 841 238 798 238 c 256
 731 238 670 190 670 116 c 256
 670 43 732 0 798 0 c 256
 851 0 894 25 922 74 c 257
 941 85 954 62 954 34 c 256
 954 12 959 2 979 2 c 256
 987 2 992 4 996 9 c 256
 1053 38 1079 138 1079 260 c 256
 1079 421 1011 496 957 526 c 256
 945 532 922 537 914 520 c 256
 908 506 918 495 931 487 c 256
 995 446 1031 373 1031 260 c 256
 1031 212 1028 122 995 70 c 257
 986 92 970 117 943 124 c 257
 953 158 958 198 958 245 c 256
 958 432 849 529 696 529 c 256
 556 529 462 414 460 275 c 256
 460 264 468 248 481 248 c 256
 492 248 502 248 513 248 c 256
 550 248 571 222 571 172 c 256
 571 121 515 48 415 48 c 256
 296 48 217 122 217 234 c 256
 217 341 272 370 323 370 c 256
883 111 m 257
 864 70 833 52 798 52 c 256
 764 52 724 83 724 116 c 256
 724 148 743 185 798 185 c 256
 845 185 887 151 883 111 c 257
EndSplineSet
PickledDataWithLists: "(dp1
S'com.schriftgestaltung.Glyphs.lastChange'
p2
S'2018-08-08 10:17:17 +0000'
p3
s."
EndChar

StartChar: ArchaicThirty
Encoding: 16 70124 16
GlifName: A_rchaicT_hirty
Width: 872
VWidth: 0
Flags: W
LayerCount: 2
Fore
SplineSet
701 644 m 256
 701 697 725 758 770 814 c 256
 780 826 791 831 800 831 c 256
 812 831 821 822 821 810 c 256
 821 803 818 796 812 788 c 256
 792 761 751 723 751 644 c 256
 751 621 743 604 727 604 c 256
 707 604 701 622 701 644 c 256
236 -13 m 256
 154 -13 64 62 64 232 c 256
 64 369 148 462 231 462 c 256
 353 462 294 296 415 296 c 256
 454 296 480 324 480 360 c 256
 480 411 439 430 400 430 c 256
 310 430 246 358 246 255 c 256
 246 122 354 32 506 32 c 256
 645 32 734 127 734 243 c 256
 734 585 236 419 236 686 c 256
 236 768 315 862 467 862 c 256
 627 862 721 795 745 638 c 256
 745 636 745 634 745 632 c 256
 745 619 740 604 725 604 c 256
 716 604 706 609 703 627 c 256
 680 777 600 814 467 814 c 256
 368 814 286 756 286 686 c 256
 286 468 781 617 781 243 c 256
 781 96 689 -17 506 -17 c 256
 303 -17 199 100 199 255 c 256
 199 401 294 479 400 479 c 256
 466 479 529 437 529 360 c 256
 529 284 469 249 415 249 c 256
 270 249 306 418 232 418 c 256
 175 418 112 350 112 232 c 256
 112 118 159 30 236 30 c 256
 252 30 261 22 261 8 c 256
 261 -6 255 -13 236 -13 c 256
EndSplineSet
PickledDataWithLists: "(dp1
S'com.schriftgestaltung.Glyphs.lastChange'
p2
S'2018-08-08 10:17:17 +0000'
p3
s."
EndChar

StartChar: ArchaicThousand
Encoding: 17 70132 17
GlifName: A_rchaicT_housand
Width: 1249
VWidth: 0
Flags: W
LayerCount: 2
Fore
SplineSet
1076 492 m 256
 1082 500 1090 504 1097 504 c 256
 1110 504 1122 493 1122 480 c 256
 1122 476 1121 471 1118 466 c 256
 1047 344 1053 222 1053 40 c 256
 1053 17 1046 2 1030 2 c 256
 1010 2 1003 18 1003 40 c 256
 1003 285 1017 411 1076 492 c 256
360 -129 m 256
 360 -224 425 -275 504 -275 c 256
 573 -275 645 -250 646 -192 c 256
 646 -174 635 -165 638 -147 c 256
 641 -133 652 -124 663 -124 c 256
 679 -124 688 -129 705 -145 c 256
 727 -166 836 -219 854 -253 c 257
 853 90 l 258
 852 395 828 489 710 489 c 256
 654 489 613 451 613 404 c 258
 613 279 l 258
 613 257 604 245 588 245 c 256
 570 245 561 256 561 279 c 258
 561 404 l 258
 561 451 524 489 474 489 c 256
 409 489 386 459 386 414 c 256
 386 358 387 321 387 274 c 256
 387 255 380 240 362 240 c 256
 346 240 336 252 336 274 c 258
 336 399 l 258
 336 446 295 484 239 484 c 256
 145 484 74 393 74 268 c 256
 74 159 125 49 213 49 c 256
 236 49 249 43 249 27 c 256
 249 10 232 0 210 0 c 256
 108 0 27 101 27 269 c 256
 27 420 109 533 238 533 c 256
 290 533 330 515 355 486 c 257
 374 517 410 538 473 538 c 256
 526 538 565 517 588 484 c 257
 613 517 655 538 711 538 c 256
 868 538 902 419 902 90 c 258
 902 -290 l 258
 902 -314 889 -323 871 -323 c 256
 859 -323 842 -321 830 -301 c 256
 792 -236 712 -214 688 -188 c 257
 689 -195 690 -204 690 -209 c 256
 690 -274 620 -323 504 -323 c 256
 398 -323 311 -243 311 -129 c 256
 311 -9 399 101 545 101 c 256
 614 101 653 50 653 -5 c 256
 653 -53 607 -101 560 -101 c 256
 512 -101 462 -70 462 -3 c 256
 462 127 606 143 706 143 c 256
 834 143 978 77 1038 43 c 256
 1048 37 1054 29 1054 20 c 256
 1054 0 1029 -6 1017 2 c 256
 961 38 816 95 706 95 c 256
 640 95 511 87 511 -3 c 256
 511 -38 542 -52 560 -52 c 256
 577 -52 603 -35 603 -5 c 256
 603 22 590 51 545 51 c 256
 428 51 360 -33 360 -129 c 256
EndSplineSet
PickledDataWithLists: "(dp1
S'com.schriftgestaltung.Glyphs.lastChange'
p2
S'2018-08-08 10:17:17 +0000'
p3
s."
EndChar

StartChar: ArchaicThree
Encoding: 18 70115 18
GlifName: A_rchaicT_hree
Width: 1232
VWidth: 0
Flags: W
LayerCount: 2
Fore
SplineSet
939 54 m 256
 1009 16 1099 101 1145 167 c 256
 1165 196 1187 195 1199 180 c 256
 1209 168 1207 149 1192 134 c 256
 1108 50 1036 -33 930 6 c 256
 798 55 808 307 729 307 c 256
 672 307 649 231 649 165 c 256
 649 119 649 76 649 40 c 256
 649 17 641 0 625 0 c 256
 605 0 599 18 599 40 c 256
 599 122 599 77 599 165 c 256
 599 359 496 492 345 492 c 256
 191 492 75 393 75 248 c 256
 75 142 143 40 267 40 c 256
 342 41 406 88 409 163 c 256
 412 240 371 279 325 279 c 256
 286 279 259 259 259 230 c 256
 259 226 261 220 263 216 c 257
 263 230 273 244 294 245 c 256
 322 246 336 224 334 196 c 256
 332 173 307 156 281 156 c 256
 246 157 213 177 213 229 c 256
 213 291 270 328 324 328 c 256
 398 328 464 267 460 162 c 256
 457 64 385 -8 269 -10 c 256
 123 -12 27 104 27 245 c 256
 27 421 148 540 341 540 c 256
 476 540 594 451 626 270 c 257
 637 333 681 356 728 356 c 256
 866 356 833 112 939 54 c 256
EndSplineSet
PickledDataWithLists: "(dp1
S'com.schriftgestaltung.Glyphs.lastChange'
p2
S'2018-08-08 10:17:17 +0000'
p3
s."
EndChar

StartChar: ArchaicTwenty
Encoding: 19 70123 19
GlifName: A_rchaicT_wenty
Width: 896
VWidth: 0
Flags: W
LayerCount: 2
Fore
SplineSet
710 624 m 256
 710 602 716 584 736 584 c 256
 752 584 760 601 760 624 c 256
 761 703 801 741 821 768 c 256
 827 776 830 784 830 790 c 256
 830 803 821 811 809 811 c 256
 800 811 789 806 779 794 c 256
 763 774 750 754 739 733 c 257
 700 807 612 862 457 862 c 256
 348 862 283 806 283 731 c 256
 283 518 665 616 665 472 c 256
 665 446 647 430 629 419 c 256
 612 409 608 397 610 387 c 256
 613 373 630 362 644 373 c 256
 656 382 671 393 692 393 c 256
 784 393 832 304 832 221 c 256
 832 110 769 48 686 48 c 256
 593 48 547 102 547 186 c 256
 547 198 543 215 523 215 c 256
 505 215 500 198 500 186 c 256
 500 102 469 48 370 48 c 256
 287 48 210 112 210 216 c 256
 210 293 253 348 300 370 c 256
 312 376 316 371 327 360 c 256
 335 352 350 351 359 358 c 256
 369 366 371 383 363 392 c 256
 356 400 339 411 322 436 c 256
 313 449 315 471 330 479 c 256
 348 489 366 473 378 459 c 256
 392 443 397 438 405 430 c 256
 415 420 428 417 439 425 c 256
 449 432 454 450 442 462 c 256
 417 486 397 517 350 530 c 256
 256 558 45 505 45 235 c 256
 45 139 103 40 157 10 c 256
 169 4 192 -1 200 16 c 256
 206 30 196 41 183 49 c 256
 119 90 93 178 93 235 c 256
 93 396 179 474 280 486 c 257
 261 466 270 429 282 409 c 257
 215 377 162 307 162 216 c 256
 162 77 262 0 370 0 c 256
 456 0 505 37 523 99 c 257
 540 37 611 0 686 0 c 256
 794 0 880 76 880 221 c 256
 880 322 818 430 704 436 c 257
 708 442 712 456 712 465 c 256
 712 671 335 556 335 731 c 256
 335 778 378 814 457 814 c 256
 603 814 693 748 712 673 c 256
 713 670 714 668 714 665 c 256
 711 651 710 637 710 624 c 256
EndSplineSet
PickledDataWithLists: "(dp1
S'com.schriftgestaltung.Glyphs.lastChange'
p2
S'2018-08-08 10:17:17 +0000'
p3
s."
EndChar

StartChar: ArchaicTwo
Encoding: 20 70114 20
GlifName: A_rchaicT_wo
Width: 1125
VWidth: 0
Flags: W
LayerCount: 2
Fore
SplineSet
460 162 m 256
 464 267 398 328 324 328 c 256
 270 328 213 291 213 229 c 256
 213 177 246 157 281 156 c 256
 307 156 332 173 334 196 c 256
 336 224 322 246 294 245 c 256
 273 244 263 230 263 216 c 257
 261 220 259 226 259 230 c 256
 259 259 286 279 325 279 c 256
 371 279 412 240 409 163 c 256
 406 88 342 41 267 40 c 256
 143 40 75 142 75 248 c 256
 75 393 191 492 345 492 c 256
 496 492 565 386 600 261 c 256
 635 134 712 23 820 6 c 256
 927 -11 1000 48 1082 134 c 256
 1102 155 1104 175 1089 188 c 256
 1075 200 1054 194 1030 168 c 256
 976 109 902 40 824 62 c 256
 737 86 690 139 655 257 c 256
 605 427 514 540 341 540 c 256
 148 540 27 421 27 245 c 256
 27 104 123 -12 269 -10 c 256
 385 -8 457 64 460 162 c 256
EndSplineSet
PickledDataWithLists: "(dp1
S'com.schriftgestaltung.Glyphs.lastChange'
p2
S'2018-08-08 10:17:17 +0000'
p3
s."
EndChar

StartChar: LithEight
Encoding: 22 3566 22
GlifName: L_ithE_ight
Width: 598
VWidth: 0
Flags: W
LayerCount: 2
Fore
SplineSet
232 534 m 257
 292 598 403 718 488 808 c 256
 497 817 501 828 501 835 c 256
 501 849 489 857 477 857 c 256
 470 857 460 856 453 849 c 256
 361 752 256 635 181 553 c 256
 91 454 16 375 28 238 c 256
 41 94 150 -9 301 -9 c 256
 451 -9 572 112 572 262 c 256
 572 404 477 522 348 518 c 256
 290 516 238 499 206 456 c 256
 196 441 189 421 198 412 c 256
 208 403 230 412 236 417 c 256
 264 438 288 465 348 470 c 256
 436 477 523 374 523 262 c 256
 523 138 426 40 301 40 c 256
 177 40 78 137 78 262 c 256
 78 373 145 434 192 490 c 258
 232 534 l 257
EndSplineSet
PickledDataWithLists: "(dp1
S'com.schriftgestaltung.Glyphs.lastChange'
p2
S'2018-08-08 10:17:17 +0000'
p3
s."
EndChar

StartChar: LithFive
Encoding: 23 3563 23
GlifName: L_ithF_ive
Width: 464
VWidth: 0
Flags: W
LayerCount: 2
Fore
SplineSet
421 -311 m 256
 437 -306 451 -294 446 -279 c 256
 442 -266 431 -261 417 -263 c 256
 401 -265 385 -272 346 -272 c 256
 270 -272 205 -235 205 -161 c 256
 205 -108 253 -75 299 -60 c 256
 312 -55 355 -49 385 -49 c 256
 403 -49 416 -39 416 -23 c 256
 416 -2 401 5 385 5 c 256
 342 5 297 -1 260 6 c 256
 156 24 78 85 78 189 c 256
 78 310 177 358 280 358 c 256
 330 358 356 353 381 353 c 256
 397 353 410 363 410 378 c 256
 410 396 398 405 382 405 c 256
 357 405 324 406 306 414 c 256
 274 426 267 444 267 458 c 256
 267 473 279 492 328 492 c 256
 353 492 386 483 400 483 c 256
 413 483 425 490 425 506 c 256
 425 522 414 532 400 532 c 256
 382 532 345 540 324 540 c 256
 267 540 216 514 216 461 c 256
 216 435 229 410 242 402 c 257
 152 402 28 340 28 189 c 256
 28 57 124 -19 232 -34 c 257
 199 -54 155 -86 155 -162 c 256
 155 -266 245 -320 346 -320 c 256
 378 -320 405 -316 421 -311 c 256
EndSplineSet
PickledDataWithLists: "(dp1
S'com.schriftgestaltung.Glyphs.lastChange'
p2
S'2018-08-08 10:17:17 +0000'
p3
s."
EndChar

StartChar: LithFour
Encoding: 24 3562 24
GlifName: L_ithF_our
Width: 716
VWidth: 0
Flags: W
LayerCount: 2
Fore
SplineSet
192 492 m 256
 176 494 158 484 158 461 c 256
 158 431 182 411 197 387 c 256
 206 373 197 358 190 353 c 256
 175 343 154 343 134 332 c 256
 109 318 75 293 75 231 c 256
 75 108 181 38 334 38 c 256
 506 38 602 113 602 239 c 256
 602 276 584 323 557 344 c 256
 537 360 509 378 456 378 c 256
 443 378 430 386 425 395 c 256
 418 407 418 425 426 439 c 256
 491 556 598 750 655 846 c 256
 665 862 682 866 694 859 c 256
 706 852 708 836 698 819 c 256
 645 728 540 540 480 435 c 256
 476 428 478 423 486 422 c 256
 522 417 550 405 580 386 c 256
 618 361 653 308 652 239 c 256
 650 81 540 -10 334 -10 c 256
 146 -10 26 81 26 231 c 256
 26 343 96 374 136 387 c 257
 121 404 101 441 108 480 c 256
 114 516 149 543 194 540 c 256
 256 536 276 471 289 452 c 256
 297 441 294 423 283 417 c 256
 269 409 254 416 246 428 c 256
 234 446 220 488 192 492 c 256
EndSplineSet
PickledDataWithLists: "(dp1
S'com.schriftgestaltung.Glyphs.lastChange'
p2
S'2018-08-08 10:17:17 +0000'
p3
s."
EndChar

StartChar: LithNine
Encoding: 25 3567 25
GlifName: L_ithN_ine
Width: 964
VWidth: 0
Flags: W
LayerCount: 2
Fore
SplineSet
576 519 m 256
 576 530 565 540 549 536 c 256
 521 529 504 520 484 529 c 256
 428 542 394 596 392 656 c 256
 390 755 484 816 600 816 c 256
 720 816 806 750 806 662 c 256
 806 557 755 529 714 529 c 256
 700 529 685 524 666 537 c 256
 654 545 633 544 633 525 c 256
 633 519 635 511 640 507 c 256
 658 489 686 484 714 484 c 256
 815 484 855 585 854 657 c 256
 853 780 760 864 600 864 c 256
 471 864 348 790 348 656 c 256
 349 565 412 492 488 485 c 256
 509 482 527 485 546 491 c 256
 567 498 576 504 576 519 c 256
460 162 m 256
 464 267 398 328 324 328 c 256
 270 328 213 291 213 229 c 256
 213 177 246 157 281 156 c 256
 307 156 332 173 334 196 c 256
 336 224 322 246 294 245 c 256
 273 244 263 230 263 216 c 257
 261 220 259 226 259 230 c 256
 259 259 286 279 325 279 c 256
 371 279 412 240 409 163 c 256
 406 88 342 41 267 40 c 256
 143 40 75 142 75 248 c 256
 75 393 191 492 345 492 c 256
 496 492 599 359 599 165 c 256
 599 77 599 122 599 40 c 256
 599 18 605 0 625 0 c 256
 641 0 649 17 649 40 c 256
 649 76 649 119 649 165 c 256
 649 314 690 484 769 484 c 256
 852 484 886 338 886 159 c 256
 886 63 886 130 886 34 c 256
 886 12 895 0 911 0 c 256
 929 0 937 14 937 34 c 256
 937 131 937 61 937 159 c 256
 937 364 898 533 768 533 c 256
 698 533 638 474 619 315 c 257
 587 457 472 540 341 540 c 256
 148 540 27 421 27 245 c 256
 27 104 123 -12 269 -10 c 256
 385 -8 457 64 460 162 c 256
EndSplineSet
PickledDataWithLists: "(dp1
S'com.schriftgestaltung.Glyphs.lastChange'
p2
S'2018-08-08 10:17:17 +0000'
p3
s."
EndChar

StartChar: LithOne
Encoding: 26 3559 26
GlifName: L_ithO_ne
Width: 681
VWidth: 0
Flags: W
LayerCount: 2
Fore
SplineSet
460 162 m 256
 464 267 398 328 324 328 c 256
 270 328 213 291 213 229 c 256
 213 177 246 157 281 156 c 256
 307 156 332 173 334 196 c 256
 336 224 322 246 294 245 c 256
 273 244 263 230 263 216 c 257
 261 220 259 226 259 230 c 256
 259 259 286 279 325 279 c 256
 371 279 412 240 409 163 c 256
 406 88 342 41 267 40 c 256
 143 40 75 142 75 248 c 256
 75 393 191 492 345 492 c 256
 496 492 584 386 600 261 c 256
 610 178 590 80 572 33 c 256
 564 12 571 -6 591 -10 c 256
 607 -13 617 -2 624 20 c 256
 640 68 663 178 652 257 c 256
 627 432 514 540 341 540 c 256
 148 540 27 421 27 245 c 256
 27 104 123 -12 269 -10 c 256
 385 -8 457 64 460 162 c 256
EndSplineSet
PickledDataWithLists: "(dp1
S'com.schriftgestaltung.Glyphs.lastChange'
p2
S'2018-08-08 10:17:17 +0000'
p3
s."
EndChar

StartChar: LithSeven
Encoding: 27 3565 27
GlifName: L_ithS_even
Width: 559
VWidth: 0
Flags: W
LayerCount: 2
Fore
SplineSet
522 -314 m 256
 542 -311 545 -292 543 -282 c 256
 540 -268 527 -262 510 -265 c 256
 470 -271 441 -275 377 -275 c 256
 220 -275 76 -173 76 54 c 256
 76 240 193 305 270 327 c 256
 344 348 412 334 460 334 c 256
 476 334 488 344 488 360 c 256
 488 378 477 388 460 388 c 256
 436 388 396 392 378 398 c 256
 349 408 332 423 332 450 c 256
 332 477 359 489 388 489 c 256
 415 489 455 483 482 483 c 256
 498 483 507 492 508 504 c 256
 509 520 501 534 482 534 c 256
 458 534 426 539 388 539 c 256
 329 539 276 511 276 453 c 256
 276 418 290 396 302 385 c 257
 285 383 256 377 241 372 c 256
 159 346 23 256 23 54 c 256
 23 -182 175 -323 377 -323 c 256
 445 -323 479 -320 522 -314 c 256
EndSplineSet
PickledDataWithLists: "(dp1
S'com.schriftgestaltung.Glyphs.lastChange'
p2
S'2018-08-08 10:17:17 +0000'
p3
s."
EndChar

StartChar: LithSix
Encoding: 28 3564 28
GlifName: L_ithS_ix
Width: 808
VWidth: 0
Flags: W
LayerCount: 2
Fore
SplineSet
385 487 m 256
 493 487 642 482 710 310 c 256
 759 186 683 100 655 76 c 257
 659 83 666 96 666 128 c 256
 666 185 619 241 546 241 c 256
 476 241 428 185 428 126 c 256
 428 44 490 1 568 1 c 256
 688 1 839 133 759 324 c 256
 691 486 566 538 385 538 c 256
 207 538 84 446 44 324 c 256
 -21 127 115 1 234 1 c 256
 313 1 375 44 375 126 c 256
 375 185 327 241 257 241 c 256
 183 241 137 185 137 128 c 256
 137 96 144 83 148 76 c 257
 120 100 54 182 93 310 c 256
 133 442 279 487 385 487 c 256
325 123 m 256
 325 81 297 54 257 54 c 256
 217 54 185 79 185 123 c 256
 185 163 213 191 257 191 c 256
 297 191 325 163 325 123 c 256
477 123 m 256
 477 163 505 191 546 191 c 256
 590 191 618 163 618 123 c 256
 618 79 586 54 546 54 c 256
 505 54 477 81 477 123 c 256
EndSplineSet
PickledDataWithLists: "(dp1
S'com.schriftgestaltung.Glyphs.lastChange'
p2
S'2018-08-08 10:17:17 +0000'
p3
s."
EndChar

StartChar: LithThree
Encoding: 29 3561 29
GlifName: L_ithT_hree
Width: 1297
VWidth: 0
Flags: W
LayerCount: 2
Fore
SplineSet
967 466 m 256
 950 443 951 421 962 414 c 256
 969 410 983 406 1001 429 c 256
 1026 462 1049 486 1096 486 c 256
 1171 486 1227 380 1227 265 c 256
 1227 153 1191 48 1111 48 c 256
 1061 48 1031 69 1017 91 c 256
 1003 111 1000 128 983 127 c 256
 959 126 958 97 965 85 c 256
 991 40 1026 0 1110 0 c 256
 1219 0 1270 108 1270 264 c 256
 1270 417 1198 532 1097 532 c 256
 1027 532 995 503 967 466 c 256
460 162 m 256
 464 267 398 328 324 328 c 256
 270 328 213 291 213 229 c 256
 213 177 246 157 281 156 c 256
 307 156 332 173 334 196 c 256
 336 224 322 246 294 245 c 256
 273 244 263 230 263 216 c 257
 261 220 259 226 259 230 c 256
 259 259 286 279 325 279 c 256
 371 279 412 240 409 163 c 256
 406 88 342 41 267 40 c 256
 143 40 75 142 75 248 c 256
 75 393 191 492 345 492 c 256
 496 492 599 359 599 165 c 256
 599 77 599 122 599 40 c 256
 599 18 605 0 625 0 c 256
 641 0 649 17 649 40 c 256
 649 76 649 119 649 165 c 256
 649 314 690 484 769 484 c 256
 852 484 886 338 886 159 c 256
 886 63 886 130 886 34 c 256
 886 12 895 0 911 0 c 256
 929 0 937 14 937 34 c 256
 937 131 937 61 937 159 c 256
 937 364 898 533 768 533 c 256
 698 533 638 474 619 315 c 257
 587 457 472 540 341 540 c 256
 148 540 27 421 27 245 c 256
 27 104 123 -12 269 -10 c 256
 385 -8 457 64 460 162 c 256
EndSplineSet
PickledDataWithLists: "(dp1
S'com.schriftgestaltung.Glyphs.lastChange'
p2
S'2018-08-08 10:17:17 +0000'
p3
s."
EndChar

StartChar: LithTwo
Encoding: 30 3560 30
GlifName: L_ithT_wo
Width: 1024
VWidth: 0
Flags: W
LayerCount: 2
Fore
SplineSet
460 162 m 256
 464 267 398 328 324 328 c 256
 270 328 213 291 213 229 c 256
 213 177 246 157 281 156 c 256
 307 156 332 173 334 196 c 256
 336 224 322 246 294 245 c 256
 273 244 263 230 263 216 c 257
 261 220 259 226 259 230 c 256
 259 259 286 279 325 279 c 256
 371 279 412 240 409 163 c 256
 406 88 342 41 267 40 c 256
 143 40 75 142 75 248 c 256
 75 393 191 492 345 492 c 256
 496 492 599 359 599 165 c 256
 599 77 599 122 599 40 c 256
 599 18 605 0 625 0 c 256
 641 0 649 17 649 40 c 256
 649 76 649 119 649 165 c 256
 649 314 692 484 799 484 c 256
 919 484 946 338 946 159 c 256
 946 63 946 130 946 34 c 256
 946 12 955 0 971 0 c 256
 989 0 997 14 997 34 c 256
 997 131 997 61 997 159 c 256
 997 364 962 533 798 533 c 256
 715 533 638 474 619 315 c 257
 587 457 472 540 341 540 c 256
 148 540 27 421 27 245 c 256
 27 104 123 -12 269 -10 c 256
 385 -8 457 64 460 162 c 256
EndSplineSet
PickledDataWithLists: "(dp1
S'com.schriftgestaltung.Glyphs.lastChange'
p2
S'2018-08-08 10:17:17 +0000'
p3
s."
EndChar

StartChar: LithZero
Encoding: 31 3558 31
GlifName: L_ithZ_ero
Width: 472
VWidth: 0
Flags: W
LayerCount: 2
Fore
SplineSet
161 0 m 257
 211 0 l 257
 211 157 l 257
 232 142 257 131 299 131 c 256
 385 131 446 206 446 300 c 256
 446 394 387 457 303 457 c 256
 262 457 233 442 211 427 c 257
 211 520 l 258
 211 533 198 538 190 541 c 256
 100 572 27 517 27 443 c 256
 27 383 76 339 129 339 c 256
 142 339 152 341 161 344 c 257
 161 0 l 257
161 492 m 257
 161 392 l 257
 153 388 144 385 130 385 c 256
 114 385 78 401 78 438 c 256
 78 493 130 506 161 492 c 257
211 209 m 257
 211 374 l 257
 238 393 262 409 301 409 c 256
 362 409 397 360 397 302 c 256
 397 236 356 180 299 180 c 256
 260 180 234 191 211 209 c 257
EndSplineSet
PickledDataWithLists: "(dp1
S'com.schriftgestaltung.Glyphs.lastChange'
p2
S'2018-08-08 10:17:17 +0000'
p3
s."
EndChar

StartChar: anusvara
Encoding: 32 3458 32
GlifName: anusvara
Width: 480
VWidth: 480
Flags: W
HStem: -3 47 306 47
VStem: 49 47 358 47
LayerCount: 2
Fore
SplineSet
417 176 m 256
 417 77 337 -3 238 -3 c 256
 141 -3 61 77 61 176 c 256
 61 273 141 353 238 353 c 256
 337 353 417 273 417 176 c 256
115 176 m 256
 115 105 171 51 238 51 c 256
 307 51 363 105 363 176 c 256
 363 243 307 300 238 300 c 256
 171 300 115 243 115 176 c 256
EndSplineSet
PickledDataWithLists: "(dp1
S'com.schriftgestaltung.Glyphs.lastChange'
p2
S'2018-08-04 01:07:05 +0000'
p3
sS'com.fontlab.hintData'
p4
(dp5
S'vhints'
p6
(lp7
(dp8
S'position'
p9
I49
sS'width'
p10
I47
sa(dp11
g9
I358
sg10
I47
sasS'hhints'
p12
(lp13
(dp14
g9
I-3
sg10
I47
sa(dp15
g9
I306
sg10
I47
sass."
EndChar

StartChar: asciicircum
Encoding: 33 94 33
GlifName: asciicircum
Width: 509
VWidth: 509
Flags: W
HStem: 720 248
LayerCount: 2
Fore
SplineSet
375 711 m 257
 254 875 l 257
 254 875 178 772 133 711 c 256
 123 698 105 691 91 701 c 256
 78 710 78 730 86 741 c 256
 138 810 221 923 221 923 c 258
 231 937 243 943 254 943 c 256
 265 943 276 936 286 924 c 258
 422 741 l 258
 430 730 430 710 417 701 c 256
 403 691 385 698 375 711 c 257
EndSplineSet
PickledDataWithLists: "(dp1
S'com.schriftgestaltung.Glyphs.lastChange'
p2
S'2018-08-04 01:07:05 +0000'
p3
sS'com.fontlab.hintData'
p4
(dp5
S'hhints'
p6
(lp7
(dp8
S'position'
p9
I720
sS'width'
p10
I248
sass."
EndChar

StartChar: asciitilde
Encoding: 34 126 34
GlifName: asciitilde
Width: 900
VWidth: 900
Flags: W
HStem: 194 60<592.5 664 592.5 673.5> 348 60<234 305.5>
LayerCount: 2
Fore
SplineSet
466 324 m 257
 416 364 375 408 270 408 c 256
 179 408 115 362 73 324 c 256
 61 313 55 295 65 281 c 256
 75 267 96 268 108 277 c 256
 165 321 198 348 270 348 c 256
 341 348 389 312 432 278 c 257
 482 238 523 194 628 194 c 256
 719 194 783 240 825 278 c 256
 837 289 843 307 833 321 c 256
 823 335 802 334 790 325 c 256
 733 281 700 254 628 254 c 256
 557 254 509 290 466 324 c 257
EndSplineSet
PickledDataWithLists: "(dp1
S'com.schriftgestaltung.Glyphs.lastChange'
p2
S'2018-08-04 01:07:05 +0000'
p3
sS'com.fontlab.hintData'
p4
(dp5
S'hhints'
p6
(lp7
(dp8
S'position'
p9
I194
sS'width'
p10
I60
sa(dp11
g9
I348
sg10
I60
sass."
EndChar

StartChar: asterisk
Encoding: 35 42 35
GlifName: asterisk
Width: 587
VWidth: 587
Flags: W
HStem: 20 500
LayerCount: 2
Fore
SplineSet
261 320 m 257
 261 499 l 258
 261 516 275 529 291 529 c 256
 307 529 321 515 321 499 c 258
 321 320 l 257
 476 409 l 258
 491 417 509 412 517 398 c 256
 525 384 520 366 506 358 c 258
 351 268 l 257
 506 178 l 258
 520 170 525 152 517 138 c 256
 509 124 491 119 476 127 c 258
 321 216 l 257
 321 37 l 258
 321 21 307 7 291 7 c 256
 275 7 261 20 261 37 c 258
 261 216 l 257
 106 127 l 258
 92 119 73 124 65 138 c 256
 57 152 61 170 76 178 c 258
 231 268 l 257
 76 358 l 258
 61 366 57 384 65 398 c 256
 73 412 92 417 106 409 c 258
 261 320 l 257
EndSplineSet
PickledDataWithLists: "(dp1
S'com.schriftgestaltung.Glyphs.lastChange'
p2
S'2018-08-04 01:07:05 +0000'
p3
sS'com.fontlab.hintData'
p4
(dp5
S'hhints'
p6
(lp7
(dp8
S'position'
p9
I20
sS'width'
p10
I500
sass."
EndChar

StartChar: backslash
Encoding: 36 92 36
GlifName: backslash
Width: 352
VWidth: 352
Flags: W
LayerCount: 2
Fore
SplineSet
217 2 m 256
 157 203 124 316 63 520 c 256
 50 560 105 580 117 537 c 256
 178 334 212 222 272 18 c 256
 284 -19 230 -38 217 2 c 256
EndSplineSet
PickledDataWithLists: "(dp1
S'com.schriftgestaltung.Glyphs.lastChange'
p2
S'2018-08-04 01:07:05 +0000'
p3
s."
EndChar

StartChar: bar
Encoding: 37 124 37
GlifName: bar
Width: 286
VWidth: 286
Flags: W
VStem: 117 57
LayerCount: 2
Fore
SplineSet
109 37 m 258
 109 719 l 258
 109 736 123 749 139 749 c 256
 155 749 169 735 169 719 c 258
 169 37 l 258
 169 21 155 7 139 7 c 256
 123 7 109 20 109 37 c 258
EndSplineSet
PickledDataWithLists: "(dp1
S'com.schriftgestaltung.Glyphs.lastChange'
p2
S'2018-08-04 00:59:56 +0000'
p3
sS'com.fontlab.hintData'
p4
(dp5
S'vhints'
p6
(lp7
(dp8
S'position'
p9
I117
sS'width'
p10
I57
sass."
EndChar

StartChar: braceleft
Encoding: 38 123 38
GlifName: braceleft
Width: 415
VWidth: 415
Flags: W
LayerCount: 2
Fore
SplineSet
157 -290 m 258
 157 -310 169 -320 188 -320 c 258
 188 -320 253 -320 289 -320 c 256
 302 -320 314 -308 314 -292 c 256
 314 -276 304 -265 289 -265 c 256
 260 -265 214 -265 214 -265 c 257
 214 805 l 257
 214 805 260 805 289 805 c 256
 304 805 314 816 314 832 c 256
 314 848 302 860 289 860 c 256
 253 860 188 860 188 860 c 258
 169 860 157 850 157 830 c 258
 157 300 l 257
 157 300 123 300 102 300 c 256
 82 300 72 285 72 269 c 256
 72 253 82 239 102 239 c 256
 122 239 157 239 157 239 c 257
 157 -290 l 258
EndSplineSet
PickledDataWithLists: "(dp1
S'com.schriftgestaltung.Glyphs.lastChange'
p2
S'2018-08-04 00:59:56 +0000'
p3
s."
EndChar

StartChar: braceright
Encoding: 39 125 39
GlifName: braceright
Width: 413
VWidth: 413
Flags: W
HStem: -320 55<121 139 121 196 121 222> 242 55 805 55<121 135.5 121 196>
VStem: 77 132 152 112 152 57
LayerCount: 2
Fore
SplineSet
253 -290 m 258
 253 -310 241 -320 222 -320 c 258
 222 -320 157 -320 121 -320 c 256
 108 -320 96 -308 96 -292 c 256
 96 -276 106 -265 121 -265 c 256
 150 -265 196 -265 196 -265 c 257
 196 805 l 257
 196 805 150 805 121 805 c 256
 106 805 96 816 96 832 c 256
 96 848 108 860 121 860 c 256
 157 860 222 860 222 860 c 258
 241 860 253 850 253 830 c 258
 253 300 l 257
 253 300 287 300 308 300 c 256
 328 300 338 285 338 269 c 256
 338 253 328 239 308 239 c 256
 288 239 253 239 253 239 c 257
 253 -290 l 258
EndSplineSet
PickledDataWithLists: "(dp1
S'com.schriftgestaltung.Glyphs.lastChange'
p2
S'2018-08-04 00:59:56 +0000'
p3
sS'com.fontlab.hintData'
p4
(dp5
S'vhints'
p6
(lp7
(dp8
S'position'
p9
I77
sS'width'
p10
I132
sa(dp11
g9
I152
sg10
I112
sa(dp12
g9
I152
sg10
I57
sasS'hhints'
p13
(lp14
(dp15
g9
I-320
sg10
I55
sa(dp16
g9
I242
sg10
I55
sa(dp17
g9
I805
sg10
I55
sass."
EndChar

StartChar: bracketleft
Encoding: 40 91 40
GlifName: bracketleft
Width: 340
VWidth: 340
Flags: W
VStem: 117 132
LayerCount: 2
Fore
SplineSet
87 -290 m 257
 87 -310 99 -320 118 -320 c 258
 118 -320 183 -320 219 -320 c 256
 232 -320 244 -308 244 -292 c 256
 244 -276 234 -265 219 -265 c 256
 190 -265 144 -265 144 -265 c 257
 144 805 l 257
 144 805 190 805 219 805 c 256
 234 805 244 816 244 832 c 256
 244 848 232 860 219 860 c 256
 183 860 118 860 118 860 c 258
 99 860 87 850 87 830 c 258
 87 -290 l 257
EndSplineSet
PickledDataWithLists: "(dp1
S'com.schriftgestaltung.Glyphs.lastChange'
p2
S'2018-08-04 00:59:56 +0000'
p3
sS'com.fontlab.hintData'
p4
(dp5
S'vhints'
p6
(lp7
(dp8
S'position'
p9
I117
sS'width'
p10
I132
sass."
EndChar

StartChar: bracketright
Encoding: 41 93 41
GlifName: bracketright
Width: 338
VWidth: 338
Flags: W
VStem: 102 132
LayerCount: 2
Fore
SplineSet
245 -290 m 257
 245 -310 233 -320 214 -320 c 258
 214 -320 149 -320 113 -320 c 256
 100 -320 88 -308 88 -292 c 256
 88 -276 98 -265 113 -265 c 256
 142 -265 188 -265 188 -265 c 257
 188 805 l 257
 188 805 142 805 113 805 c 256
 98 805 88 816 88 832 c 256
 88 848 100 860 113 860 c 256
 149 860 214 860 214 860 c 258
 233 860 245 850 245 830 c 258
 245 -290 l 257
EndSplineSet
PickledDataWithLists: "(dp1
S'com.schriftgestaltung.Glyphs.lastChange'
p2
S'2018-08-04 00:59:56 +0000'
p3
sS'com.fontlab.hintData'
p4
(dp5
S'vhints'
p6
(lp7
(dp8
S'position'
p9
I102
sS'width'
p10
I132
sass."
EndChar

StartChar: comma
Encoding: 43 44 43
GlifName: comma
Width: 213
VWidth: 213
Flags: W
HStem: 5 29
VStem: 71 58
LayerCount: 2
Fore
SplineSet
139 23 m 256
 139 -8 116 -61 81 -61 c 256
 78 -61 77 -60 77 -58 c 256
 77 -53 87 -39 87 -18 c 256
 87 -8 85 3 78 16 c 256
 76 20 74 27 74 32 c 256
 74 50 88 64 106 64 c 256
 127 64 139 46 139 23 c 256
EndSplineSet
PickledDataWithLists: "(dp1
S'com.schriftgestaltung.Glyphs.lastChange'
p2
S'2018-08-04 01:07:05 +0000'
p3
sS'com.fontlab.hintData'
p4
(dp5
S'vhints'
p6
(lp7
(dp8
S'position'
p9
I71
sS'width'
p10
I58
sasS'hhints'
p11
(lp12
(dp13
g9
I5
sg10
I29
sass."
EndChar

StartChar: dottedcircle
Encoding: 44 9676 44
GlifName: dottedcircle
Width: 544
VWidth: 544
Flags: W
HStem: 15 43<257 270> 30 43<182 195 334 347> 72 43<118.5 133.5 399 412> 138 44<77 90 442.5 455.5> 213 43<62.5 77 458.5 473> 287 44<81 94.5 446 459> 354 42<125 137 403.5 417.5> 396 43<189 202 341 354> 410 44<264 278>
VStem: 49 43<234 234> 62 42<160 160> 104 43<94 94> 168 43<52 52> 242 42<36 36> 319 43<52 52> 385 42<94 94> 428 44<160 160> 443 44<234 234>
LayerCount: 2
Fore
SplineSet
104 94 m 256
 103 79 110 72 126 72 c 256
 141 72 146 79 147 94 c 256
 148 109 142 115 126 115 c 256
 111 115 105 109 104 94 c 256
62 160 m 256
 61 145 68 138 83 138 c 256
 97 138 103 145 104 160 c 256
 105 175 99 182 84 182 c 256
 70 182 63 175 62 160 c 256
168 52 m 256
 167 37 173 30 188 30 c 256
 202 30 210 37 211 52 c 256
 212 67 204 73 189 73 c 256
 175 73 169 67 168 52 c 256
242 36 m 256
 241 21 248 15 263 15 c 256
 277 15 283 21 284 36 c 256
 285 51 279 58 264 58 c 256
 250 58 243 51 242 36 c 256
49 234 m 256
 49 219 55 213 70 213 c 256
 84 213 91 219 92 234 c 256
 93 249 86 256 70 256 c 256
 55 256 49 249 49 234 c 256
65 309 m 256
 64 294 72 287 88 287 c 256
 101 287 106 294 107 309 c 256
 108 324 103 331 88 331 c 256
 74 331 66 324 65 309 c 256
319 52 m 256
 318 37 325 30 340 30 c 256
 354 30 361 37 362 52 c 256
 363 67 356 73 341 73 c 256
 327 73 320 67 319 52 c 256
109 375 m 256
 108 361 115 354 130 354 c 256
 144 354 151 361 152 375 c 256
 153 389 147 396 132 396 c 256
 118 396 110 389 109 375 c 256
385 94 m 256
 384 79 390 72 405 72 c 256
 419 72 426 79 427 94 c 256
 428 109 421 115 406 115 c 256
 392 115 386 109 385 94 c 256
174 418 m 256
 173 403 180 396 195 396 c 256
 209 396 216 403 217 418 c 256
 218 433 211 439 196 439 c 256
 182 439 175 433 174 418 c 256
428 160 m 256
 427 145 432 138 448 138 c 256
 463 138 471 145 472 160 c 256
 473 175 466 182 450 182 c 256
 435 182 429 175 428 160 c 256
250 432 m 256
 249 417 256 410 271 410 c 256
 285 410 291 417 292 432 c 256
 293 447 286 454 271 454 c 256
 257 454 251 447 250 432 c 256
443 234 m 256
 443 219 451 213 466 213 c 256
 480 213 486 219 487 234 c 256
 488 249 482 256 466 256 c 256
 451 256 443 249 443 234 c 256
325 418 m 256
 324 403 332 396 347 396 c 256
 361 396 367 403 368 418 c 256
 369 433 363 439 348 439 c 256
 334 439 326 433 325 418 c 256
431 309 m 256
 430 294 436 287 452 287 c 256
 466 287 474 294 475 309 c 256
 476 324 469 331 453 331 c 256
 439 331 432 324 431 309 c 256
389 375 m 256
 388 361 394 354 410 354 c 256
 425 354 432 361 433 375 c 256
 434 389 427 396 411 396 c 256
 396 396 390 389 389 375 c 256
EndSplineSet
PickledDataWithLists: "(dp1
S'com.schriftgestaltung.Glyphs.lastChange'
p2
S'2018-08-04 01:07:05 +0000'
p3
sS'com.fontlab.hintData'
p4
(dp5
S'vhints'
p6
(lp7
(dp8
S'position'
p9
I49
sS'width'
p10
I43
sa(dp11
g9
I62
sg10
I42
sa(dp12
g9
I104
sg10
I43
sa(dp13
g9
I168
sg10
I43
sa(dp14
g9
I242
sg10
I42
sa(dp15
g9
I319
sg10
I43
sa(dp16
g9
I385
sg10
I42
sa(dp17
g9
I428
sg10
I44
sa(dp18
g9
I443
sg10
I44
sasS'hhints'
p19
(lp20
(dp21
g9
I15
sg10
I43
sa(dp22
g9
I30
sg10
I43
sa(dp23
g9
I72
sg10
I43
sa(dp24
g9
I138
sg10
I44
sa(dp25
g9
I213
sg10
I43
sa(dp26
g9
I287
sg10
I44
sa(dp27
g9
I354
sg10
I42
sa(dp28
g9
I396
sg10
I43
sa(dp29
g9
I410
sg10
I44
sass."
EndChar

StartChar: eight
Encoding: 45 56 45
GlifName: eight
Width: 481
VWidth: 481
Flags: W
HStem: -10 48<191 278 191 305> 606 48<204 271.5>
VStem: 51 373<184 184>
LayerCount: 2
Fore
SplineSet
238 323 m 257
 128 296 104 227 99 180 c 256
 91 100 145 38 237 38 c 256
 319 38 382 98 376 180 c 256
 372 231 344 298 238 323 c 257
237 606 m 256
 171 606 121 560 129 493 c 256
 135 441 180 390 238 381 c 257
 300 394 338 442 346 493 c 256
 356 562 306 606 237 606 c 256
237 654 m 256
 360 654 402 561 395 494 c 256
 390 450 374 394 294 354 c 257
 390 312 419 258 424 184 c 256
 430 95 373 -10 237 -10 c 256
 105 -10 42 87 51 184 c 256
 57 252 86 310 182 354 c 257
 108 385 85 447 80 492 c 256
 72 555 117 654 237 654 c 256
EndSplineSet
PickledDataWithLists: "(dp1
S'com.schriftgestaltung.Glyphs.lastChange'
p2
S'2018-08-04 01:07:05 +0000'
p3
sS'com.fontlab.hintData'
p4
(dp5
S'vhints'
p6
(lp7
(dp8
S'position'
p9
I51
sS'width'
p10
I373
sasS'hhints'
p11
(lp12
(dp13
g9
I-10
sg10
I48
sa(dp14
g9
I606
sg10
I48
sass."
EndChar

StartChar: equal
Encoding: 47 61 47
GlifName: equal
Width: 592
VWidth: 592
Flags: W
VStem: 158 282<152 152 152 212 152 322 152 382>
LayerCount: 2
Fore
SplineSet
158 212 m 258
 440 212 l 258
 457 212 470 198 470 182 c 256
 470 166 456 152 440 152 c 258
 158 152 l 258
 142 152 128 166 128 182 c 256
 128 198 141 212 158 212 c 258
158 382 m 258
 440 382 l 258
 457 382 470 368 470 352 c 256
 470 336 456 322 440 322 c 258
 158 322 l 258
 142 322 128 336 128 352 c 256
 128 368 141 382 158 382 c 258
EndSplineSet
PickledDataWithLists: "(dp1
S'com.schriftgestaltung.Glyphs.lastChange'
p2
S'2018-08-04 00:59:56 +0000'
p3
sS'com.fontlab.hintData'
p4
(dp5
S'vhints'
p6
(lp7
(dp8
S'position'
p9
I158
sS'width'
p10
I282
sass."
EndChar

StartChar: exclam
Encoding: 48 33 48
GlifName: exclam
Width: 295
VWidth: 295
Flags: W
HStem: -1 63 710 46
VStem: 105 63 116 85
LayerCount: 2
Fore
SplineSet
117 706 m 258
 117 186 l 258
 117 158 126 140 147 140 c 256
 169 140 177 159 177 186 c 258
 177 706 l 258
 177 722 168 740 147 740 c 256
 126 740 117 722 117 706 c 258
EndSplineSet
Refer: 60 46 N 1 0 0 1 39 0 2
PickledDataWithLists: "(dp1
S'com.schriftgestaltung.Glyphs.lastChange'
p2
S'2018-08-04 00:59:56 +0000'
p3
sS'com.fontlab.hintData'
p4
(dp5
S'vhints'
p6
(lp7
(dp8
S'position'
p9
I105
sS'width'
p10
I63
sa(dp11
g9
I116
sg10
I85
sasS'hhints'
p12
(lp13
(dp14
g9
I-1
sg10
I63
sa(dp15
g9
I710
sg10
I46
sass."
EndChar

StartChar: five
Encoding: 49 53 49
GlifName: five
Width: 457
VWidth: 457
Flags: W
HStem: -216 49<195 254.5 195 263.5> 347 48<205 402 356.5 402>
VStem: 350 51<4.29497e+009 4.29497e+009>
LayerCount: 2
Fore
SplineSet
147 104 m 256
 296 133 353 64 350 -40 c 256
 348 -111 291 -167 218 -167 c 256
 172 -167 119 -152 83 -108 c 256
 72 -94 56 -90 43 -101 c 256
 33 -109 33 -127 41 -136 c 256
 95 -196 147 -216 218 -216 c 256
 309 -216 398 -139 401 -40 c 256
 407 158 235 169 140 151 c 257
 205 347 l 257
 205 347 311 347 402 347 c 256
 419 347 427 359 427 370 c 256
 427 381 419 395 402 395 c 258
 204 395 l 258
 178 395 165 385 156 356 c 256
 138 298 117 232 92 158 c 256
 76 109 109 96 147 104 c 256
EndSplineSet
PickledDataWithLists: "(dp1
S'com.schriftgestaltung.Glyphs.lastChange'
p2
S'2018-08-04 01:07:05 +0000'
p3
sS'com.fontlab.hintData'
p4
(dp5
S'vhints'
p6
(lp7
(dp8
S'position'
p9
I350
sS'width'
p10
I51
sasS'hhints'
p11
(lp12
(dp13
g9
I-216
sg10
I49
sa(dp14
g9
I347
sg10
I48
sass."
EndChar

StartChar: four
Encoding: 50 52 50
GlifName: four
Width: 470
VWidth: 470
Flags: W
HStem: 0 48<89 117.5 89 295 89 295 343 417>
VStem: 295 48<-193 -151 -151 0 48 333 333 333>
LayerCount: 2
Fore
SplineSet
343 341 m 256
 344 225 343 48 343 48 c 257
 343 48 401 48 417 48 c 256
 430 48 437 35 437 22 c 256
 437 11 429 0 417 0 c 256
 403 0 343 0 343 0 c 257
 343 0 343 -109 343 -193 c 256
 343 -208 330 -217 318 -217 c 256
 306 -217 295 -208 295 -193 c 256
 295 -109 295 0 295 0 c 257
 208 0 148 0 87 0 c 256
 34 0 23 39 44 68 c 256
 81 120 161 235 254 362 c 256
 290 411 342 405 343 341 c 256
295 48 m 257
 295 333 l 257
 89 48 l 257
 295 48 l 257
EndSplineSet
PickledDataWithLists: "(dp1
S'com.schriftgestaltung.Glyphs.lastChange'
p2
S'2018-08-04 01:07:05 +0000'
p3
sS'com.fontlab.hintData'
p4
(dp5
S'vhints'
p6
(lp7
(dp8
S'position'
p9
I295
sS'width'
p10
I48
sasS'hhints'
p11
(lp12
(dp13
g9
I0
sg10
I48
sass."
EndChar

StartChar: greater
Encoding: 51 62 51
GlifName: greater
Width: 598
VWidth: 598
Flags: W
HStem: 108 336<139 139>
VStem: 56 453
LayerCount: 2
Fore
SplineSet
139 108 m 258
 482 242 l 258
 514 255 514 298 481 311 c 258
 481 311 258 398 139 444 c 256
 126 449 106 446 100 430 c 256
 93 413 105 396 118 391 c 256
 239 344 413 276 413 276 c 257
 118 161 l 258
 101 154 93 139 100 122 c 256
 106 106 122 101 139 108 c 258
EndSplineSet
PickledDataWithLists: "(dp1
S'com.schriftgestaltung.Glyphs.lastChange'
p2
S'2018-08-04 01:07:05 +0000'
p3
sS'com.fontlab.hintData'
p4
(dp5
S'vhints'
p6
(lp7
(dp8
S'position'
p9
I56
sS'width'
p10
I453
sasS'hhints'
p11
(lp12
(dp13
g9
I108
sg10
I336
sass."
EndChar

StartChar: hyphen
Encoding: 52 45 52
GlifName: hyphen
Width: 592
VWidth: 592
Flags: W
HStem: 248 60<150 440 158 440>
VStem: 158 282<248 248 308 308>
LayerCount: 2
Fore
SplineSet
158 308 m 258
 158 308 335 308 440 308 c 256
 457 308 470 294 470 278 c 256
 470 262 456 248 440 248 c 256
 332 248 158 248 158 248 c 258
 142 248 128 262 128 278 c 256
 128 294 141 308 158 308 c 258
EndSplineSet
PickledDataWithLists: "(dp1
S'com.schriftgestaltung.Glyphs.lastChange'
p2
S'2018-08-04 00:59:56 +0000'
p3
sS'com.fontlab.hintData'
p4
(dp5
S'vhints'
p6
(lp7
(dp8
S'position'
p9
I158
sS'width'
p10
I282
sasS'hhints'
p11
(lp12
(dp13
g9
I248
sg10
I60
sass."
EndChar

StartChar: less
Encoding: 53 60 53
GlifName: less
Width: 599
VWidth: 599
Flags: W
LayerCount: 2
Fore
SplineSet
449 108 m 258
 106 242 l 258
 74 255 74 298 107 311 c 258
 107 311 330 398 449 444 c 256
 462 449 482 446 488 430 c 256
 495 413 483 396 470 391 c 256
 349 344 175 276 175 276 c 257
 470 161 l 258
 487 154 495 139 488 122 c 256
 482 106 466 101 449 108 c 258
EndSplineSet
PickledDataWithLists: "(dp1
S'com.schriftgestaltung.Glyphs.lastChange'
p2
S'2018-08-04 01:07:05 +0000'
p3
s."
EndChar

StartChar: nine
Encoding: 54 57 54
GlifName: nine
Width: 493
VWidth: 493
Flags: W
HStem: -212 43 91 48<210 272> 389 48<206.5 287.5>
VStem: 69 49 378 54<228.5 291 138.5 296.5>
LayerCount: 2
Fore
SplineSet
69 263 m 256
 67 362 136 437 249 437 c 256
 366 437 432 350 432 232 c 256
 432 45 301 -155 106 -212 c 256
 91 -216 77 -213 73 -201 c 256
 69 -190 72 -174 89 -169 c 256
 241 -123 344 8 373 142 c 257
 351 110 297 91 247 91 c 256
 154 91 71 149 69 263 c 256
378 261 m 256
 378 332 326 389 249 389 c 256
 164 389 118 337 118 261 c 256
 118 196 171 139 249 139 c 256
 330 139 378 196 378 261 c 256
EndSplineSet
PickledDataWithLists: "(dp1
S'com.schriftgestaltung.Glyphs.lastChange'
p2
S'2018-08-04 01:07:05 +0000'
p3
sS'com.fontlab.hintData'
p4
(dp5
S'vhints'
p6
(lp7
(dp8
S'position'
p9
I69
sS'width'
p10
I49
sa(dp11
g9
I378
sg10
I54
sasS'hhints'
p12
(lp13
(dp14
g9
I-212
sg10
I43
sa(dp15
g9
I91
sg10
I48
sa(dp16
g9
I389
sg10
I48
sass."
EndChar

StartChar: numbersign
Encoding: 56 35 56
GlifName: numbersign
Width: 720
VWidth: 720
Flags: W
HStem: 127 55 359 55
LayerCount: 2
Fore
SplineSet
474 356 m 257
 294 356 l 257
 275 297 258 243 240 185 c 257
 421 185 l 257
 439 243 456 298 474 356 c 257
534 356 m 257
 515 297 498 243 480 185 c 257
 556 185 l 258
 573 185 586 171 586 155 c 256
 586 139 572 125 556 125 c 258
 461 125 l 257
 449 87 437 47 423 3 c 256
 418 -13 406 -20 394 -20 c 256
 380 -20 367 -9 367 8 c 256
 367 12 368 16 369 20 c 256
 381 58 392 92 402 125 c 257
 221 125 l 257
 209 87 197 47 183 3 c 256
 178 -13 166 -20 154 -20 c 256
 140 -20 127 -9 127 8 c 256
 127 12 128 16 129 20 c 256
 141 58 152 92 162 125 c 257
 94 125 l 258
 78 125 64 139 64 155 c 256
 64 171 77 185 94 185 c 258
 181 185 l 257
 199 243 216 298 234 356 c 257
 158 356 l 258
 142 356 128 370 128 386 c 256
 128 402 141 416 158 416 c 258
 253 416 l 257
 265 453 277 492 291 536 c 256
 296 552 308 559 320 559 c 256
 334 559 347 549 347 532 c 256
 347 528 347 524 345 519 c 256
 334 482 323 448 313 416 c 257
 493 416 l 257
 505 453 517 492 531 536 c 256
 536 552 548 559 560 559 c 256
 574 559 587 549 587 532 c 256
 587 528 587 524 585 519 c 256
 574 482 563 448 553 416 c 257
 620 416 l 258
 637 416 650 402 650 386 c 256
 650 370 636 356 620 356 c 258
 534 356 l 257
EndSplineSet
PickledDataWithLists: "(dp1
S'com.schriftgestaltung.Glyphs.lastChange'
p2
S'2018-08-04 01:07:05 +0000'
p3
sS'com.fontlab.hintData'
p4
(dp5
S'hhints'
p6
(lp7
(dp8
S'position'
p9
I127
sS'width'
p10
I55
sa(dp11
g9
I359
sg10
I55
sass."
EndChar

StartChar: one
Encoding: 57 49 57
GlifName: one
Width: 369
VWidth: 369
Flags: W
LayerCount: 2
Fore
SplineSet
183 428 m 256
 158 411 148 405 117 383 c 256
 103 373 101 356 109 345 c 256
 116 336 129 335 140 342 c 256
 168 360 172 363 190 375 c 257
 190 0 l 257
 213 0 211 0 238 0 c 257
 238 392 l 258
 238 436 216 450 183 428 c 256
EndSplineSet
PickledDataWithLists: "(dp1
S'com.schriftgestaltung.Glyphs.lastChange'
p2
S'2018-08-04 01:07:05 +0000'
p3
s."
EndChar

StartChar: parenleft
Encoding: 58 40 58
GlifName: parenleft
Width: 396
VWidth: 396
Flags: W
VStem: 51 61
LayerCount: 2
Fore
SplineSet
71 274 m 256
 71 518 124 700 277 864 c 256
 288 876 309 878 321 867 c 256
 332 857 331 833 321 823 c 256
 172 667 132 500 132 274 c 256
 132 48 172 -119 321 -275 c 256
 331 -285 332 -309 321 -319 c 256
 309 -330 288 -328 277 -316 c 256
 124 -152 71 30 71 274 c 256
EndSplineSet
PickledDataWithLists: "(dp1
S'com.schriftgestaltung.Glyphs.lastChange'
p2
S'2018-08-04 01:07:05 +0000'
p3
sS'com.fontlab.hintData'
p4
(dp5
S'vhints'
p6
(lp7
(dp8
S'position'
p9
I51
sS'width'
p10
I61
sass."
EndChar

StartChar: parenright
Encoding: 59 41 59
GlifName: parenright
Width: 402
VWidth: 402
Flags: W
VStem: 222 61
LayerCount: 2
Fore
SplineSet
313 274 m 256
 313 518 260 700 107 864 c 256
 96 876 75 878 63 867 c 256
 52 857 53 833 63 823 c 256
 212 667 252 500 252 274 c 256
 252 48 212 -119 63 -275 c 256
 53 -285 52 -309 63 -319 c 256
 75 -330 96 -328 107 -316 c 256
 260 -152 313 30 313 274 c 256
EndSplineSet
PickledDataWithLists: "(dp1
S'com.schriftgestaltung.Glyphs.lastChange'
p2
S'2018-08-04 01:07:05 +0000'
p3
sS'com.fontlab.hintData'
p4
(dp5
S'vhints'
p6
(lp7
(dp8
S'position'
p9
I222
sS'width'
p10
I61
sass."
EndChar

StartChar: period
Encoding: 60 46 60
GlifName: period
Width: 216
VWidth: 216
Flags: W
HStem: -3 69
VStem: 74 69
LayerCount: 2
Fore
SplineSet
74 33 m 256
 74 52 89 68 108 68 c 256
 127 68 142 52 142 33 c 256
 142 14 127 -1 108 -1 c 256
 89 -1 74 14 74 33 c 256
EndSplineSet
PickledDataWithLists: "(dp1
S'com.schriftgestaltung.Glyphs.lastChange'
p2
S'2018-08-04 00:59:56 +0000'
p3
sS'com.fontlab.hintData'
p4
(dp5
S'vhints'
p6
(lp7
(dp8
S'position'
p9
I74
sS'width'
p10
I69
sasS'hhints'
p11
(lp12
(dp13
g9
I-3
sg10
I69
sass."
EndChar

StartChar: plus
Encoding: 61 43 61
GlifName: plus
Width: 607
VWidth: 607
Flags: W
HStem: 140 282
VStem: 48 282
LayerCount: 2
Fore
SplineSet
329 308 m 257
 440 308 l 258
 457 308 470 294 470 278 c 256
 470 262 456 248 440 248 c 258
 329 248 l 257
 329 127 l 258
 329 111 315 97 299 97 c 256
 283 97 269 110 269 127 c 258
 269 248 l 257
 158 248 l 258
 142 248 128 262 128 278 c 256
 128 294 141 308 158 308 c 258
 269 308 l 257
 269 429 l 258
 269 446 283 459 299 459 c 256
 315 459 329 445 329 429 c 258
 329 308 l 257
EndSplineSet
PickledDataWithLists: "(dp1
S'com.schriftgestaltung.Glyphs.lastChange'
p2
S'2018-08-04 00:59:56 +0000'
p3
sS'com.fontlab.hintData'
p4
(dp5
S'vhints'
p6
(lp7
(dp8
S'position'
p9
I48
sS'width'
p10
I282
sasS'hhints'
p11
(lp12
(dp13
g9
I140
sg10
I282
sass."
EndChar

StartChar: question
Encoding: 62 63 62
GlifName: question
Width: 613
VWidth: 613
Flags: W
HStem: 0 63 490 59
VStem: 147 63
LayerCount: 2
Fore
SplineSet
114 542 m 256
 89 542 82 569 88 590 c 256
 112 671 178 748 308 748 c 256
 427 748 512 664 513 556 c 256
 514 368 298 329 298 183 c 256
 298 156 287 142 268 142 c 256
 248 142 236 157 236 183 c 256
 237 356 452 398 450 548 c 256
 449 622 393 689 309 689 c 256
 212 689 167 636 146 568 c 256
 141 553 128 542 114 542 c 256
EndSplineSet
Refer: 60 46 N 1 0 0 1 163 -1 2
PickledDataWithLists: "(dp1
S'com.schriftgestaltung.Glyphs.lastChange'
p2
S'2018-08-04 01:07:05 +0000'
p3
sS'com.fontlab.hintData'
p4
(dp5
S'vhints'
p6
(lp7
(dp8
S'position'
p9
I147
sS'width'
p10
I63
sasS'hhints'
p11
(lp12
(dp13
g9
I0
sg10
I63
sa(dp14
g9
I490
sg10
I59
sass."
EndChar

StartChar: quotesingle
Encoding: 64 39 64
GlifName: quotesingle
Width: 117
VWidth: 117
Flags: W
HStem: 785 29
VStem: 22 58
LayerCount: 2
Fore
SplineSet
90 810 m 256
 90 779 75 757 58 739 c 257
 42 758 26 779 26 810 c 256
 26 828 40 844 58 844 c 256
 76 844 90 828 90 810 c 256
EndSplineSet
PickledDataWithLists: "(dp1
S'com.schriftgestaltung.Glyphs.lastChange'
p2
S'2018-08-04 01:07:05 +0000'
p3
sS'com.fontlab.hintData'
p4
(dp5
S'vhints'
p6
(lp7
(dp8
S'position'
p9
I22
sS'width'
p10
I58
sasS'hhints'
p11
(lp12
(dp13
g9
I785
sg10
I29
sass."
EndChar

StartChar: seven
Encoding: 66 55 66
GlifName: seven
Width: 505
VWidth: 505
Flags: W
HStem: 346 50<77 116 78 391>
LayerCount: 2
Fore
SplineSet
119 -193 m 256
 107 -213 93 -216 80 -209 c 256
 68 -202 68 -186 75 -174 c 256
 141 -64 324 237 391 346 c 257
 391 346 154 346 78 346 c 256
 66 346 53 355 53 370 c 256
 53 385 65 396 77 396 c 258
 395 396 l 258
 436 396 454 360 432 324 c 256
 375 229 175 -100 119 -193 c 256
EndSplineSet
PickledDataWithLists: "(dp1
S'com.schriftgestaltung.Glyphs.lastChange'
p2
S'2018-08-04 01:07:05 +0000'
p3
sS'com.fontlab.hintData'
p4
(dp5
S'hhints'
p6
(lp7
(dp8
S'position'
p9
I346
sS'width'
p10
I50
sass."
EndChar

StartChar: sinA
Encoding: 67 3461 67
GlifName: sinA_
Width: 908
VWidth: 908
Flags: W
HStem: -51 50<301.5 427 301.5 438.5> 431 52<225 281.5 221 309.5> 443 43 473 55<485.5 512.5>
VStem: 548 6 553 44 554 56
LayerCount: 2
Fore
SplineSet
486 382 m 256
 386 382 363 431 256 431 c 256
 194 431 112 381 112 255 c 256
 112 236 114 214 118 191 c 256
 138 85 228 -1 375 -1 c 256
 479 -1 542 52 579 95 c 257
 579 160 580 214 580 259 c 256
 580 323 579 372 578 416 c 257
 562 399 534 382 486 382 c 256
597 540 m 256
 619 540 627 520 627 494 c 257
 635 488 643 486 653 486 c 256
 694 486 714 510 751 510 c 256
 787 510 831 482 831 419 c 256
 831 341 778 278 706 278 c 256
 671 278 645 290 624 305 c 257
 624 211 l 258
 624 32 640 -110 640 -289 c 256
 640 -303 631 -324 611 -324 c 256
 596 -324 584 -305 584 -290 c 256
 581 -168 582 -94 581 27 c 257
 557 -2 495 -51 382 -51 c 256
 200 -51 99 43 69 178 c 256
 62 207 59 235 59 260 c 256
 59 415 174 483 268 483 c 256
 295 483 336 471 360 456 c 257
 352 467 346 490 346 502 c 256
 346 533 369 549 400 549 c 256
 434 549 458 528 505 528 c 256
 523 528 532 514 532 501 c 256
 532 487 523 473 502 473 c 256
 469 473 444 495 419 495 c 256
 407 495 402 490 402 483 c 256
 402 472 414 457 421 451 c 256
 439 438 466 430 493 430 c 256
 520 430 547 438 564 461 c 256
 583 487 561 540 597 540 c 256
737 462 m 256
 705 462 689 442 657 442 c 256
 643 442 633 446 626 450 c 257
 625 419 625 387 625 355 c 257
 640 340 665 324 700 324 c 256
 750 324 780 362 780 412 c 256
 780 451 759 462 737 462 c 256
EndSplineSet
PickledDataWithLists: "(dp1
S'com.schriftgestaltung.Glyphs.lastChange'
p2
S'2018-08-04 01:07:05 +0000'
p3
sS'com.fontlab.hintData'
p4
(dp5
S'vhints'
p6
(lp7
(dp8
S'position'
p9
I548
sS'width'
p10
I6
sa(dp11
g9
I553
sg10
I44
sa(dp12
g9
I554
sg10
I56
sasS'hhints'
p13
(lp14
(dp15
g9
I-51
sg10
I50
sa(dp16
g9
I431
sg10
I52
sa(dp17
g9
I443
sg10
I43
sa(dp18
g9
I473
sg10
I55
sass."
EndChar

StartChar: sinAa
Encoding: 68 3462 68
GlifName: sinA_a
Width: 1293
VWidth: 1293
Flags: W
LayerCount: 2
Fore
SplineSet
1041 23 m 256
 1151 23 1186 138 1186 237 c 256
 1186 328 1160 420 1082 447 c 256
 1068 452 1055 454 1041 454 c 256
 999 454 957 434 932 403 c 256
 921 389 911 385 904 385 c 256
 900 385 895 386 893 388 c 256
 887 392 884 398 884 406 c 256
 884 413 886 421 892 430 c 256
 922 476 977 501 1037 501 c 256
 1054 501 1072 499 1089 495 c 256
 1183 472 1233 385 1233 237 c 256
 1233 90 1183 5 1089 -18 c 256
 1072 -22 1054 -24 1037 -24 c 256
 977 -24 922 1 892 47 c 256
 886 56 884 64 884 71 c 256
 884 82 892 92 904 92 c 256
 911 92 921 88 932 74 c 256
 957 43 999 23 1041 23 c 256
EndSplineSet
Refer: 67 3461 N 1 0 0 1 0 0 2
PickledDataWithLists: "(dp1
S'com.schriftgestaltung.Glyphs.lastChange'
p2
S'2018-08-04 01:07:05 +0000'
p3
s."
EndChar

StartChar: sinAnusvara
Encoding: 72 -1 72
GlifName: sinA_nusvara
Width: 406
VWidth: 0
Flags: W
LayerCount: 2
Fore
SplineSet
346 176 m 256
 346 94 280 28 198 28 c 256
 118 28 52 94 52 176 c 256
 52 256 118 322 198 322 c 256
 280 322 346 256 346 176 c 256
97 176 m 256
 97 117 143 73 198 73 c 256
 255 73 301 117 301 176 c 256
 301 231 255 278 198 278 c 256
 143 278 97 231 97 176 c 256
EndSplineSet
PickledDataWithLists: "(dp1
S'com.schriftgestaltung.Glyphs.lastChange'
p2
S'2018-08-04 01:07:06 +0000'
p3
s."
EndChar

StartChar: sinAu
Encoding: 73 3478 73
GlifName: sinA_u
Width: 1221
VWidth: 1221
Flags: W
HStem: 0 132 573 128 626 120 800 120 1088 114 1320 128 2055 135
VStem: 81 132 519 132 1034 116 1926 135 2203 121 2272 132 2643 129 2834 132
LayerCount: 2
Fore
SplineSet
384 376 m 1281
EndSplineSet
Refer: 532 3476 N 1 0 0 1 0 0 2
Refer: 397 3551 N 1 0 0 1 731 0 2
PickledDataWithLists: "(dp1
S'com.schriftgestaltung.Glyphs.lastChange'
p2
S'2018-08-04 00:59:56 +0000'
p3
sS'com.fontlab.hintData'
p4
(dp5
S'vhints'
p6
(lp7
(dp8
S'position'
p9
I81
sS'width'
p10
I132
sa(dp11
g9
I519
sg10
I132
sa(dp12
g9
I1034
sg10
I116
sa(dp13
g9
I1926
sg10
I135
sa(dp14
g9
I2203
sg10
I121
sa(dp15
g9
I2272
sg10
I132
sa(dp16
g9
I2643
sg10
I129
sa(dp17
g9
I2834
sg10
I132
sasS'hhints'
p18
(lp19
(dp20
g9
I0
sg10
I132
sa(dp21
g9
I573
sg10
I128
sa(dp22
g9
I626
sg10
I120
sa(dp23
g9
I800
sg10
I120
sa(dp24
g9
I1088
sg10
I114
sa(dp25
g9
I1320
sg10
I128
sa(dp26
g9
I2055
sg10
I135
sass."
EndChar

StartChar: sinBI
Encoding: 75 -1 75
GlifName: sinB_I_
Width: 769
VWidth: 769
Flags: W
HStem: 0 49<164 202.5 164 230.5> 189 53<168.5 202.5> 472 48 584 48 928 48
VStem: 42 42<218.5 273 218.5 305.5> 253 45<100 138.5> 427 48 667 47
LayerCount: 2
Fore
SplineSet
723 240 m 256
 701 627 149 483 163 756 c 256
 171 897 301 932 410 928 c 256
 554 923 640 841 621 738 c 256
 609 674 546 631 466 632 c 256
 424 633 376 657 360 677 c 256
 354 685 332 692 322 683 c 256
 306 669 317 647 338 630 c 256
 356 615 416 584 468 584 c 256
 544 585 652 633 668 738 c 256
 686 856 585 971 413 976 c 256
 237 981 110 891 115 750 c 256
 125 436 660 561 676 239 c 256
 682 108 602 48 507 48 c 256
 416 48 400 103 400 133 c 256
 400 209 463 214 463 326 c 256
 463 425 372 496 269 496 c 256
 139 496 42 385 42 226 c 256
 42 152 51 0 193 0 c 256
 268 0 298 57 298 119 c 256
 298 190 248 242 193 242 c 256
 144 242 100 203 88 182 c 257
 86 195 84 210 84 227 c 256
 84 319 129 449 269 449 c 256
 346 449 416 400 416 326 c 256
 416 231 345 227 345 133 c 256
 345 73 392 0 507 0 c 256
 621 0 732 79 723 240 c 256
114 119 m 256
 114 158 145 189 183 189 c 256
 222 189 253 158 253 119 c 256
 253 81 222 49 183 49 c 256
 145 49 114 81 114 119 c 256
EndSplineSet
PickledDataWithLists: "(dp1
S'com.schriftgestaltung.Glyphs.lastChange'
p2
S'2018-08-04 01:07:06 +0000'
p3
sS'com.fontlab.hintData'
p4
(dp5
S'vhints'
p6
(lp7
(dp8
S'position'
p9
I42
sS'width'
p10
I42
sa(dp11
g9
I253
sg10
I45
sa(dp12
g9
I427
sg10
I48
sa(dp13
g9
I667
sg10
I47
sasS'hhints'
p14
(lp15
(dp16
g9
I0
sg10
I49
sa(dp17
g9
I189
sg10
I53
sa(dp18
g9
I472
sg10
I48
sa(dp19
g9
I584
sg10
I48
sa(dp20
g9
I928
sg10
I48
sass."
Ligature2: "sin_abvs subtable" sinBa sinMatraI
EndChar

StartChar: sinBIi
Encoding: 76 -1 76
GlifName: sinB_I_i
Width: 769
VWidth: 769
Flags: W
HStem: 0 49<164 202.5 164 230.5> 189 53<168.5 202.5> 472 48<216.5 326.5> 789 43<459 492> 924 48
VStem: 42 42<218.5 278 218.5 312.5> 121 48 253 45<100 138.5> 427 48<350.5 408> 535 47<723.5 749.5> 612 47<749 823> 671 49<251 251>
LayerCount: 2
Fore
SplineSet
671 251 m 256
 673 630 130 501 121 772 c 256
 116 900 237 976 403 972 c 256
 575 968 659 878 659 784 c 256
 659 669 572 629 506 624 c 256
 433 618 369 672 370 728 c 256
 372 810 434 832 473 832 c 256
 551 832 582 789 582 733 c 256
 582 714 570 684 561 670 c 256
 548 649 538 642 525 640 c 256
 501 636 442 677 467 674 c 256
 503 669 535 697 535 729 c 256
 535 770 509 789 475 789 c 256
 443 789 414 762 416 730 c 256
 418 700 447 665 504 672 c 256
 570 680 612 714 612 784 c 256
 612 862 544 919 400 924 c 256
 298 927 166 900 169 778 c 256
 174 561 705 663 720 251 c 256
 724 122 626 -6 507 0 c 256
 354 8 290 155 290 284 c 257
 405 271 427 329 427 372 c 256
 427 444 366 472 287 472 c 256
 134 472 84 329 84 227 c 256
 84 210 86 195 88 182 c 257
 100 203 144 242 193 242 c 256
 248 242 298 190 298 119 c 256
 298 57 268 0 193 0 c 256
 51 0 42 152 42 226 c 256
 42 399 146 520 287 520 c 256
 392 520 475 470 475 372 c 256
 475 294 420 229 342 238 c 257
 346 183 381 48 507 48 c 256
 599 48 670 125 671 251 c 256
114 119 m 256
 114 81 145 49 183 49 c 256
 222 49 253 81 253 119 c 256
 253 158 222 189 183 189 c 256
 145 189 114 158 114 119 c 256
EndSplineSet
PickledDataWithLists: "(dp1
S'com.schriftgestaltung.Glyphs.lastChange'
p2
S'2018-08-04 01:07:06 +0000'
p3
sS'com.fontlab.hintData'
p4
(dp5
S'vhints'
p6
(lp7
(dp8
S'position'
p9
I42
sS'width'
p10
I42
sa(dp11
g9
I121
sg10
I48
sa(dp12
g9
I253
sg10
I45
sa(dp13
g9
I427
sg10
I48
sa(dp14
g9
I535
sg10
I47
sa(dp15
g9
I612
sg10
I47
sa(dp16
g9
I671
sg10
I49
sasS'hhints'
p17
(lp18
(dp19
g9
I0
sg10
I49
sa(dp20
g9
I189
sg10
I53
sa(dp21
g9
I472
sg10
I48
sa(dp22
g9
I789
sg10
I43
sa(dp23
g9
I924
sg10
I48
sass."
Ligature2: "sin_abvs subtable" sinBa sinMatraIi
EndChar

StartChar: sinBRa
Encoding: 80 -1 80
GlifName: sinB_R_a
Width: 816
VWidth: 816
Flags: W
HStem: 0 137 525 144 1247 132 2068 135
VStem: 117 119 705 123 956 156 1154 132 1926 135
LayerCount: 2
Fore
SplineSet
680 -174 m 256
 692 -113 693 -64 689 -25 c 256
 687 -3 676 4 660 0 c 256
 647 -3 642 -17 644 -37 c 256
 647 -64 650 -112 634 -176 c 256
 602 -306 479 -386 342 -386 c 256
 326 -386 308 -386 289 -383 c 256
 270 -380 258 -384 255 -398 c 256
 252 -411 257 -425 278 -430 c 256
 295 -434 321 -434 339 -434 c 256
 504 -432 649 -332 680 -174 c 256
EndSplineSet
Refer: 85 3510 N 1 0 0 1 0 0 2
PickledDataWithLists: "(dp1
S'com.schriftgestaltung.Glyphs.lastChange'
p2
S'2018-08-04 01:07:06 +0000'
p3
sS'com.fontlab.hintData'
p4
(dp5
S'vhints'
p6
(lp7
(dp8
S'position'
p9
I117
sS'width'
p10
I119
sa(dp11
g9
I705
sg10
I123
sa(dp12
g9
I956
sg10
I156
sa(dp13
g9
I1154
sg10
I132
sa(dp14
g9
I1926
sg10
I135
sasS'hhints'
p15
(lp16
(dp17
g9
I0
sg10
I137
sa(dp18
g9
I525
sg10
I144
sa(dp19
g9
I1247
sg10
I132
sa(dp20
g9
I2068
sg10
I135
sass."
Ligature2: "sin_rakar subtable" sinBa sinVirama zerowidthjoiner sinRa
EndChar

StartChar: sinBU
Encoding: 81 -1 81
GlifName: sinB_U_
Width: 816
VWidth: 816
Flags: W
HStem: -432 48<341 621> 0 137 525 144 1247 132 2068 135
VStem: 117 119 645 48 705 123 956 156 1154 132 1926 135
LayerCount: 2
Fore
SplineSet
652 -432 m 258
 675 -432 692 -420 692 -397 c 258
 692 110 l 257
 645 110 l 257
 645 -353 l 258
 645 -374 640 -384 621 -384 c 258
 341 -384 l 258
 252 -384 210 -348 201 -274 c 256
 192 -196 212 -127 250 -46 c 256
 257 -30 245 -11 232 -11 c 256
 223 -11 213 -16 208 -26 c 256
 167 -106 145 -195 153 -274 c 256
 163 -366 221 -432 341 -432 c 258
 652 -432 l 258
EndSplineSet
Refer: 85 3510 N 1 0 0 1 0 0 2
PickledDataWithLists: "(dp1
S'com.schriftgestaltung.Glyphs.lastChange'
p2
S'2018-08-04 01:07:06 +0000'
p3
sS'com.fontlab.hintData'
p4
(dp5
S'vhints'
p6
(lp7
(dp8
S'position'
p9
I117
sS'width'
p10
I119
sa(dp11
g9
I645
sg10
I48
sa(dp12
g9
I705
sg10
I123
sa(dp13
g9
I956
sg10
I156
sa(dp14
g9
I1154
sg10
I132
sa(dp15
g9
I1926
sg10
I135
sasS'hhints'
p16
(lp17
(dp18
g9
I-432
sg10
I48
sa(dp19
g9
I0
sg10
I137
sa(dp20
g9
I525
sg10
I144
sa(dp21
g9
I1247
sg10
I132
sa(dp22
g9
I2068
sg10
I135
sass."
Ligature2: "sin_blws subtable" sinBa sinMatraU
EndChar

StartChar: sinBU.reph
Encoding: 82 -1 82
GlifName: sinB_U_.reph
Width: 754
VWidth: 0
Flags: W
LayerCount: 2
Fore
SplineSet
170 -64 m 256
 183 -64 190 -73 190 -86 c 256
 190 -90 189 -95 187 -99 c 256
 163 -152 147 -197 147 -246 c 256
 147 -339 190 -384 289 -384 c 258
 609 -384 l 258
 627 -384 633 -374 633 -353 c 258
 633 115 l 257
 681 115 l 257
 681 -397 l 258
 681 -419 664 -432 640 -432 c 258
 289 -432 l 258
 154 -432 101 -348 101 -248 c 256
 101 -193 114 -131 145 -79 c 256
 151 -68 161 -64 170 -64 c 256
EndSplineSet
Refer: 86 -1 N 1 0 0 1 0 0 2
PickledDataWithLists: "(dp1
S'com.schriftgestaltung.Glyphs.lastChange'
p2
S'2018-08-04 01:07:06 +0000'
p3
s."
EndChar

StartChar: sinBUu.reph
Encoding: 84 -1 84
GlifName: sinB_U_u.reph
Width: 754
VWidth: 0
Flags: W
LayerCount: 2
Fore
SplineSet
143 -243 m 256
 143 -335 200 -382 281 -382 c 256
 345 -382 403 -351 411 -278 c 256
 413 -261 413 -234 413 -214 c 256
 413 -200 424 -189 438 -189 c 256
 451 -189 461 -200 481 -220 c 256
 514 -253 585 -320 630 -362 c 257
 630 105 l 257
 678 105 l 257
 678 -399 l 258
 678 -423 665 -432 647 -432 c 256
 635 -432 624 -425 607 -409 c 256
 550 -356 490 -299 457 -268 c 257
 455 -287 451 -308 448 -321 c 256
 436 -373 378 -430 281 -430 c 256
 177 -430 96 -365 96 -242 c 256
 96 -183 115 -124 141 -72 c 256
 147 -61 156 -56 165 -56 c 256
 178 -56 186 -67 186 -79 c 256
 186 -83 185 -88 183 -93 c 256
 158 -142 143 -195 143 -243 c 256
EndSplineSet
Refer: 86 -1 N 1 0 0 1 0 0 2
PickledDataWithLists: "(dp1
S'com.schriftgestaltung.Glyphs.lastChange'
p2
S'2018-08-04 01:07:06 +0000'
p3
s."
EndChar

StartChar: sinBa
Encoding: 85 3510 85
GlifName: sinB_a
Width: 816
VWidth: 816
Flags: W
HStem: 0 137 525 144 1247 132 2068 135
VStem: 117 119 705 123 956 156 1154 132 1926 135
LayerCount: 2
Fore
SplineSet
312 119 m 256
 312 190 262 242 207 242 c 256
 158 242 114 203 102 182 c 257
 99 195 98 210 98 227 c 256
 98 319 143 449 283 449 c 256
 360 449 430 400 430 326 c 256
 430 231 359 227 359 133 c 256
 359 72 406 0 521 0 c 256
 645 0 756 81 756 296 c 256
 756 589 545 793 282 793 c 256
 217 793 152 783 83 759 c 256
 68 754 63 743 63 734 c 256
 63 722 72 710 87 710 c 256
 91 710 95 712 99 713 c 256
 164 734 226 744 285 744 c 256
 524 744 707 560 707 296 c 256
 707 139 625 48 521 48 c 256
 430 48 414 103 414 133 c 256
 414 208 477 214 477 326 c 256
 477 425 386 496 283 496 c 256
 152 496 56 386 56 226 c 256
 56 152 66 0 207 0 c 256
 282 0 312 57 312 119 c 256
128 119 m 256
 128 159 159 189 197 189 c 256
 235 189 267 159 267 119 c 256
 267 81 235 49 197 49 c 256
 159 49 128 81 128 119 c 256
EndSplineSet
PickledDataWithLists: "(dp1
S'com.schriftgestaltung.Glyphs.lastChange'
p2
S'2018-08-04 01:07:05 +0000'
p3
sS'com.fontlab.hintData'
p4
(dp5
S'vhints'
p6
(lp7
(dp8
S'position'
p9
I117
sS'width'
p10
I119
sa(dp11
g9
I705
sg10
I123
sa(dp12
g9
I956
sg10
I156
sa(dp13
g9
I1154
sg10
I132
sa(dp14
g9
I1926
sg10
I135
sasS'hhints'
p15
(lp16
(dp17
g9
I0
sg10
I137
sa(dp18
g9
I525
sg10
I144
sa(dp19
g9
I1247
sg10
I132
sa(dp20
g9
I2068
sg10
I135
sass."
EndChar

StartChar: sinBa.reph
Encoding: 86 -1 86
GlifName: sinB_a.reph
Width: 754
VWidth: 0
Flags: W
LayerCount: 2
Fore
SplineSet
287 119 m 256
 287 57 244 0 169 0 c 256
 39 0 27 152 27 226 c 256
 27 386 123 496 254 496 c 256
 357 496 448 425 448 326 c 256
 448 214 385 208 385 133 c 256
 385 103 401 48 492 48 c 256
 596 48 678 139 678 296 c 256
 678 560 501 783 262 783 c 256
 242 783 228 778 215 774 c 256
 211 773 207 771 203 771 c 256
 188 771 179 783 179 795 c 256
 179 804 184 815 199 820 c 256
 216 826 221 832 259 832 c 256
 522 832 727 589 727 296 c 256
 727 81 616 0 492 0 c 256
 377 0 330 72 330 133 c 256
 330 227 401 231 401 326 c 256
 401 400 331 447 254 447 c 256
 114 447 69 318 69 226 c 256
 69 209 70 195 73 182 c 257
 81 204 115 242 169 242 c 256
 236 242 287 197 287 119 c 256
99 119 m 256
 99 81 131 49 169 49 c 256
 207 49 238 81 238 119 c 256
 238 159 207 189 169 189 c 256
 131 189 99 159 99 119 c 256
358 716 m 256
 358 632 279 583 204 583 c 256
 108 583 27 644 27 765 c 256
 27 888 123 972 266 972 c 256
 398 972 506 877 506 732 c 256
 506 695 500 657 484 612 c 256
 481 601 472 598 463 598 c 256
 451 598 439 605 439 620 c 256
 439 623 439 627 440 631 c 256
 453 668 459 702 459 732 c 256
 459 844 374 925 266 925 c 256
 156 925 75 864 75 765 c 256
 75 675 133 631 204 631 c 256
 257 631 311 665 311 716 c 256
 311 750 290 780 261 780 c 256
 245 780 236 777 229 773 c 257
 237 766 242 757 242 745 c 256
 242 727 230 707 204 707 c 256
 176 707 156 728 156 757 c 256
 156 802 195 831 246 831 c 256
 315 831 358 782 358 716 c 256
EndSplineSet
PickledDataWithLists: "(dp1
S'com.schriftgestaltung.Glyphs.lastChange'
p2
S'2018-08-04 01:07:05 +0000'
p3
s."
EndChar

StartChar: sinBhAa
Encoding: 88 -1 88
GlifName: sinB_hA_a
Width: 904
VWidth: 904
Flags: W
HStem: 0 132 661 121 1003 140 1026 81 1077 143 1113 120 1243 124 1320 132 1360 123
VStem: 228 132 537 128 874 52 1176 43<219 307.5> 1283 132 2157 136
LayerCount: 2
Fore
SplineSet
885 455 m 256
 912 496 996 529 1075 510 c 256
 1169 488 1219 405 1219 264 c 256
 1219 128 1169 36 1064 7 c 256
 952 -24 883 62 874 102 c 256
 871 115 868 143 892 144 c 256
 909 145 912 128 926 108 c 256
 940 86 995 33 1065 55 c 256
 1141 80 1176 173 1176 265 c 256
 1176 350 1146 438 1068 464 c 256
 1013 483 952 461 918 418 c 256
 900 395 886 398 879 403 c 256
 869 410 868 431 885 455 c 256
EndSplineSet
Refer: 101 3511 N 1 0 0 1 0 0 2
PickledDataWithLists: "(dp1
S'com.schriftgestaltung.Glyphs.lastChange'
p2
S'2018-08-04 01:07:06 +0000'
p3
sS'com.fontlab.hintData'
p4
(dp5
S'vhints'
p6
(lp7
(dp8
S'position'
p9
I228
sS'width'
p10
I132
sa(dp11
g9
I537
sg10
I128
sa(dp12
g9
I874
sg10
I52
sa(dp13
g9
I1176
sg10
I43
sa(dp14
g9
I1283
sg10
I132
sa(dp15
g9
I2157
sg10
I136
sasS'hhints'
p16
(lp17
(dp18
g9
I0
sg10
I132
sa(dp19
g9
I661
sg10
I121
sa(dp20
g9
I1003
sg10
I140
sa(dp21
g9
I1026
sg10
I81
sa(dp22
g9
I1077
sg10
I143
sa(dp23
g9
I1113
sg10
I120
sa(dp24
g9
I1243
sg10
I124
sa(dp25
g9
I1320
sg10
I132
sa(dp26
g9
I1360
sg10
I123
sass."
EndChar

StartChar: sinBhI
Encoding: 90 -1 90
GlifName: sinB_hI_
Width: 904
VWidth: 904
Flags: W
HStem: 0 132 543 45 635 45<566 595 566 605> 661 121 924 48<436.5 537.5> 1003 140 1026 81 1077 143 1113 120 1243 124 1320 132 1360 123
VStem: 228 132 264 44<756 756> 537 128 662 46<750 827.5> 1283 132 2157 136
LayerCount: 2
Fore
SplineSet
557 563 m 256
 557 580 547 589 531 588 c 256
 389 578 309 653 308 756 c 256
 307 860 387 924 486 924 c 256
 589 924 662 866 662 789 c 256
 662 711 614 680 576 680 c 256
 556 680 538 684 510 702 c 256
 506 705 502 708 495 708 c 256
 485 708 477 701 477 690 c 256
 477 684 479 677 483 672 c 256
 506 643 541 635 576 635 c 256
 634 635 708 675 708 789 c 256
 708 898 626 972 486 972 c 256
 372 972 263 895 264 756 c 256
 266 622 359 530 528 543 c 256
 549 545 557 552 557 563 c 256
EndSplineSet
Refer: 101 3511 N 1 0 0 1 0 0 2
PickledDataWithLists: "(dp1
S'com.schriftgestaltung.Glyphs.lastChange'
p2
S'2018-08-04 01:07:06 +0000'
p3
sS'com.fontlab.hintData'
p4
(dp5
S'vhints'
p6
(lp7
(dp8
S'position'
p9
I228
sS'width'
p10
I132
sa(dp11
g9
I264
sg10
I44
sa(dp12
g9
I537
sg10
I128
sa(dp13
g9
I662
sg10
I46
sa(dp14
g9
I1283
sg10
I132
sa(dp15
g9
I2157
sg10
I136
sasS'hhints'
p16
(lp17
(dp18
g9
I0
sg10
I132
sa(dp19
g9
I543
sg10
I45
sa(dp20
g9
I635
sg10
I45
sa(dp21
g9
I661
sg10
I121
sa(dp22
g9
I924
sg10
I48
sa(dp23
g9
I1003
sg10
I140
sa(dp24
g9
I1026
sg10
I81
sa(dp25
g9
I1077
sg10
I143
sa(dp26
g9
I1113
sg10
I120
sa(dp27
g9
I1243
sg10
I124
sa(dp28
g9
I1320
sg10
I132
sa(dp29
g9
I1360
sg10
I123
sass."
Ligature2: "sin_abvs subtable" sinBha sinMatraI
EndChar

StartChar: sinBhIi
Encoding: 91 -1 91
GlifName: sinB_hI_i
Width: 904
VWidth: 904
Flags: W
HStem: 0 132 540 48<521 521> 614 49<509 538 508 578.5> 661 121 766 46<508 539.5> 924 48<447 540> 1003 140 1026 81 1077 143 1113 120 1243 124 1320 132 1360 123
VStem: 228 132 260 48<756 756> 425 46 537 128 577 45<711 729.5> 665 45 1283 132 2157 136
LayerCount: 2
Fore
SplineSet
551 560 m 256
 551 573 538 590 521 588 c 256
 410 568 302 621 308 756 c 256
 313 870 400 924 494 924 c 256
 586 924 665 862 665 774 c 256
 665 708 613 677 613 677 c 256
 613 677 622 704 622 718 c 256
 622 766 584 812 523 812 c 256
 465 812 425 766 425 717 c 256
 425 644 477 614 541 614 c 256
 616 614 711 663 710 780 c 256
 709 908 615 972 494 972 c 256
 373 972 262 895 260 756 c 256
 259 604 367 522 521 540 c 256
 543 543 551 549 551 560 c 256
472 714 m 256
 472 745 493 766 523 766 c 256
 556 766 577 745 577 714 c 256
 577 681 553 663 523 663 c 256
 493 663 472 683 472 714 c 256
EndSplineSet
Refer: 101 3511 N 1 0 0 1 0 0 2
PickledDataWithLists: "(dp1
S'com.schriftgestaltung.Glyphs.lastChange'
p2
S'2018-08-04 01:07:06 +0000'
p3
sS'com.fontlab.hintData'
p4
(dp5
S'vhints'
p6
(lp7
(dp8
S'position'
p9
I228
sS'width'
p10
I132
sa(dp11
g9
I260
sg10
I48
sa(dp12
g9
I425
sg10
I46
sa(dp13
g9
I537
sg10
I128
sa(dp14
g9
I577
sg10
I45
sa(dp15
g9
I665
sg10
I45
sa(dp16
g9
I1283
sg10
I132
sa(dp17
g9
I2157
sg10
I136
sasS'hhints'
p18
(lp19
(dp20
g9
I0
sg10
I132
sa(dp21
g9
I540
sg10
I48
sa(dp22
g9
I614
sg10
I49
sa(dp23
g9
I661
sg10
I121
sa(dp24
g9
I766
sg10
I46
sa(dp25
g9
I924
sg10
I48
sa(dp26
g9
I1003
sg10
I140
sa(dp27
g9
I1026
sg10
I81
sa(dp28
g9
I1077
sg10
I143
sa(dp29
g9
I1113
sg10
I120
sa(dp30
g9
I1243
sg10
I124
sa(dp31
g9
I1320
sg10
I132
sa(dp32
g9
I1360
sg10
I123
sass."
Ligature2: "sin_abvs subtable" sinBha sinMatraIi
EndChar

StartChar: sinBhR.virama
Encoding: 92 -1 92
GlifName: sinB_hR_.virama
Width: 840
VWidth: 0
Flags: W
LayerCount: 2
Fore
SplineSet
616 937 m 256
 616 956 621 972 641 972 c 256
 657 972 665 959 665 942 c 257
 673 936 681 934 691 934 c 256
 732 934 752 958 789 958 c 256
 825 958 869 930 869 867 c 256
 869 789 816 726 744 726 c 256
 709 726 683 738 662 753 c 257
 662 664 l 256
 662 509 l 257
 617 513 l 257
 616 590 616 654 616 707 c 256
 616 784 616 860 616 937 c 256
775 910 m 256
 743 910 727 890 695 890 c 256
 681 890 671 894 664 898 c 257
 663 867 663 835 663 803 c 257
 678 788 703 772 738 772 c 256
 788 772 818 810 818 860 c 256
 818 899 797 910 775 910 c 256
748 -174 m 256
 760 -113 761 -64 757 -25 c 256
 755 -3 744 4 728 0 c 256
 715 -3 710 -17 712 -37 c 256
 715 -64 718 -112 702 -176 c 256
 670 -306 547 -386 410 -386 c 256
 394 -386 376 -386 357 -383 c 256
 338 -380 326 -384 323 -398 c 256
 320 -411 325 -425 346 -430 c 256
 363 -434 389 -434 407 -434 c 256
 572 -432 717 -332 748 -174 c 256
EndSplineSet
Refer: 101 3511 N 1 0 0 1 0 0 2
PickledDataWithLists: "(dp1
S'com.schriftgestaltung.Glyphs.lastChange'
p2
S'2018-08-04 01:07:06 +0000'
p3
s."
EndChar

StartChar: sinBhRa
Encoding: 95 -1 95
GlifName: sinB_hR_a
Width: 904
VWidth: 904
Flags: W
HStem: 0 132 661 121 1003 140 1026 81 1077 143 1113 120 1243 124 1320 132 1360 123
VStem: 228 132 537 128 1283 132 2157 136
LayerCount: 2
Fore
SplineSet
747 -174 m 256
 759 -113 760 -64 756 -25 c 256
 754 -3 743 4 727 0 c 256
 714 -3 709 -17 711 -37 c 256
 714 -64 717 -112 701 -176 c 256
 669 -306 546 -386 409 -386 c 256
 393 -386 375 -386 356 -383 c 256
 337 -380 325 -384 322 -398 c 256
 319 -411 324 -425 345 -430 c 256
 362 -434 388 -434 406 -434 c 256
 571 -432 716 -332 747 -174 c 256
EndSplineSet
Refer: 101 3511 N 1 0 0 1 0 0 2
PickledDataWithLists: "(dp1
S'com.schriftgestaltung.Glyphs.lastChange'
p2
S'2018-08-04 01:07:06 +0000'
p3
sS'com.fontlab.hintData'
p4
(dp5
S'vhints'
p6
(lp7
(dp8
S'position'
p9
I228
sS'width'
p10
I132
sa(dp11
g9
I537
sg10
I128
sa(dp12
g9
I1283
sg10
I132
sa(dp13
g9
I2157
sg10
I136
sasS'hhints'
p14
(lp15
(dp16
g9
I0
sg10
I132
sa(dp17
g9
I661
sg10
I121
sa(dp18
g9
I1003
sg10
I140
sa(dp19
g9
I1026
sg10
I81
sa(dp20
g9
I1077
sg10
I143
sa(dp21
g9
I1113
sg10
I120
sa(dp22
g9
I1243
sg10
I124
sa(dp23
g9
I1320
sg10
I132
sa(dp24
g9
I1360
sg10
I123
sass."
Ligature2: "sin_rakar subtable" sinBha sinVirama zerowidthjoiner sinRa
EndChar

StartChar: sinBhU
Encoding: 97 -1 97
GlifName: sinB_hU_
Width: 854
VWidth: 854
Flags: W
HStem: -432 47<561 646 561 653> 0 48<260 346.5> 238 45 370 29<158.5 253> 388 51 400 44<119.5 126.5 99 144> 447 45<354.5 377.5 354.5 377.5> 475 48<538 641.5> 490 44
VStem: 82 48 194 45<461 471 450.5 485.5> 392 47 462 48<146.5 187.5> 776 49<191.5 337>
LayerCount: 2
Fore
SplineSet
632 3 m 256
 742 30 825 108 825 261 c 256
 825 453 710 523 593 523 c 256
 457 523 355 440 355 269 c 256
 355 264 354 257 354 253 c 256
 354 243 358 236 370 236 c 256
 381 236 392 238 403 238 c 256
 444 238 462 214 462 161 c 256
 462 110 411 48 309 48 c 256
 211 48 129 112 129 232 c 256
 129 309 170 370 231 370 c 256
 275 370 269 360 301 360 c 256
 313 360 325 366 325 379 c 256
 325 396 320 404 298 412 c 256
 242 433 239 438 239 463 c 256
 239 479 255 490 273 490 c 256
 313 490 324 447 371 447 c 256
 384 447 391 458 391 470 c 256
 391 480 384 492 371 492 c 256
 338 492 321 533 269 533 c 256
 220 533 194 502 194 469 c 256
 194 453 199 438 210 425 c 257
 182 438 145 444 108 444 c 256
 90 444 71 444 53 440 c 256
 36 436 29 424 29 413 c 256
 29 400 38 388 55 388 c 256
 84 388 100 400 139 400 c 256
 149 400 161 400 174 399 c 257
 143 399 82 347 82 232 c 256
 82 77 191 0 309 0 c 256
 384 0 439 30 480 76 c 256
 503 102 510 132 510 161 c 256
 510 230 478 282 418 282 c 256
 413 282 408 281 401 281 c 257
 417 387 483 475 593 475 c 256
 690 475 776 413 776 261 c 256
 776 122 716 71 632 51 c 256
 499 19 392 -75 392 -202 c 256
 392 -322 481 -432 618 -432 c 256
 688 -432 736 -397 774 -372 c 256
 783 -366 788 -357 788 -348 c 256
 788 -335 780 -323 768 -323 c 256
 762 -323 753 -325 746 -331 c 256
 711 -359 674 -385 618 -385 c 256
 504 -385 440 -302 440 -202 c 256
 440 -104 525 -22 632 3 c 256
EndSplineSet
PickledDataWithLists: "(dp1
S'com.schriftgestaltung.Glyphs.lastChange'
p2
S'2018-08-04 01:07:06 +0000'
p3
sS'com.fontlab.hintData'
p4
(dp5
S'vhints'
p6
(lp7
(dp8
S'position'
p9
I82
sS'width'
p10
I48
sa(dp11
g9
I194
sg10
I45
sa(dp12
g9
I392
sg10
I47
sa(dp13
g9
I462
sg10
I48
sa(dp14
g9
I776
sg10
I49
sasS'hhints'
p15
(lp16
(dp17
g9
I-432
sg10
I47
sa(dp18
g9
I0
sg10
I48
sa(dp19
g9
I238
sg10
I45
sa(dp20
g9
I370
sg10
I29
sa(dp21
g9
I388
sg10
I51
sa(dp22
g9
I400
sg10
I44
sa(dp23
g9
I447
sg10
I45
sa(dp24
g9
I475
sg10
I48
sa(dp25
g9
I490
sg10
I44
sass."
Ligature2: "sin_blws subtable" sinBha sinMatraU
EndChar

StartChar: sinBhU.reph
Encoding: 98 -1 98
GlifName: sinB_hU_.reph
Width: 849
VWidth: 0
Flags: W
LayerCount: 2
Fore
SplineSet
548 716 m 256
 548 632 469 583 394 583 c 256
 298 583 217 644 217 765 c 256
 217 888 313 972 456 972 c 256
 588 972 696 877 696 732 c 256
 696 695 690 657 674 612 c 256
 671 601 662 598 653 598 c 256
 641 598 629 605 629 620 c 256
 629 623 629 627 630 631 c 256
 643 668 649 702 649 732 c 256
 649 844 564 925 456 925 c 256
 346 925 265 864 265 765 c 256
 265 675 323 631 394 631 c 256
 447 631 501 665 501 716 c 256
 501 750 480 780 451 780 c 256
 435 780 426 777 419 773 c 257
 427 766 432 757 432 745 c 256
 432 727 420 707 394 707 c 256
 366 707 346 728 346 757 c 256
 346 802 385 831 436 831 c 256
 505 831 548 782 548 716 c 256
EndSplineSet
Refer: 97 -1 N 1 0 0 1 0 0 2
PickledDataWithLists: "(dp1
S'com.schriftgestaltung.Glyphs.lastChange'
p2
S'2018-08-04 01:07:06 +0000'
p3
s."
EndChar

StartChar: sinBhUu
Encoding: 99 -1 99
GlifName: sinB_hU_u
Width: 854
VWidth: 854
Flags: W
HStem: -432 49<547.5 638 547.5 651.5> 0 48<260 346.5> 238 45 370 29<158.5 251.5> 388 55 400 44<121.5 126.5 99 144> 447 45<354.5 377.5 354.5 377.5> 475 48<538 641.5> 490 44
VStem: 82 48 194 45<461 471 450.5 485.5> 462 48<146.5 187.5> 776 49<189.5 337>
LayerCount: 2
Fore
SplineSet
625 6 m 256
 601 1 577 1 562 0 c 257
 586 -8 613 -16 636 -21 c 256
 656 -25 667 -33 667 -48 c 256
 667 -63 660 -72 645 -74 c 256
 540 -86 430 -103 424 -226 c 256
 420 -303 489 -383 606 -383 c 256
 670 -383 713 -358 753 -332 c 256
 760 -328 768 -324 773 -324 c 256
 785 -324 793 -333 793 -344 c 256
 793 -354 788 -364 778 -370 c 256
 739 -397 688 -432 615 -432 c 256
 470 -432 365 -333 375 -228 c 256
 386 -115 473 -62 611 -48 c 257
 611 -48 537 -22 501 -10 c 256
 490 -6 480 7 486 24 c 256
 492 40 511 42 526 40 c 256
 543 38 580 36 613 45 c 256
 695 67 776 118 776 261 c 256
 776 413 690 475 593 475 c 256
 483 475 417 387 401 281 c 257
 408 281 413 282 418 282 c 256
 478 282 510 230 510 161 c 256
 510 132 503 102 480 76 c 256
 439 30 384 0 309 0 c 256
 191 0 82 77 82 232 c 256
 82 347 143 399 174 399 c 257
 161 400 149 400 139 400 c 256
 104 400 84 393 63 388 c 257
 55 388 l 258
 38 388 29 400 29 413 c 256
 29 424 36 436 53 440 c 256
 71 444 90 444 108 444 c 256
 145 444 182 438 210 425 c 257
 199 438 194 453 194 469 c 256
 194 502 220 533 269 533 c 256
 321 533 338 492 371 492 c 256
 384 492 391 480 391 470 c 256
 391 458 384 447 371 447 c 256
 327 447 314 482 281 488 c 256
 279 489 276 490 273 490 c 256
 255 490 239 479 239 463 c 256
 239 438 242 433 298 412 c 256
 317 405 325 396 325 385 c 258
 325 379 l 258
 325 366 313 360 301 360 c 256
 298 360 296 360 293 362 c 256
 268 374 272 370 231 370 c 256
 170 370 129 309 129 232 c 256
 129 112 211 48 309 48 c 256
 411 48 462 110 462 161 c 256
 462 214 444 238 403 238 c 256
 395 238 387 236 379 236 c 258
 370 236 l 258
 358 236 354 243 354 253 c 256
 354 257 355 264 355 269 c 256
 355 440 457 523 593 523 c 256
 710 523 825 453 825 261 c 256
 825 109 734 30 625 6 c 256
EndSplineSet
PickledDataWithLists: "(dp1
S'com.schriftgestaltung.Glyphs.lastChange'
p2
S'2018-08-04 01:07:06 +0000'
p3
sS'com.fontlab.hintData'
p4
(dp5
S'vhints'
p6
(lp7
(dp8
S'position'
p9
I82
sS'width'
p10
I48
sa(dp11
g9
I194
sg10
I45
sa(dp12
g9
I462
sg10
I48
sa(dp13
g9
I776
sg10
I49
sasS'hhints'
p14
(lp15
(dp16
g9
I-432
sg10
I49
sa(dp17
g9
I0
sg10
I48
sa(dp18
g9
I238
sg10
I45
sa(dp19
g9
I370
sg10
I29
sa(dp20
g9
I388
sg10
I55
sa(dp21
g9
I400
sg10
I44
sa(dp22
g9
I447
sg10
I45
sa(dp23
g9
I475
sg10
I48
sa(dp24
g9
I490
sg10
I44
sass."
Ligature2: "sin_blws subtable" sinBha sinMatraUu
EndChar

StartChar: sinBhUu.reph
Encoding: 100 -1 100
GlifName: sinB_hU_u.reph
Width: 849
VWidth: 0
Flags: W
LayerCount: 2
Fore
SplineSet
548 716 m 256
 548 632 469 583 394 583 c 256
 298 583 217 644 217 765 c 256
 217 888 313 972 456 972 c 256
 588 972 696 877 696 732 c 256
 696 695 690 657 674 612 c 256
 671 601 662 598 653 598 c 256
 641 598 629 605 629 620 c 256
 629 623 629 627 630 631 c 256
 643 668 649 702 649 732 c 256
 649 844 564 925 456 925 c 256
 346 925 265 864 265 765 c 256
 265 675 323 631 394 631 c 256
 447 631 501 665 501 716 c 256
 501 750 480 780 451 780 c 256
 435 780 426 777 419 773 c 257
 427 766 432 757 432 745 c 256
 432 727 420 707 394 707 c 256
 366 707 346 728 346 757 c 256
 346 802 385 831 436 831 c 256
 505 831 548 782 548 716 c 256
EndSplineSet
Refer: 99 -1 N 1 0 0 1 0 0 2
PickledDataWithLists: "(dp1
S'com.schriftgestaltung.Glyphs.lastChange'
p2
S'2018-08-04 01:07:06 +0000'
p3
s."
EndChar

StartChar: sinBha
Encoding: 101 3511 101
GlifName: sinB_ha
Width: 904
VWidth: 904
Flags: W
HStem: 0 132 661 121 1003 140 1026 81 1077 143 1113 120 1243 124 1320 132 1360 123
VStem: 228 132 537 128 1283 132 2157 136
LayerCount: 2
Fore
SplineSet
537 161 m 256
 537 231 504 284 445 284 c 256
 440 284 435 283 428 283 c 257
 444 391 507 481 620 481 c 256
 712 481 793 418 793 263 c 256
 793 121 721 47 626 48 c 256
 606 48 583 52 566 56 c 256
 547 60 533 58 527 45 c 256
 519 28 530 14 545 10 c 256
 570 3 599 1 626 0 c 256
 753 -3 842 106 842 263 c 256
 842 457 732 529 620 529 c 256
 481 529 397 429 381 255 c 256
 380 244 385 238 397 238 c 256
 409 238 419 240 430 240 c 256
 471 240 489 215 489 161 c 256
 489 110 438 48 336 48 c 256
 238 48 156 113 156 234 c 256
 156 313 199 371 258 376 c 256
 279 378 307 372 320 368 c 256
 335 363 350 369 354 382 c 256
 359 398 347 410 325 418 c 256
 278 436 266 444 266 469 c 256
 266 488 287 498 308 494 c 256
 341 487 351 461 391 455 c 256
 404 453 415 461 417 473 c 256
 419 483 411 496 398 498 c 256
 366 504 347 539 296 539 c 256
 247 539 221 508 221 475 c 256
 221 459 226 444 237 431 c 257
 209 444 172 450 135 450 c 256
 117 450 98 450 80 446 c 256
 63 442 56 430 56 419 c 256
 56 406 65 394 82 394 c 256
 110 394 127 406 166 406 c 256
 177 406 188 406 201 405 c 257
 169 405 109 352 109 234 c 256
 109 77 219 0 336 0 c 256
 434 0 537 60 537 161 c 256
EndSplineSet
PickledDataWithLists: "(dp1
S'com.schriftgestaltung.Glyphs.lastChange'
p2
S'2018-08-04 01:07:05 +0000'
p3
sS'com.fontlab.hintData'
p4
(dp5
S'vhints'
p6
(lp7
(dp8
S'position'
p9
I228
sS'width'
p10
I132
sa(dp11
g9
I537
sg10
I128
sa(dp12
g9
I1283
sg10
I132
sa(dp13
g9
I2157
sg10
I136
sasS'hhints'
p14
(lp15
(dp16
g9
I0
sg10
I132
sa(dp17
g9
I661
sg10
I121
sa(dp18
g9
I1003
sg10
I140
sa(dp19
g9
I1026
sg10
I81
sa(dp20
g9
I1077
sg10
I143
sa(dp21
g9
I1113
sg10
I120
sa(dp22
g9
I1243
sg10
I124
sa(dp23
g9
I1320
sg10
I132
sa(dp24
g9
I1360
sg10
I123
sass."
EndChar

StartChar: sinBha.reph
Encoding: 102 -1 102
GlifName: sinB_ha.reph
Width: 840
VWidth: 0
Flags: W
LayerCount: 2
Fore
SplineSet
548 716 m 256
 548 632 469 583 394 583 c 256
 298 583 217 644 217 765 c 256
 217 888 313 972 456 972 c 256
 588 972 696 877 696 732 c 256
 696 695 690 657 674 612 c 256
 671 601 662 598 653 598 c 256
 641 598 629 605 629 620 c 256
 629 623 629 627 630 631 c 256
 643 668 649 702 649 732 c 256
 649 844 564 925 456 925 c 256
 346 925 265 864 265 765 c 256
 265 675 323 631 394 631 c 256
 447 631 501 665 501 716 c 256
 501 750 480 780 451 780 c 256
 435 780 426 777 419 773 c 257
 427 766 432 757 432 745 c 256
 432 727 420 707 394 707 c 256
 366 707 346 728 346 757 c 256
 346 802 385 831 436 831 c 256
 505 831 548 782 548 716 c 256
EndSplineSet
Refer: 101 3511 N 1 0 0 1 0 0 2
PickledDataWithLists: "(dp1
S'com.schriftgestaltung.Glyphs.lastChange'
p2
S'2018-08-04 01:07:05 +0000'
p3
s."
EndChar

StartChar: sinC.virama
Encoding: 103 -1 103
GlifName: sinC_.virama
Width: 770
VWidth: 770
Flags: W
HStem: -34 137 1006 143 1080 143 1115 120 1246 124 1362 120 2031 143
VStem: 29 132 366 132 1533 135
LayerCount: 2
Fore
SplineSet
349 387 m 256
 349 372 337 364 324 364 c 258
 316 364 l 257
 298 368 280 373 262 373 c 258
 256 373 l 257
 197 369 155 309 155 234 c 256
 155 115 246 39 394 39 c 256
 581 39 669 204 669 346 c 257
 664 669 495 765 307 765 c 256
 253 765 199 755 146 737 c 256
 141 735 137 735 134 735 c 256
 118 735 109 746 109 758 c 256
 109 769 116 778 129 783 c 256
 173 801 184 821 184 858 c 256
 184 887 164 911 131 911 c 256
 114 911 105 923 105 935 c 256
 105 948 117 963 143 963 c 256
 167 963 215 970 269 970 c 256
 373 970 505 937 566 732 c 257
 654 659 718 522 718 346 c 256
 718 168 614 -10 394 -10 c 256
 218 -10 108 81 108 234 c 256
 108 348 169 397 198 401 c 257
 185 404 173 403 162 403 c 256
 128 403 109 391 88 391 c 256
 84 391 82 390 79 390 c 256
 62 390 52 403 52 416 c 256
 52 446 100 447 133 447 c 256
 169 447 205 441 233 428 c 257
 221 443 216 458 216 473 c 256
 216 506 242 535 290 535 c 256
 345 535 361 496 394 496 c 256
 407 496 414 484 414 472 c 256
 414 461 407 451 394 451 c 256
 350 451 338 492 304 492 c 256
 301 492 300 493 297 493 c 256
 279 493 264 481 264 465 c 256
 264 443 282 431 322 415 c 256
 339 408 349 399 349 387 c 256
304 812 m 256
 375 812 445 792 510 758 c 257
 480 829 404 920 277 920 c 256
 256 920 232 916 207 911 c 257
 225 893 233 867 233 845 c 256
 233 832 231 818 223 807 c 257
 251 811 278 812 304 812 c 256
EndSplineSet
PickledDataWithLists: "(dp1
S'com.schriftgestaltung.Glyphs.lastChange'
p2
S'2018-08-04 01:07:06 +0000'
p3
sS'com.fontlab.hintData'
p4
(dp5
S'vhints'
p6
(lp7
(dp8
S'position'
p9
I29
sS'width'
p10
I132
sa(dp11
g9
I366
sg10
I132
sa(dp12
g9
I1533
sg10
I135
sasS'hhints'
p13
(lp14
(dp15
g9
I-34
sg10
I137
sa(dp16
g9
I1006
sg10
I143
sa(dp17
g9
I1080
sg10
I143
sa(dp18
g9
I1115
sg10
I120
sa(dp19
g9
I1246
sg10
I124
sa(dp20
g9
I1362
sg10
I120
sa(dp21
g9
I2031
sg10
I143
sass."
Ligature2: "sin_virama_1 subtable" sinCa sinVirama
EndChar

StartChar: sinCI
Encoding: 104 -1 104
GlifName: sinC_I_
Width: 730
VWidth: 730
Flags: W
HStem: -12 49<310.5 465 310.5 482.5> 388 51 401 44<149 155 127 171.5> 491 42<292 302.5> 613 48 924 48
VStem: 91 48 129 48 212 48 583 47 608 49
LayerCount: 2
Fore
SplineSet
672 278 m 256
 672 636 177 540 185 776 c 256
 189 900 300 927 390 924 c 256
 527 919 591 858 591 776 c 256
 591 707 524 660 453 661 c 256
 411 662 363 686 347 706 c 256
 341 713 319 721 309 712 c 256
 293 698 304 676 325 659 c 256
 343 644 403 612 455 613 c 256
 524 614 638 662 638 776 c 256
 638 874 558 968 393 972 c 256
 242 976 139 899 137 770 c 256
 133 504 623 610 623 278 c 256
 623 158 546 37 384 37 c 256
 237 37 146 113 146 232 c 256
 146 307 193 371 260 371 c 258
 266 371 l 258
 284 371 302 362 320 362 c 258
 328 362 l 258
 340 362 352 367 352 379 c 256
 352 382 353 384 353 385 c 256
 353 397 343 407 326 413 c 256
 286 428 268 441 268 463 c 256
 268 479 283 491 301 491 c 256
 304 491 305 491 308 490 c 256
 334 482 357 454 378 449 c 256
 390 447 401 448 405 455 c 256
 412 466 413 491 392 491 c 256
 362 491 336 533 294 533 c 256
 246 533 220 504 220 471 c 256
 220 456 225 441 237 426 c 257
 209 439 173 445 137 445 c 256
 117 445 98 443 81 440 c 256
 64 437 56 425 56 414 c 256
 56 401 66 388 83 388 c 256
 86 388 88 388 92 389 c 256
 112 394 132 401 166 401 c 256
 177 401 189 402 202 399 c 257
 169 395 99 346 99 232 c 256
 99 79 209 -12 385 -12 c 256
 580 -12 672 134 672 278 c 256
EndSplineSet
PickledDataWithLists: "(dp1
S'com.schriftgestaltung.Glyphs.lastChange'
p2
S'2018-08-04 01:07:06 +0000'
p3
sS'com.fontlab.hintData'
p4
(dp5
S'vhints'
p6
(lp7
(dp8
S'position'
p9
I91
sS'width'
p10
I48
sa(dp11
g9
I129
sg10
I48
sa(dp12
g9
I212
sg10
I48
sa(dp13
g9
I583
sg10
I47
sa(dp14
g9
I608
sg10
I49
sasS'hhints'
p15
(lp16
(dp17
g9
I-12
sg10
I49
sa(dp18
g9
I388
sg10
I51
sa(dp19
g9
I401
sg10
I44
sa(dp20
g9
I491
sg10
I42
sa(dp21
g9
I613
sg10
I48
sa(dp22
g9
I924
sg10
I48
sass."
Ligature2: "sin_abvs subtable" sinCa sinMatraI
EndChar

StartChar: sinCIi
Encoding: 105 -1 105
GlifName: sinC_I_i
Width: 753
VWidth: 753
Flags: W
HStem: -12 49<313 473 313 489.5> 388 51 401 44<151 157 129 173.5> 449 45<383.5 406.5 383.5 406.5> 491 42<294 304.5> 783 43<431 464> 924 48
VStem: 91 48 212 48 497 47 589 47 630 49
LayerCount: 2
Fore
SplineSet
689 280 m 256
 682 590 168 553 193 776 c 256
 207 899 308 927 398 924 c 256
 535 919 599 858 599 776 c 256
 599 732 578 702 543 684 c 257
 549 698 554 715 554 727 c 256
 554 783 523 826 445 826 c 256
 406 826 344 804 342 722 c 256
 341 666 405 613 478 618 c 256
 551 623 646 662 646 776 c 256
 646 874 566 968 401 972 c 256
 250 976 147 899 145 770 c 256
 141 505 626 566 640 280 c 256
 646 156 559 37 387 37 c 256
 239 37 148 113 148 232 c 256
 148 307 195 371 262 371 c 258
 268 371 l 258
 286 371 304 362 322 362 c 258
 330 362 l 258
 342 362 354 367 354 379 c 256
 354 382 355 384 355 385 c 256
 355 397 345 407 328 413 c 256
 288 428 270 441 270 463 c 256
 270 479 285 491 303 491 c 256
 306 491 307 491 310 490 c 256
 343 482 356 449 400 449 c 256
 413 449 420 459 420 470 c 256
 420 482 413 494 400 494 c 256
 367 494 351 533 296 533 c 256
 248 533 222 504 222 471 c 256
 222 456 227 441 239 426 c 257
 211 439 175 445 139 445 c 256
 119 445 100 443 83 440 c 256
 66 437 58 425 58 414 c 256
 58 401 68 388 85 388 c 256
 88 388 90 388 94 389 c 256
 114 394 134 401 168 401 c 256
 179 401 191 402 204 399 c 257
 171 395 101 346 101 232 c 256
 101 79 211 -12 387 -12 c 256
 592 -12 692 128 689 280 c 256
438 668 m 256
 406 677 389 702 388 724 c 256
 386 756 415 783 447 783 c 256
 481 783 507 764 507 723 c 256
 507 691 475 663 439 668 c 256
 438 668 438 668 438 668 c 256
EndSplineSet
PickledDataWithLists: "(dp1
S'com.schriftgestaltung.Glyphs.lastChange'
p2
S'2018-08-04 01:07:06 +0000'
p3
sS'com.fontlab.hintData'
p4
(dp5
S'vhints'
p6
(lp7
(dp8
S'position'
p9
I91
sS'width'
p10
I48
sa(dp11
g9
I212
sg10
I48
sa(dp12
g9
I497
sg10
I47
sa(dp13
g9
I589
sg10
I47
sa(dp14
g9
I630
sg10
I49
sasS'hhints'
p15
(lp16
(dp17
g9
I-12
sg10
I49
sa(dp18
g9
I388
sg10
I51
sa(dp19
g9
I401
sg10
I44
sa(dp20
g9
I449
sg10
I45
sa(dp21
g9
I491
sg10
I42
sa(dp22
g9
I783
sg10
I43
sa(dp23
g9
I924
sg10
I48
sass."
Ligature2: "sin_abvs subtable" sinCa sinMatraIi
EndChar

StartChar: sinCR.virama
Encoding: 106 -1 106
GlifName: sinC_R_.virama
Width: 747
VWidth: 747
Flags: W
HStem: -34 137 1006 143 1080 143 1115 120 1246 124 1362 120 2031 143
VStem: 29 132 366 132 1533 135
LayerCount: 2
Fore
SplineSet
349 387 m 256
 349 372 337 364 324 364 c 258
 316 364 l 257
 298 368 280 373 262 373 c 258
 256 373 l 257
 197 369 155 309 155 234 c 256
 155 115 246 39 394 39 c 256
 581 39 669 204 669 346 c 257
 664 669 495 765 307 765 c 256
 253 765 199 755 146 737 c 256
 141 735 137 735 134 735 c 256
 118 735 109 746 109 758 c 256
 109 769 116 778 129 783 c 256
 173 801 184 821 184 858 c 256
 184 887 164 911 131 911 c 256
 114 911 105 923 105 935 c 256
 105 948 117 963 143 963 c 256
 167 963 215 970 269 970 c 256
 373 970 505 937 566 732 c 257
 654 659 718 522 718 346 c 256
 718 168 614 -10 394 -10 c 256
 218 -10 108 81 108 234 c 256
 108 348 169 397 198 401 c 257
 185 404 173 403 162 403 c 256
 128 403 109 391 88 391 c 256
 84 391 82 390 79 390 c 256
 62 390 52 403 52 416 c 256
 52 446 100 447 133 447 c 256
 169 447 205 441 233 428 c 257
 221 443 216 458 216 473 c 256
 216 506 242 535 290 535 c 256
 345 535 361 496 394 496 c 256
 407 496 414 484 414 472 c 256
 414 461 407 451 394 451 c 256
 350 451 338 492 304 492 c 256
 301 492 300 493 297 493 c 256
 279 493 264 481 264 465 c 256
 264 443 282 431 322 415 c 256
 339 408 349 399 349 387 c 256
304 812 m 256
 375 812 445 792 510 758 c 257
 480 829 404 920 277 920 c 256
 256 920 232 916 207 911 c 257
 225 893 233 867 233 845 c 256
 233 832 231 818 223 807 c 257
 251 811 278 812 304 812 c 256
634 -174 m 256
 646 -113 647 -64 643 -25 c 256
 641 -3 630 4 614 0 c 256
 601 -3 596 -17 598 -37 c 256
 601 -64 604 -112 588 -176 c 256
 556 -306 433 -386 296 -386 c 256
 280 -386 262 -386 243 -383 c 256
 224 -380 212 -384 209 -398 c 256
 206 -411 211 -425 232 -430 c 256
 249 -434 275 -434 293 -434 c 256
 458 -432 603 -332 634 -174 c 256
EndSplineSet
PickledDataWithLists: "(dp1
S'com.schriftgestaltung.Glyphs.lastChange'
p2
S'2018-08-04 01:07:06 +0000'
p3
sS'com.fontlab.hintData'
p4
(dp5
S'vhints'
p6
(lp7
(dp8
S'position'
p9
I29
sS'width'
p10
I132
sa(dp11
g9
I366
sg10
I132
sa(dp12
g9
I1533
sg10
I135
sasS'hhints'
p13
(lp14
(dp15
g9
I-34
sg10
I137
sa(dp16
g9
I1006
sg10
I143
sa(dp17
g9
I1080
sg10
I143
sa(dp18
g9
I1115
sg10
I120
sa(dp19
g9
I1246
sg10
I124
sa(dp20
g9
I1362
sg10
I120
sa(dp21
g9
I2031
sg10
I143
sass."
Ligature2: "sin_virama_3 subtable" sinCRa sinVirama
EndChar

StartChar: sinCRI
Encoding: 107 -1 107
GlifName: sinC_R_I_
Width: 747
VWidth: 747
Flags: W
HStem: -34 137 1006 143 1080 143 1115 120 1246 124 1362 120 2031 143
VStem: 29 132 366 132 1533 135
LayerCount: 2
Fore
SplineSet
672 278 m 256
 672 636 177 540 185 776 c 256
 189 900 300 927 390 924 c 256
 527 919 591 858 591 776 c 256
 591 707 524 660 453 661 c 256
 411 662 363 686 347 706 c 256
 341 713 319 721 309 712 c 256
 293 698 304 676 325 659 c 256
 343 644 403 612 455 613 c 256
 524 614 638 662 638 776 c 256
 638 874 558 968 393 972 c 256
 242 976 139 899 137 770 c 256
 133 504 623 610 623 278 c 256
 623 158 546 37 384 37 c 256
 237 37 146 113 146 232 c 256
 146 307 193 371 260 371 c 258
 266 371 l 258
 284 371 302 362 320 362 c 258
 328 362 l 258
 340 362 352 367 352 379 c 256
 352 382 353 384 353 385 c 256
 353 397 343 407 326 413 c 256
 286 428 268 441 268 463 c 256
 268 479 283 491 301 491 c 256
 304 491 305 491 308 490 c 256
 334 482 357 454 378 449 c 256
 390 447 401 448 405 455 c 256
 412 466 413 491 392 491 c 256
 362 491 336 533 294 533 c 256
 246 533 220 504 220 471 c 256
 220 456 225 441 237 426 c 257
 209 439 173 445 137 445 c 256
 117 445 98 443 81 440 c 256
 64 437 56 425 56 414 c 256
 56 401 66 388 83 388 c 256
 86 388 88 388 92 389 c 256
 112 394 132 401 166 401 c 256
 177 401 189 402 202 399 c 257
 169 395 99 346 99 232 c 256
 99 79 209 -12 385 -12 c 256
 580 -12 672 134 672 278 c 256
634 -174 m 256
 646 -113 647 -64 643 -25 c 256
 641 -3 630 4 614 0 c 256
 601 -3 596 -17 598 -37 c 256
 601 -64 604 -112 588 -176 c 256
 556 -306 433 -386 296 -386 c 256
 280 -386 262 -386 243 -383 c 256
 224 -380 212 -384 209 -398 c 256
 206 -411 211 -425 232 -430 c 256
 249 -434 275 -434 293 -434 c 256
 458 -432 603 -332 634 -174 c 256
EndSplineSet
PickledDataWithLists: "(dp1
S'com.schriftgestaltung.Glyphs.lastChange'
p2
S'2018-08-04 01:07:06 +0000'
p3
sS'com.fontlab.hintData'
p4
(dp5
S'vhints'
p6
(lp7
(dp8
S'position'
p9
I29
sS'width'
p10
I132
sa(dp11
g9
I366
sg10
I132
sa(dp12
g9
I1533
sg10
I135
sasS'hhints'
p13
(lp14
(dp15
g9
I-34
sg10
I137
sa(dp16
g9
I1006
sg10
I143
sa(dp17
g9
I1080
sg10
I143
sa(dp18
g9
I1115
sg10
I120
sa(dp19
g9
I1246
sg10
I124
sa(dp20
g9
I1362
sg10
I120
sa(dp21
g9
I2031
sg10
I143
sass."
Ligature2: "sin_abvs subtable" sinCRa sinMatraI
EndChar

StartChar: sinCRIi
Encoding: 108 -1 108
GlifName: sinC_R_I_i
Width: 747
VWidth: 747
Flags: W
HStem: -34 137 1006 143 1080 143 1115 120 1246 124 1362 120 2031 143
VStem: 29 132 366 132 1533 135
LayerCount: 2
Fore
SplineSet
689 280 m 256
 682 590 168 553 193 776 c 256
 207 899 308 927 398 924 c 256
 535 919 599 858 599 776 c 256
 599 732 578 702 543 684 c 257
 549 698 554 715 554 727 c 256
 554 783 523 826 445 826 c 256
 406 826 344 804 342 722 c 256
 341 666 405 613 478 618 c 256
 551 623 646 662 646 776 c 256
 646 874 566 968 401 972 c 256
 250 976 147 899 145 770 c 256
 141 505 626 566 640 280 c 256
 646 156 559 37 387 37 c 256
 239 37 148 113 148 232 c 256
 148 307 195 371 262 371 c 258
 268 371 l 258
 286 371 304 362 322 362 c 258
 330 362 l 258
 342 362 354 367 354 379 c 256
 354 382 355 384 355 385 c 256
 355 397 345 407 328 413 c 256
 288 428 270 441 270 463 c 256
 270 479 285 491 303 491 c 256
 306 491 307 491 310 490 c 256
 343 482 356 449 400 449 c 256
 413 449 420 459 420 470 c 256
 420 482 413 494 400 494 c 256
 367 494 351 533 296 533 c 256
 248 533 222 504 222 471 c 256
 222 456 227 441 239 426 c 257
 211 439 175 445 139 445 c 256
 119 445 100 443 83 440 c 256
 66 437 58 425 58 414 c 256
 58 401 68 388 85 388 c 256
 88 388 90 388 94 389 c 256
 114 394 134 401 168 401 c 256
 179 401 191 402 204 399 c 257
 171 395 101 346 101 232 c 256
 101 79 211 -12 387 -12 c 256
 592 -12 692 128 689 280 c 256
438 668 m 256
 406 677 389 702 388 724 c 256
 386 756 415 783 447 783 c 256
 481 783 507 764 507 723 c 256
 507 691 475 663 439 668 c 256
 438 668 438 668 438 668 c 256
634 -174 m 256
 646 -113 647 -64 643 -25 c 256
 641 -3 630 4 614 0 c 256
 601 -3 596 -17 598 -37 c 256
 601 -64 604 -112 588 -176 c 256
 556 -306 433 -386 296 -386 c 256
 280 -386 262 -386 243 -383 c 256
 224 -380 212 -384 209 -398 c 256
 206 -411 211 -425 232 -430 c 256
 249 -434 275 -434 293 -434 c 256
 458 -432 603 -332 634 -174 c 256
EndSplineSet
PickledDataWithLists: "(dp1
S'com.schriftgestaltung.Glyphs.lastChange'
p2
S'2018-08-04 01:07:06 +0000'
p3
sS'com.fontlab.hintData'
p4
(dp5
S'vhints'
p6
(lp7
(dp8
S'position'
p9
I29
sS'width'
p10
I132
sa(dp11
g9
I366
sg10
I132
sa(dp12
g9
I1533
sg10
I135
sasS'hhints'
p13
(lp14
(dp15
g9
I-34
sg10
I137
sa(dp16
g9
I1006
sg10
I143
sa(dp17
g9
I1080
sg10
I143
sa(dp18
g9
I1115
sg10
I120
sa(dp19
g9
I1246
sg10
I124
sa(dp20
g9
I1362
sg10
I120
sa(dp21
g9
I2031
sg10
I143
sass."
Ligature2: "sin_abvs subtable" sinCRa sinMatraIi
EndChar

StartChar: sinCRa
Encoding: 109 -1 109
GlifName: sinC_R_a
Width: 747
VWidth: 747
Flags: W
HStem: -34 137 1006 143 1080 143 1115 120 1246 124 1362 120 2031 143
VStem: 29 132 366 132 1533 135
LayerCount: 2
Fore
SplineSet
634 -174 m 256
 646 -113 647 -64 643 -25 c 256
 641 -3 630 4 614 0 c 256
 601 -3 596 -17 598 -37 c 256
 601 -64 604 -112 588 -176 c 256
 556 -306 433 -386 296 -386 c 256
 280 -386 262 -386 243 -383 c 256
 224 -380 212 -384 209 -398 c 256
 206 -411 211 -425 232 -430 c 256
 249 -434 275 -434 293 -434 c 256
 458 -432 603 -332 634 -174 c 256
EndSplineSet
Refer: 114 3488 N 1 0 0 1 0 0 2
PickledDataWithLists: "(dp1
S'com.schriftgestaltung.Glyphs.lastChange'
p2
S'2018-08-04 01:07:06 +0000'
p3
sS'com.fontlab.hintData'
p4
(dp5
S'vhints'
p6
(lp7
(dp8
S'position'
p9
I29
sS'width'
p10
I132
sa(dp11
g9
I366
sg10
I132
sa(dp12
g9
I1533
sg10
I135
sasS'hhints'
p13
(lp14
(dp15
g9
I-34
sg10
I137
sa(dp16
g9
I1006
sg10
I143
sa(dp17
g9
I1080
sg10
I143
sa(dp18
g9
I1115
sg10
I120
sa(dp19
g9
I1246
sg10
I124
sa(dp20
g9
I1362
sg10
I120
sa(dp21
g9
I2031
sg10
I143
sass."
Ligature2: "sin_rakar subtable" sinCa sinVirama zerowidthjoiner sinRa
EndChar

StartChar: sinCU
Encoding: 110 -1 110
GlifName: sinC_U_
Width: 747
VWidth: 747
Flags: W
HStem: -432 48<311 591> -34 137 1006 143 1080 143 1115 120 1246 124 1362 120 2031 143
VStem: 29 132 366 132 599 48 1533 135
LayerCount: 2
Fore
SplineSet
622 -432 m 258
 645 -432 662 -420 662 -397 c 258
 662 195 l 257
 615 195 l 257
 615 -353 l 258
 615 -374 610 -384 591 -384 c 258
 311 -384 l 258
 222 -384 180 -348 171 -274 c 256
 162 -196 182 -127 220 -46 c 256
 227 -30 215 -11 202 -11 c 256
 193 -11 183 -16 178 -26 c 256
 137 -106 115 -195 123 -274 c 256
 133 -366 191 -432 311 -432 c 258
 622 -432 l 258
EndSplineSet
Refer: 114 3488 N 1 0 0 1 0 0 2
PickledDataWithLists: "(dp1
S'com.schriftgestaltung.Glyphs.lastChange'
p2
S'2018-08-04 01:07:06 +0000'
p3
sS'com.fontlab.hintData'
p4
(dp5
S'vhints'
p6
(lp7
(dp8
S'position'
p9
I29
sS'width'
p10
I132
sa(dp11
g9
I366
sg10
I132
sa(dp12
g9
I599
sg10
I48
sa(dp13
g9
I1533
sg10
I135
sasS'hhints'
p14
(lp15
(dp16
g9
I-432
sg10
I48
sa(dp17
g9
I-34
sg10
I137
sa(dp18
g9
I1006
sg10
I143
sa(dp19
g9
I1080
sg10
I143
sa(dp20
g9
I1115
sg10
I120
sa(dp21
g9
I1246
sg10
I124
sa(dp22
g9
I1362
sg10
I120
sa(dp23
g9
I2031
sg10
I143
sass."
Ligature2: "sin_blws subtable" sinCa sinMatraU
EndChar

StartChar: sinCU.reph
Encoding: 111 -1 111
GlifName: sinC_U_.reph
Width: 687
VWidth: 0
Flags: W
LayerCount: 2
Fore
SplineSet
108 447 m 256
 144 447 180 441 208 428 c 257
 196 443 191 458 191 473 c 256
 191 506 217 535 265 535 c 256
 320 535 336 496 369 496 c 256
 382 496 389 484 389 472 c 256
 389 461 382 451 369 451 c 256
 325 451 313 492 279 492 c 256
 276 492 275 493 272 493 c 256
 254 493 239 481 239 465 c 256
 239 443 257 431 297 415 c 256
 314 408 324 399 324 387 c 256
 324 386 324 384 323 381 c 256
 320 369 311 364 299 364 c 258
 291 364 l 257
 273 368 255 373 237 373 c 258
 231 373 l 257
 164 369 117 309 117 234 c 256
 117 115 208 39 356 39 c 256
 529 39 611 199 611 336 c 256
 611 627 426 788 258 780 c 256
 248 780 239 776 231 774 c 256
 228 773 225 773 221 773 c 256
 205 773 195 784 195 794 c 256
 195 803 200 813 215 818 c 256
 222 820 233 827 258 829 c 256
 452 847 660 636 660 336 c 256
 660 163 562 -10 356 -10 c 256
 180 -10 70 81 70 234 c 256
 70 348 140 397 173 401 c 257
 160 404 148 403 137 403 c 256
 103 403 84 391 63 391 c 256
 59 391 57 390 54 390 c 256
 37 390 27 403 27 416 c 256
 27 446 75 447 108 447 c 256
374 714 m 256
 374 630 295 581 220 581 c 256
 123 581 43 642 43 763 c 256
 43 886 139 970 282 970 c 256
 414 970 522 875 522 730 c 256
 522 693 515 655 500 610 c 256
 496 600 488 596 478 596 c 256
 467 596 455 603 455 618 c 256
 455 621 455 625 456 629 c 256
 468 666 474 700 474 730 c 256
 474 842 390 923 282 923 c 256
 172 923 90 862 90 763 c 256
 90 673 148 629 220 629 c 256
 272 629 327 663 327 714 c 256
 327 749 305 778 276 778 c 256
 261 778 251 775 245 771 c 257
 253 764 258 755 258 743 c 256
 258 725 246 705 220 705 c 256
 192 705 172 726 172 755 c 256
 172 800 210 829 262 829 c 256
 331 829 374 780 374 714 c 256
593 -432 m 258
 616 -432 633 -420 633 -397 c 258
 633 195 l 257
 586 195 l 257
 586 -353 l 258
 586 -374 581 -384 562 -384 c 258
 282 -384 l 258
 193 -384 151 -348 142 -274 c 256
 133 -196 153 -127 191 -46 c 256
 198 -30 186 -11 173 -11 c 256
 164 -11 154 -16 149 -26 c 256
 108 -106 86 -195 94 -274 c 256
 104 -366 162 -432 282 -432 c 258
 593 -432 l 258
EndSplineSet
PickledDataWithLists: "(dp1
S'com.schriftgestaltung.Glyphs.lastChange'
p2
S'2018-08-04 01:07:06 +0000'
p3
s."
EndChar

StartChar: sinCUu
Encoding: 112 -1 112
GlifName: sinC_U_u
Width: 747
VWidth: 747
Flags: W
HStem: -432 48<241 305.5 241 329> -34 137 1006 143 1080 143 1115 120 1246 124 1362 120 2031 143
VStem: 29 132 366 132 402 37 1533 135
LayerCount: 2
Fore
SplineSet
668 -399 m 258
 668 211 l 257
 621 211 l 257
 621 -362 l 257
 603 -328 492 -247 471 -224 c 256
 452 -203 445 -189 432 -189 c 256
 421 -189 412 -197 412 -209 c 256
 412 -228 412 -254 412 -271 c 256
 412 -343 340 -384 271 -384 c 256
 211 -384 155 -348 143 -278 c 256
 128 -197 158 -121 203 -46 c 256
 205 -42 206 -38 206 -35 c 256
 206 -22 193 -13 179 -13 c 256
 173 -13 165 -17 161 -25 c 256
 120 -99 84 -193 96 -278 c 256
 108 -367 182 -432 271 -432 c 256
 387 -432 449 -354 449 -289 c 256
 449 -284 449 -275 448 -268 c 257
 472 -294 558 -345 597 -409 c 256
 609 -429 626 -432 638 -432 c 256
 656 -432 668 -422 668 -399 c 258
EndSplineSet
Refer: 114 3488 N 1 0 0 1 0 0 2
PickledDataWithLists: "(dp1
S'com.schriftgestaltung.Glyphs.lastChange'
p2
S'2018-08-04 01:07:06 +0000'
p3
sS'com.fontlab.hintData'
p4
(dp5
S'vhints'
p6
(lp7
(dp8
S'position'
p9
I29
sS'width'
p10
I132
sa(dp11
g9
I366
sg10
I132
sa(dp12
g9
I402
sg10
I37
sa(dp13
g9
I1533
sg10
I135
sasS'hhints'
p14
(lp15
(dp16
g9
I-432
sg10
I48
sa(dp17
g9
I-34
sg10
I137
sa(dp18
g9
I1006
sg10
I143
sa(dp19
g9
I1080
sg10
I143
sa(dp20
g9
I1115
sg10
I120
sa(dp21
g9
I1246
sg10
I124
sa(dp22
g9
I1362
sg10
I120
sa(dp23
g9
I2031
sg10
I143
sass."
Ligature2: "sin_blws subtable" sinCa sinMatraUu
EndChar

StartChar: sinCUu.reph
Encoding: 113 -1 113
GlifName: sinC_U_u.reph
Width: 687
VWidth: 0
Flags: W
LayerCount: 2
Fore
SplineSet
108 447 m 256
 144 447 180 441 208 428 c 257
 196 443 191 458 191 473 c 256
 191 506 217 535 265 535 c 256
 320 535 336 496 369 496 c 256
 382 496 389 484 389 472 c 256
 389 461 382 451 369 451 c 256
 325 451 313 492 279 492 c 256
 276 492 275 493 272 493 c 256
 254 493 239 481 239 465 c 256
 239 443 257 431 297 415 c 256
 314 408 324 399 324 387 c 256
 324 386 324 384 323 381 c 256
 320 369 311 364 299 364 c 258
 291 364 l 257
 273 368 255 373 237 373 c 258
 231 373 l 257
 164 369 117 309 117 234 c 256
 117 115 208 39 356 39 c 256
 529 39 611 199 611 336 c 256
 611 627 426 788 258 780 c 256
 248 780 239 776 231 774 c 256
 228 773 225 773 221 773 c 256
 205 773 195 784 195 794 c 256
 195 803 200 813 215 818 c 256
 222 820 233 827 258 829 c 256
 452 847 660 636 660 336 c 256
 660 163 562 -10 356 -10 c 256
 180 -10 70 81 70 234 c 256
 70 348 140 397 173 401 c 257
 160 404 148 403 137 403 c 256
 103 403 84 391 63 391 c 256
 59 391 57 390 54 390 c 256
 37 390 27 403 27 416 c 256
 27 446 75 447 108 447 c 256
374 714 m 256
 374 630 295 581 220 581 c 256
 123 581 43 642 43 763 c 256
 43 886 139 970 282 970 c 256
 414 970 522 875 522 730 c 256
 522 693 515 655 500 610 c 256
 496 600 488 596 478 596 c 256
 467 596 455 603 455 618 c 256
 455 621 455 625 456 629 c 256
 468 666 474 700 474 730 c 256
 474 842 390 923 282 923 c 256
 172 923 90 862 90 763 c 256
 90 673 148 629 220 629 c 256
 272 629 327 663 327 714 c 256
 327 749 305 778 276 778 c 256
 261 778 251 775 245 771 c 257
 253 764 258 755 258 743 c 256
 258 725 246 705 220 705 c 256
 192 705 172 726 172 755 c 256
 172 800 210 829 262 829 c 256
 331 829 374 780 374 714 c 256
639 -399 m 258
 639 211 l 257
 592 211 l 257
 592 -362 l 257
 574 -328 463 -247 442 -224 c 256
 423 -203 416 -189 403 -189 c 256
 392 -189 383 -197 383 -209 c 256
 383 -228 383 -254 383 -271 c 256
 383 -343 311 -384 242 -384 c 256
 182 -384 126 -348 114 -278 c 256
 99 -197 129 -121 174 -46 c 256
 176 -42 177 -38 177 -35 c 256
 177 -22 164 -13 150 -13 c 256
 144 -13 136 -17 132 -25 c 256
 91 -99 55 -193 67 -278 c 256
 79 -367 153 -432 242 -432 c 256
 358 -432 420 -354 420 -289 c 256
 420 -284 420 -275 419 -268 c 257
 443 -294 529 -345 568 -409 c 256
 580 -429 597 -432 609 -432 c 256
 627 -432 639 -422 639 -399 c 258
EndSplineSet
PickledDataWithLists: "(dp1
S'com.schriftgestaltung.Glyphs.lastChange'
p2
S'2018-08-04 01:07:06 +0000'
p3
s."
EndChar

StartChar: sinCa
Encoding: 114 3488 114
GlifName: sinC_a
Width: 747
VWidth: 747
Flags: W
HStem: -34 137 1006 143 1080 143 1115 120 1246 124 1362 120 2031 143
VStem: 29 132 366 132 1533 135
LayerCount: 2
Fore
SplineSet
137 447 m 256
 173 447 209 441 237 428 c 257
 225 443 220 458 220 473 c 256
 220 506 246 535 294 535 c 256
 349 535 365 496 398 496 c 256
 411 496 418 484 418 472 c 256
 418 461 411 451 398 451 c 256
 354 451 341 484 308 492 c 256
 305 492 304 493 301 493 c 256
 283 493 268 481 268 465 c 256
 268 443 286 430 326 415 c 256
 343 408 353 399 353 387 c 256
 353 386 352 384 352 381 c 256
 349 369 340 364 328 364 c 258
 320 364 l 257
 302 368 284 373 266 373 c 258
 260 373 l 257
 193 369 146 309 146 234 c 256
 146 115 237 39 385 39 c 256
 558 39 640 199 640 336 c 256
 640 595 449 733 244 733 c 256
 200 733 157 726 113 713 c 256
 110 713 107 712 103 712 c 256
 87 712 77 724 77 736 c 256
 77 745 82 755 97 760 c 256
 146 777 195 785 244 785 c 256
 472 785 689 609 689 336 c 256
 689 163 591 -10 385 -10 c 256
 209 -10 99 81 99 234 c 256
 99 348 169 397 202 401 c 257
 189 404 177 403 166 403 c 256
 132 403 112 396 92 391 c 256
 88 391 86 390 83 390 c 256
 66 390 56 403 56 416 c 256
 56 446 104 447 137 447 c 256
EndSplineSet
PickledDataWithLists: "(dp1
S'com.schriftgestaltung.Glyphs.lastChange'
p2
S'2018-08-04 01:07:05 +0000'
p3
sS'com.fontlab.hintData'
p4
(dp5
S'vhints'
p6
(lp7
(dp8
S'position'
p9
I29
sS'width'
p10
I132
sa(dp11
g9
I366
sg10
I132
sa(dp12
g9
I1533
sg10
I135
sasS'hhints'
p13
(lp14
(dp15
g9
I-34
sg10
I137
sa(dp16
g9
I1006
sg10
I143
sa(dp17
g9
I1080
sg10
I143
sa(dp18
g9
I1115
sg10
I120
sa(dp19
g9
I1246
sg10
I124
sa(dp20
g9
I1362
sg10
I120
sa(dp21
g9
I2031
sg10
I143
sass."
EndChar

StartChar: sinCa.reph
Encoding: 115 -1 115
GlifName: sinC_a.reph
Width: 687
VWidth: 0
Flags: W
LayerCount: 2
Fore
SplineSet
108 447 m 256
 144 447 180 441 208 428 c 257
 196 443 191 458 191 473 c 256
 191 506 217 535 265 535 c 256
 320 535 336 496 369 496 c 256
 382 496 389 484 389 472 c 256
 389 461 382 451 369 451 c 256
 325 451 313 492 279 492 c 256
 276 492 275 493 272 493 c 256
 254 493 239 481 239 465 c 256
 239 443 257 431 297 415 c 256
 314 408 324 399 324 387 c 256
 324 386 324 384 323 381 c 256
 320 369 311 364 299 364 c 258
 291 364 l 257
 273 368 255 373 237 373 c 258
 231 373 l 257
 164 369 117 309 117 234 c 256
 117 115 208 39 356 39 c 256
 529 39 611 199 611 336 c 256
 611 627 426 788 258 780 c 256
 248 780 239 776 231 774 c 256
 228 773 225 773 221 773 c 256
 205 773 195 784 195 794 c 256
 195 803 200 813 215 818 c 256
 222 820 233 827 258 829 c 256
 452 847 660 636 660 336 c 256
 660 163 562 -10 356 -10 c 256
 180 -10 70 81 70 234 c 256
 70 348 140 397 173 401 c 257
 160 404 148 403 137 403 c 256
 103 403 84 391 63 391 c 256
 59 391 57 390 54 390 c 256
 37 390 27 403 27 416 c 256
 27 446 75 447 108 447 c 256
374 714 m 256
 374 630 295 581 220 581 c 256
 123 581 43 642 43 763 c 256
 43 886 139 970 282 970 c 256
 414 970 522 875 522 730 c 256
 522 693 515 655 500 610 c 256
 496 600 488 596 478 596 c 256
 467 596 455 603 455 618 c 256
 455 621 455 625 456 629 c 256
 468 666 474 700 474 730 c 256
 474 842 390 923 282 923 c 256
 172 923 90 862 90 763 c 256
 90 673 148 629 220 629 c 256
 272 629 327 663 327 714 c 256
 327 749 305 778 276 778 c 256
 261 778 251 775 245 771 c 257
 253 764 258 755 258 743 c 256
 258 725 246 705 220 705 c 256
 192 705 172 726 172 755 c 256
 172 800 210 829 262 829 c 256
 331 829 374 780 374 714 c 256
EndSplineSet
PickledDataWithLists: "(dp1
S'com.schriftgestaltung.Glyphs.lastChange'
p2
S'2018-08-04 01:07:05 +0000'
p3
s."
EndChar

StartChar: sinCh.virama
Encoding: 116 -1 116
GlifName: sinC_h.virama
Width: 742
VWidth: 742
Flags: W
HStem: -34 132 570 112 1028 116 1243 124 1360 123 2061 150
VStem: 79 132 395 121 859 137 933 116 1360 131 1434 107 1674 132
LayerCount: 2
Fore
SplineSet
681 247 m 256
 681 336 641 380 606 412 c 256
 583 433 545 435 524 432 c 257
 553 443 566 459 566 474 c 256
 566 534 429 541 429 596 c 256
 429 638 499 663 603 663 c 256
 624 663 634 676 634 691 c 256
 634 706 623 717 603 717 c 256
 468 717 379 675 379 597 c 256
 379 507 520 502 520 474 c 256
 520 460 492 452 459 441 c 256
 411 425 367 399 367 332 c 256
 367 269 417 229 480 229 c 256
 541 229 584 270 584 327 c 256
 584 349 577 375 553 391 c 257
 603 375 634 330 634 247 c 256
 634 119 517 39 369 39 c 256
 218 39 100 118 100 245 c 256
 100 331 135 393 202 393 c 258
 209 393 l 258
 227 393 245 391 263 385 c 256
 266 384 268 383 271 383 c 256
 284 383 295 390 297 402 c 256
 299 416 292 426 268 435 c 256
 228 450 210 462 210 486 c 256
 210 502 225 513 243 513 c 256
 246 513 248 512 251 511 c 256
 284 504 287 480 331 480 c 256
 346 480 351 491 351 503 c 256
 351 514 344 525 331 525 c 256
 299 525 291 556 240 556 c 256
 194 556 167 520 167 486 c 256
 167 466 174 450 194 435 c 257
 192 435 l 258
 102 435 52 346 52 245 c 256
 52 92 190 -9 369 -9 c 256
 545 -9 681 93 681 247 c 256
408 333 m 256
 408 373 438 391 476 391 c 256
 514 391 546 363 546 327 c 256
 546 290 516 269 480 269 c 256
 440 269 408 295 408 333 c 256
378 937 m 256
 378 860 378 784 378 707 c 256
 378 628 378 711 379 597 c 257
 424 593 l 257
 424 664 l 256
 424 773 l 257
 445 758 471 746 506 746 c 256
 566 746 611 800 611 867 c 256
 611 930 567 958 531 958 c 256
 502 958 486 934 453 934 c 256
 443 934 435 936 427 942 c 257
 427 959 419 972 403 972 c 256
 383 972 378 956 378 937 c 256
517 910 m 256
 539 910 560 899 560 860 c 256
 560 821 538 792 500 792 c 256
 465 792 440 808 425 823 c 257
 425 848 425 874 426 898 c 257
 433 894 443 890 457 890 c 256
 481 890 493 910 517 910 c 256
EndSplineSet
PickledDataWithLists: "(dp1
S'com.schriftgestaltung.Glyphs.lastChange'
p2
S'2018-08-04 01:07:06 +0000'
p3
sS'com.fontlab.hintData'
p4
(dp5
S'vhints'
p6
(lp7
(dp8
S'position'
p9
I79
sS'width'
p10
I132
sa(dp11
g9
I395
sg10
I121
sa(dp12
g9
I859
sg10
I137
sa(dp13
g9
I933
sg10
I116
sa(dp14
g9
I1360
sg10
I131
sa(dp15
g9
I1434
sg10
I107
sa(dp16
g9
I1674
sg10
I132
sasS'hhints'
p17
(lp18
(dp19
g9
I-34
sg10
I132
sa(dp20
g9
I570
sg10
I112
sa(dp21
g9
I1028
sg10
I116
sa(dp22
g9
I1243
sg10
I124
sa(dp23
g9
I1360
sg10
I123
sa(dp24
g9
I2061
sg10
I150
sass."
Ligature2: "sin_virama_1 subtable" sinCha sinVirama
EndChar

StartChar: sinChI
Encoding: 117 -1 117
GlifName: sinC_hI_
Width: 685
VWidth: 685
Flags: W
HStem: -12 48<272.5 421 272.5 434.5> 226 40<430.5 468 430.5 480.5> 390 42 467 45<301 323.5 301 324> 510 44 585 47<192.5 252.5 192.5 264.5> 922 49<287.5 351 269 418.5>
VStem: 29 48<169 272.5 169 278.5> 55 50<753 753> 143 44 337 41<311 350 311 362.5> 490 50<477 515> 516 38<305.5 333 295.5 341.5> 576 50<741 741> 605 47
LayerCount: 2
Fore
SplineSet
362 699 m 256
 348 708 332 692 323 677 c 256
 305 648 275 632 230 632 c 256
 155 632 103 678 105 753 c 256
 108 856 224 922 351 922 c 256
 486 922 577 857 576 741 c 256
 576 705 559 645 513 638 c 256
 492 634 471 644 457 664 c 256
 453 670 438 678 427 667 c 256
 420 660 419 646 423 638 c 256
 439 605 477 589 513 592 c 256
 597 598 627 687 626 741 c 256
 624 892 503 972 351 971 c 256
 187 971 57 889 55 753 c 256
 54 660 134 585 230 585 c 256
 299 585 347 631 365 666 c 256
 374 684 372 692 362 699 c 256
651 236 m 256
 656 339 609 431 514 441 c 257
 528 449 540 467 540 487 c 256
 540 590 358 552 358 637 c 256
 358 669 388 696 387 726 c 256
 387 739 382 756 363 756 c 256
 345 756 339 744 339 726 c 256
 339 681 310 676 310 633 c 256
 310 537 490 543 490 487 c 256
 490 466 463 450 429 438 c 256
 381 423 337 396 337 329 c 256
 337 266 387 226 450 226 c 256
 511 226 554 267 554 324 c 256
 554 342 548 366 540 377 c 257
 575 371 609 315 605 236 c 256
 599 107 493 36 349 36 c 256
 196 36 77 106 77 232 c 256
 77 313 120 380 185 390 c 256
 206 393 227 384 247 380 c 256
 259 378 271 387 271 399 c 256
 271 415 267 424 244 432 c 256
 205 446 186 460 186 483 c 256
 186 499 201 510 219 510 c 256
 259 510 270 467 317 467 c 256
 331 467 337 478 337 490 c 256
 337 500 330 512 317 512 c 256
 285 512 268 553 216 553 c 256
 170 553 143 518 143 483 c 256
 143 464 150 446 170 432 c 257
 74 414 29 325 29 232 c 256
 29 79 168 -12 349 -12 c 256
 520 -12 644 81 651 236 c 256
378 330 m 256
 378 370 408 388 446 388 c 256
 484 388 516 359 516 324 c 256
 516 287 486 266 450 266 c 256
 411 266 378 292 378 330 c 256
EndSplineSet
PickledDataWithLists: "(dp1
S'com.schriftgestaltung.Glyphs.lastChange'
p2
S'2018-08-08 10:25:25 +0000'
p3
sS'com.fontlab.hintData'
p4
(dp5
S'vhints'
p6
(lp7
(dp8
S'position'
p9
I29
sS'width'
p10
I48
sa(dp11
g9
I55
sg10
I50
sa(dp12
g9
I143
sg10
I44
sa(dp13
g9
I337
sg10
I41
sa(dp14
g9
I490
sg10
I50
sa(dp15
g9
I516
sg10
I38
sa(dp16
g9
I576
sg10
I50
sa(dp17
g9
I605
sg10
I47
sasS'hhints'
p18
(lp19
(dp20
g9
I-12
sg10
I48
sa(dp21
g9
I226
sg10
I40
sa(dp22
g9
I390
sg10
I42
sa(dp23
g9
I467
sg10
I45
sa(dp24
g9
I510
sg10
I44
sa(dp25
g9
I585
sg10
I47
sa(dp26
g9
I922
sg10
I49
sass."
Ligature2: "sin_abvs subtable" sinCha sinMatraI
EndChar

StartChar: sinChIi
Encoding: 118 -1 118
GlifName: sinC_hI_i
Width: 685
VWidth: 685
Flags: W
HStem: -12 48<272.5 421 272.5 434.5> 390 42 467 45<301 323.5 301 324> 510 44 585 47<196.5 246 196.5 259.5> 743 46<502 531 488 534.5> 922 49<352 352>
VStem: 29 48<169 272.5 169 278.5> 55 50 143 44 339 48<726 732.5 726 735> 419 46<676 707 676 718.5> 490 50<477 515> 575 61<675.5 739> 605 47
LayerCount: 2
Fore
SplineSet
465 692 m 256
 465 722 487 743 517 743 c 256
 552 743 575 722 575 692 c 256
 575 659 549 640 517 640 c 256
 487 640 465 660 465 692 c 256
585 762 m 257
 572 779 545 789 517 789 c 256
 459 789 419 743 419 694 c 256
 419 628 465 592 522 592 c 256
 609 592 636 685 636 739 c 256
 635 900 501 970 352 971 c 256
 194 972 56 890 55 756 c 256
 54 648 146 585 230 585 c 256
 289 585 339 620 364 664 c 256
 370 674 376 687 363 698 c 256
 355 705 340 704 331 688 c 256
 303 639 262 632 230 632 c 256
 163 632 101 665 105 760 c 256
 110 866 243 924 352 922 c 256
 473 920 572 876 585 762 c 257
651 236 m 256
 656 339 609 431 514 441 c 257
 528 449 540 467 540 487 c 256
 540 590 358 552 358 637 c 256
 358 669 388 696 387 726 c 256
 387 739 382 756 363 756 c 256
 345 756 339 744 339 726 c 256
 339 681 310 676 310 633 c 256
 310 537 490 543 490 487 c 256
 490 466 463 450 429 438 c 256
 381 423 337 396 337 329 c 256
 337 266 387 226 450 226 c 256
 511 226 554 267 554 324 c 256
 554 342 548 366 540 377 c 257
 575 371 609 315 605 236 c 256
 599 107 493 36 349 36 c 256
 196 36 77 106 77 232 c 256
 77 313 120 380 185 390 c 256
 206 393 227 384 247 380 c 256
 259 378 271 387 271 399 c 256
 271 415 267 424 244 432 c 256
 205 446 186 460 186 483 c 256
 186 499 201 510 219 510 c 256
 259 510 270 467 317 467 c 256
 331 467 337 478 337 490 c 256
 337 500 330 512 317 512 c 256
 285 512 268 553 216 553 c 256
 170 553 143 518 143 483 c 256
 143 464 150 446 170 432 c 257
 74 414 29 325 29 232 c 256
 29 79 168 -12 349 -12 c 256
 520 -12 644 81 651 236 c 256
392 369 m 256
 419 397 475 392 500 365 c 256
 519 343 522 307 502 286 c 256
 476 258 422 260 396 286 c 256
 375 307 371 347 392 369 c 256
EndSplineSet
PickledDataWithLists: "(dp1
S'com.schriftgestaltung.Glyphs.lastChange'
p2
S'2018-08-04 01:07:06 +0000'
p3
sS'com.fontlab.hintData'
p4
(dp5
S'vhints'
p6
(lp7
(dp8
S'position'
p9
I29
sS'width'
p10
I48
sa(dp11
g9
I55
sg10
I50
sa(dp12
g9
I143
sg10
I44
sa(dp13
g9
I339
sg10
I48
sa(dp14
g9
I419
sg10
I46
sa(dp15
g9
I490
sg10
I50
sa(dp16
g9
I575
sg10
I61
sa(dp17
g9
I605
sg10
I47
sasS'hhints'
p18
(lp19
(dp20
g9
I-12
sg10
I48
sa(dp21
g9
I390
sg10
I42
sa(dp22
g9
I467
sg10
I45
sa(dp23
g9
I510
sg10
I44
sa(dp24
g9
I585
sg10
I47
sa(dp25
g9
I743
sg10
I46
sa(dp26
g9
I922
sg10
I49
sass."
Ligature2: "sin_abvs subtable" sinCha sinMatraIi
EndChar

StartChar: sinChR.virama
Encoding: 119 -1 119
GlifName: sinC_hR_.virama
Width: 683
VWidth: 0
Flags: W
LayerCount: 2
Fore
SplineSet
656 247 m 256
 656 336 616 380 581 412 c 256
 558 433 520 435 499 432 c 257
 528 443 541 459 541 474 c 256
 541 534 404 541 404 596 c 256
 404 638 458 663 538 663 c 256
 559 663 569 676 569 691 c 256
 569 706 558 717 538 717 c 256
 427 717 354 675 354 597 c 256
 354 507 495 502 495 474 c 256
 495 460 467 452 434 441 c 256
 386 425 342 399 342 332 c 256
 342 269 392 229 455 229 c 256
 516 229 559 270 559 327 c 256
 559 349 552 375 528 391 c 257
 578 375 609 330 609 247 c 256
 609 119 492 39 344 39 c 256
 193 39 75 118 75 245 c 256
 75 331 110 393 177 393 c 258
 184 393 l 258
 202 393 220 391 238 385 c 256
 241 384 243 383 246 383 c 256
 259 383 270 390 272 402 c 256
 274 416 267 426 243 435 c 256
 203 450 185 462 185 486 c 256
 185 502 200 513 218 513 c 256
 221 513 223 512 226 511 c 256
 259 504 262 480 306 480 c 256
 321 480 326 491 326 503 c 256
 326 514 319 525 306 525 c 256
 274 525 266 556 215 556 c 256
 169 556 142 520 142 486 c 256
 142 466 149 450 169 435 c 257
 167 435 l 258
 77 435 27 346 27 245 c 256
 27 92 165 -9 344 -9 c 256
 520 -9 656 93 656 247 c 256
383 333 m 256
 383 373 413 391 451 391 c 256
 489 391 521 363 521 327 c 256
 521 290 491 269 455 269 c 256
 415 269 383 295 383 333 c 256
353 937 m 256
 353 860 353 784 353 707 c 256
 353 628 353 711 354 597 c 257
 399 593 l 257
 399 664 l 256
 399 773 l 257
 420 758 446 746 481 746 c 256
 541 746 586 800 586 867 c 256
 586 930 542 958 506 958 c 256
 477 958 461 934 428 934 c 256
 418 934 410 936 402 942 c 257
 402 959 394 972 378 972 c 256
 358 972 353 956 353 937 c 256
492 910 m 256
 514 910 535 899 535 860 c 256
 535 821 513 792 475 792 c 256
 440 792 415 808 400 823 c 257
 400 848 400 874 401 898 c 257
 408 894 418 890 432 890 c 256
 456 890 468 910 492 910 c 256
597 -174 m 256
 609 -113 610 -64 606 -25 c 256
 604 -3 593 4 577 0 c 256
 564 -3 559 -17 561 -37 c 256
 564 -64 567 -112 551 -176 c 256
 519 -306 396 -386 259 -386 c 256
 243 -386 225 -386 206 -383 c 256
 187 -380 175 -384 172 -398 c 256
 169 -411 174 -425 195 -430 c 256
 212 -434 238 -434 256 -434 c 256
 421 -432 566 -332 597 -174 c 256
EndSplineSet
PickledDataWithLists: "(dp1
S'com.schriftgestaltung.Glyphs.lastChange'
p2
S'2018-08-04 01:07:06 +0000'
p3
s."
EndChar

StartChar: sinChRI
Encoding: 120 -1 120
GlifName: sinC_hR_I_
Width: 676
VWidth: 0
Flags: W
LayerCount: 2
Fore
SplineSet
376 330 m 256
 376 292 408 266 448 266 c 256
 484 266 514 287 514 324 c 256
 514 360 482 388 444 388 c 256
 406 388 376 370 376 330 c 256
493 657 m 256
 540 657 554 706 554 740 c 256
 554 856 472 922 349 922 c 256
 237 922 133 856 133 752 c 256
 133 690 176 652 238 652 c 256
 299 652 337 669 337 726 c 256
 337 744 343 756 361 756 c 256
 381 756 385 738 385 724 c 256
 385 694 356 670 356 637 c 256
 356 552 538 590 538 487 c 256
 538 467 526 449 512 441 c 257
 602 431 649 348 649 251 c 256
 649 85 522 -12 347 -12 c 256
 166 -12 27 79 27 232 c 256
 27 320 72 405 168 422 c 257
 148 437 141 453 141 473 c 256
 141 507 168 543 214 543 c 256
 265 543 283 502 315 502 c 256
 328 502 335 491 335 480 c 256
 335 468 330 457 315 457 c 256
 268 457 257 500 217 500 c 256
 199 500 184 489 184 473 c 256
 184 448 201 434 241 419 c 256
 264 412 272 401 269 389 c 256
 266 377 261 373 249 373 c 256
 236 373 223 382 192 382 c 256
 189 382 186 381 183 381 c 256
 111 370 75 308 75 232 c 256
 75 105 194 36 347 36 c 256
 495 36 603 110 603 249 c 256
 603 321 571 371 538 377 c 257
 546 366 552 343 552 324 c 256
 552 267 509 226 448 226 c 256
 385 226 335 266 335 329 c 256
 335 396 379 422 427 438 c 256
 461 449 488 466 488 487 c 256
 488 540 325 537 309 620 c 257
 289 611 265 605 238 605 c 256
 154 605 83 671 83 754 c 256
 83 889 202 971 349 971 c 256
 490 971 604 892 604 738 c 256
 604 689 574 612 493 612 c 256
 464 612 438 626 422 648 c 256
 417 655 419 670 426 677 c 256
 437 688 452 680 456 674 c 256
 463 662 479 657 493 657 c 256
597 -174 m 256
 609 -113 610 -64 606 -25 c 256
 604 -3 593 4 577 0 c 256
 564 -3 559 -17 561 -37 c 256
 564 -64 567 -112 551 -176 c 256
 519 -306 396 -386 259 -386 c 256
 243 -386 225 -386 206 -383 c 256
 187 -380 175 -384 172 -398 c 256
 169 -411 174 -425 195 -430 c 256
 212 -434 238 -434 256 -434 c 256
 421 -432 566 -332 597 -174 c 256
EndSplineSet
PickledDataWithLists: "(dp1
S'com.schriftgestaltung.Glyphs.lastChange'
p2
S'2018-08-04 01:07:06 +0000'
p3
s."
EndChar

StartChar: sinChRIi
Encoding: 121 -1 121
GlifName: sinC_hR_I_i
Width: 676
VWidth: 0
Flags: W
LayerCount: 2
Fore
SplineSet
376 331 m 256
 376 291 409 266 448 266 c 256
 482 266 514 287 514 323 c 256
 514 363 479 388 440 388 c 256
 406 388 376 367 376 331 c 256
228 652 m 256
 267 652 317 670 317 726 c 256
 317 744 323 756 341 756 c 256
 361 756 365 739 365 725 c 256
 365 695 336 670 336 637 c 256
 336 552 538 590 538 487 c 256
 538 467 526 449 512 441 c 257
 602 431 649 348 649 251 c 256
 649 85 522 -12 347 -12 c 256
 166 -12 27 79 27 232 c 256
 27 320 72 405 168 422 c 257
 148 437 141 453 141 473 c 256
 141 507 168 543 214 543 c 256
 265 543 283 502 315 502 c 256
 328 502 335 491 335 480 c 256
 335 468 330 457 315 457 c 256
 268 457 257 500 217 500 c 256
 199 500 184 489 184 473 c 256
 184 448 201 434 242 420 c 256
 264 412 272 400 269 389 c 256
 266 379 259 374 246 374 c 256
 229 374 220 383 192 383 c 256
 120 383 75 307 75 232 c 256
 75 105 194 36 347 36 c 256
 495 36 603 110 603 249 c 256
 603 321 571 371 538 377 c 257
 546 366 552 343 552 324 c 256
 552 267 509 226 448 226 c 256
 385 226 335 266 335 329 c 256
 335 396 379 422 427 438 c 256
 461 449 488 466 488 487 c 256
 488 540 309 538 290 619 c 257
 272 610 250 605 228 605 c 256
 158 605 83 660 83 754 c 256
 83 889 206 971 347 971 c 256
 486 971 614 907 614 759 c 256
 614 705 587 612 500 612 c 256
 443 612 397 648 397 714 c 256
 397 763 437 809 495 809 c 256
 523 809 550 799 563 782 c 257
 551 883 457 922 345 922 c 256
 248 922 133 863 133 753 c 256
 133 678 179 652 228 652 c 256
443 712 m 256
 443 680 465 660 495 660 c 256
 528 660 553 679 553 712 c 256
 553 742 530 763 495 763 c 256
 465 763 443 742 443 712 c 256
597 -174 m 256
 609 -113 610 -64 606 -25 c 256
 604 -3 593 4 577 0 c 256
 564 -3 559 -17 561 -37 c 256
 564 -64 567 -112 551 -176 c 256
 519 -306 396 -386 259 -386 c 256
 243 -386 225 -386 206 -383 c 256
 187 -380 175 -384 172 -398 c 256
 169 -411 174 -425 195 -430 c 256
 212 -434 238 -434 256 -434 c 256
 421 -432 566 -332 597 -174 c 256
EndSplineSet
PickledDataWithLists: "(dp1
S'com.schriftgestaltung.Glyphs.lastChange'
p2
S'2018-08-04 01:07:06 +0000'
p3
s."
EndChar

StartChar: sinChRa
Encoding: 122 -1 122
GlifName: sinC_hR_a
Width: 683
VWidth: 0
Flags: W
LayerCount: 2
Fore
SplineSet
597 -174 m 256
 609 -113 610 -64 606 -25 c 256
 604 -3 593 4 577 0 c 256
 564 -3 559 -17 561 -37 c 256
 564 -64 567 -112 551 -176 c 256
 519 -306 396 -386 259 -386 c 256
 243 -386 225 -386 206 -383 c 256
 187 -380 175 -384 172 -398 c 256
 169 -411 174 -425 195 -430 c 256
 212 -434 238 -434 256 -434 c 256
 421 -432 566 -332 597 -174 c 256
EndSplineSet
Refer: 127 3489 N 1 0 0 1 0 0 2
PickledDataWithLists: "(dp1
S'com.schriftgestaltung.Glyphs.lastChange'
p2
S'2018-08-04 01:07:06 +0000'
p3
s."
EndChar

StartChar: sinChU
Encoding: 123 -1 123
GlifName: sinC_hU_
Width: 742
VWidth: 742
Flags: W
HStem: -432 48<251 531> -34 132 570 112 1028 116 1243 124 1360 123 2061 150
VStem: 79 132 395 121 555 48 859 137 933 116 1360 131 1434 107 1674 132
LayerCount: 2
Fore
SplineSet
562 -432 m 258
 585 -432 602 -420 602 -397 c 258
 602 93 l 257
 555 93 l 257
 555 -353 l 258
 555 -374 550 -384 531 -384 c 258
 251 -384 l 258
 162 -384 120 -348 111 -274 c 256
 102 -196 122 -127 160 -46 c 256
 167 -30 155 -11 142 -11 c 256
 133 -11 123 -16 118 -26 c 256
 77 -106 55 -195 63 -274 c 256
 73 -366 131 -432 251 -432 c 258
 562 -432 l 258
EndSplineSet
Refer: 127 3489 N 1 0 0 1 0 0 2
PickledDataWithLists: "(dp1
S'com.schriftgestaltung.Glyphs.lastChange'
p2
S'2018-08-04 01:07:06 +0000'
p3
sS'com.fontlab.hintData'
p4
(dp5
S'vhints'
p6
(lp7
(dp8
S'position'
p9
I79
sS'width'
p10
I132
sa(dp11
g9
I395
sg10
I121
sa(dp12
g9
I555
sg10
I48
sa(dp13
g9
I859
sg10
I137
sa(dp14
g9
I933
sg10
I116
sa(dp15
g9
I1360
sg10
I131
sa(dp16
g9
I1434
sg10
I107
sa(dp17
g9
I1674
sg10
I132
sasS'hhints'
p18
(lp19
(dp20
g9
I-432
sg10
I48
sa(dp21
g9
I-34
sg10
I132
sa(dp22
g9
I570
sg10
I112
sa(dp23
g9
I1028
sg10
I116
sa(dp24
g9
I1243
sg10
I124
sa(dp25
g9
I1360
sg10
I123
sa(dp26
g9
I2061
sg10
I150
sass."
Ligature2: "sin_blws subtable" sinCha sinMatraU
EndChar

StartChar: sinChU.reph
Encoding: 124 -1 124
GlifName: sinC_hU_.reph
Width: 683
VWidth: 0
Flags: W
LayerCount: 2
Fore
SplineSet
594 -432 m 258
 617 -432 634 -420 634 -397 c 258
 634 155 l 257
 587 155 l 257
 587 -353 l 258
 587 -374 582 -384 563 -384 c 258
 283 -384 l 258
 194 -384 152 -348 143 -274 c 256
 134 -204 154 -142 192 -69 c 256
 199 -53 187 -34 174 -34 c 256
 165 -34 155 -39 150 -49 c 256
 109 -122 87 -202 95 -274 c 256
 105 -366 163 -432 283 -432 c 258
 594 -432 l 258
656 247 m 256
 656 347 620 401 581 432 c 256
 555 453 512 455 489 452 c 257
 525 467 541 489 541 510 c 256
 541 593 424 643 424 721 c 256
 424 780 486 815 578 815 c 256
 599 815 609 828 609 843 c 256
 609 858 598 869 578 869 c 256
 455 869 374 817 374 722 c 256
 374 620 495 565 495 510 c 256
 495 489 468 472 434 461 c 256
 386 445 342 419 342 352 c 256
 342 289 392 249 455 249 c 256
 516 249 559 290 559 347 c 256
 559 369 552 395 528 411 c 257
 578 393 609 342 609 247 c 256
 609 119 492 39 344 39 c 256
 193 39 75 118 75 245 c 256
 75 331 110 393 177 393 c 258
 184 393 l 258
 202 393 220 391 238 385 c 256
 241 384 243 383 246 383 c 256
 259 383 270 390 272 402 c 256
 274 416 267 426 243 435 c 256
 203 450 185 462 185 486 c 256
 185 502 200 513 218 513 c 256
 221 513 223 512 226 511 c 256
 259 504 262 480 306 480 c 256
 321 480 326 491 326 503 c 256
 326 514 319 525 306 525 c 256
 274 525 266 556 215 556 c 256
 169 556 142 520 142 486 c 256
 142 466 149 450 169 435 c 257
 167 435 l 258
 77 435 27 346 27 245 c 256
 27 92 165 -9 344 -9 c 256
 520 -9 656 93 656 247 c 256
383 353 m 256
 383 393 413 411 451 411 c 256
 489 411 521 383 521 347 c 256
 521 310 491 289 455 289 c 256
 415 289 383 315 383 353 c 256
423 714 m 256
 423 780 380 829 311 829 c 256
 259 829 221 800 221 755 c 256
 221 726 241 705 269 705 c 256
 295 705 307 725 307 743 c 256
 307 755 302 764 294 771 c 257
 300 775 310 778 325 778 c 256
 353 778 374 749 374 714 c 256
 374 663 321 629 269 629 c 256
 197 629 139 673 139 763 c 256
 139 862 221 923 331 923 c 256
 439 923 523 842 523 730 c 256
 523 700 517 666 505 629 c 256
 504 625 504 621 504 618 c 256
 504 603 516 596 527 596 c 256
 537 596 545 600 549 610 c 256
 564 655 571 693 571 730 c 256
 571 875 463 970 331 970 c 256
 188 970 92 886 92 763 c 256
 92 642 172 581 269 581 c 256
 344 581 423 630 423 714 c 256
EndSplineSet
PickledDataWithLists: "(dp1
S'com.schriftgestaltung.Glyphs.lastChange'
p2
S'2018-08-04 01:07:06 +0000'
p3
s."
EndChar

StartChar: sinChUu
Encoding: 125 -1 125
GlifName: sinC_hU_u
Width: 742
VWidth: 742
Flags: W
HStem: -432 48<200.5 266.5 200.5 290> -34 132 570 112 1028 116 1243 124 1360 123 2061 150
VStem: 79 132 373 37<-307 -286.5 -321.5 -262.5 -321.5 -209> 395 121 859 137 933 116 1360 131 1434 107 1674 132
LayerCount: 2
Fore
SplineSet
629 -399 m 258
 629 148 l 257
 582 148 l 257
 582 -362 l 257
 564 -328 452 -247 432 -224 c 256
 413 -203 406 -189 393 -189 c 256
 382 -189 373 -197 373 -209 c 256
 373 -228 373 -254 373 -271 c 256
 373 -343 301 -384 232 -384 c 256
 169 -384 110 -348 97 -278 c 256
 82 -195 112 -117 157 -40 c 256
 159 -36 160 -32 160 -29 c 256
 160 -16 147 -7 133 -7 c 256
 127 -7 119 -11 115 -19 c 256
 74 -95 37 -191 50 -278 c 256
 63 -367 139 -432 232 -432 c 256
 348 -432 410 -354 410 -289 c 256
 410 -284 410 -275 409 -268 c 257
 433 -294 520 -344 558 -409 c 256
 570 -429 587 -432 599 -432 c 256
 617 -432 629 -422 629 -399 c 258
EndSplineSet
Refer: 127 3489 N 1 0 0 1 0 0 2
PickledDataWithLists: "(dp1
S'com.schriftgestaltung.Glyphs.lastChange'
p2
S'2018-08-04 01:07:06 +0000'
p3
sS'com.fontlab.hintData'
p4
(dp5
S'vhints'
p6
(lp7
(dp8
S'position'
p9
I79
sS'width'
p10
I132
sa(dp11
g9
I373
sg10
I37
sa(dp12
g9
I395
sg10
I121
sa(dp13
g9
I859
sg10
I137
sa(dp14
g9
I933
sg10
I116
sa(dp15
g9
I1360
sg10
I131
sa(dp16
g9
I1434
sg10
I107
sa(dp17
g9
I1674
sg10
I132
sasS'hhints'
p18
(lp19
(dp20
g9
I-432
sg10
I48
sa(dp21
g9
I-34
sg10
I132
sa(dp22
g9
I570
sg10
I112
sa(dp23
g9
I1028
sg10
I116
sa(dp24
g9
I1243
sg10
I124
sa(dp25
g9
I1360
sg10
I123
sa(dp26
g9
I2061
sg10
I150
sass."
Ligature2: "sin_blws subtable" sinCha sinMatraUu
EndChar

StartChar: sinChUu.reph
Encoding: 126 -1 126
GlifName: sinC_hU_u.reph
Width: 683
VWidth: 0
Flags: W
LayerCount: 2
Fore
SplineSet
634 -399 m 258
 634 154 l 257
 587 154 l 257
 587 -362 l 257
 569 -328 458 -247 437 -224 c 256
 418 -203 411 -189 398 -189 c 256
 387 -189 378 -197 378 -209 c 256
 378 -228 378 -254 378 -271 c 256
 378 -343 306 -384 237 -384 c 256
 174 -384 115 -348 102 -278 c 256
 88 -197 116 -122 161 -47 c 256
 163 -43 164 -39 164 -36 c 256
 164 -23 151 -14 137 -14 c 256
 131 -14 123 -18 119 -26 c 256
 78 -100 43 -193 55 -278 c 256
 68 -367 144 -432 237 -432 c 256
 353 -432 415 -354 415 -289 c 256
 415 -284 415 -275 414 -268 c 257
 438 -294 524 -345 563 -409 c 256
 575 -429 592 -432 604 -432 c 256
 622 -432 634 -422 634 -399 c 258
656 247 m 256
 656 347 620 401 581 432 c 256
 555 453 512 455 489 452 c 257
 525 467 541 489 541 510 c 256
 541 593 424 643 424 721 c 256
 424 780 486 815 578 815 c 256
 599 815 609 828 609 843 c 256
 609 858 598 869 578 869 c 256
 455 869 374 817 374 722 c 256
 374 620 495 565 495 510 c 256
 495 489 468 472 434 461 c 256
 386 445 342 419 342 352 c 256
 342 289 392 249 455 249 c 256
 516 249 559 290 559 347 c 256
 559 369 552 395 528 411 c 257
 578 393 609 342 609 247 c 256
 609 119 492 39 344 39 c 256
 193 39 75 118 75 245 c 256
 75 331 110 393 177 393 c 258
 184 393 l 258
 202 393 220 391 238 385 c 256
 241 384 243 383 246 383 c 256
 259 383 270 390 272 402 c 256
 274 416 267 426 243 435 c 256
 203 450 185 462 185 486 c 256
 185 502 200 513 218 513 c 256
 221 513 223 512 226 511 c 256
 259 504 262 480 306 480 c 256
 321 480 326 491 326 503 c 256
 326 514 319 525 306 525 c 256
 274 525 266 556 215 556 c 256
 169 556 142 520 142 486 c 256
 142 466 149 450 169 435 c 257
 167 435 l 258
 77 435 27 346 27 245 c 256
 27 92 165 -9 344 -9 c 256
 520 -9 656 93 656 247 c 256
383 353 m 256
 383 393 413 411 451 411 c 256
 489 411 521 383 521 347 c 256
 521 310 491 289 455 289 c 256
 415 289 383 315 383 353 c 256
423 714 m 256
 423 780 380 829 311 829 c 256
 259 829 221 800 221 755 c 256
 221 726 241 705 269 705 c 256
 295 705 307 725 307 743 c 256
 307 755 302 764 294 771 c 257
 300 775 310 778 325 778 c 256
 353 778 374 749 374 714 c 256
 374 663 321 629 269 629 c 256
 197 629 139 673 139 763 c 256
 139 862 221 923 331 923 c 256
 439 923 523 842 523 730 c 256
 523 700 517 666 505 629 c 256
 504 625 504 621 504 618 c 256
 504 603 516 596 527 596 c 256
 537 596 545 600 549 610 c 256
 564 655 571 693 571 730 c 256
 571 875 463 970 331 970 c 256
 188 970 92 886 92 763 c 256
 92 642 172 581 269 581 c 256
 344 581 423 630 423 714 c 256
EndSplineSet
PickledDataWithLists: "(dp1
S'com.schriftgestaltung.Glyphs.lastChange'
p2
S'2018-08-04 01:07:06 +0000'
p3
s."
EndChar

StartChar: sinCha
Encoding: 127 3489 127
GlifName: sinC_ha
Width: 742
VWidth: 742
Flags: W
HStem: -34 132 570 112 1028 116 1243 124 1360 123 2061 150
VStem: 79 132 395 121 859 137 933 116 1360 131 1434 107 1674 132
LayerCount: 2
Fore
SplineSet
681 247 m 256
 681 347 645 401 606 432 c 256
 580 453 537 455 514 452 c 257
 550 467 566 489 566 510 c 256
 566 593 389 643 389 721 c 256
 389 780 459 815 563 815 c 256
 584 815 594 828 594 843 c 256
 594 858 583 869 563 869 c 256
 428 869 339 817 339 722 c 256
 339 620 520 565 520 510 c 256
 520 489 493 472 459 461 c 256
 411 445 367 419 367 352 c 256
 367 289 417 249 480 249 c 256
 541 249 584 290 584 347 c 256
 584 369 577 395 553 411 c 257
 603 393 634 342 634 247 c 256
 634 119 517 39 369 39 c 256
 218 39 100 118 100 245 c 256
 100 331 135 393 202 393 c 258
 209 393 l 258
 227 393 246 393 263 385 c 256
 266 384 268 383 271 383 c 256
 284 383 295 390 297 402 c 256
 299 416 292 427 268 435 c 256
 228 450 210 462 210 486 c 256
 210 502 225 513 243 513 c 256
 246 513 248 512 251 511 c 256
 284 504 287 480 331 480 c 256
 346 480 351 491 351 503 c 256
 351 514 344 525 331 525 c 256
 299 525 291 556 240 556 c 256
 194 556 167 520 167 486 c 256
 167 466 174 450 194 435 c 257
 192 435 l 258
 102 435 52 346 52 245 c 256
 52 92 190 -9 369 -9 c 256
 545 -9 681 93 681 247 c 256
408 353 m 256
 408 393 438 411 476 411 c 256
 514 411 546 383 546 347 c 256
 546 310 516 289 480 289 c 256
 440 289 408 315 408 353 c 256
EndSplineSet
PickledDataWithLists: "(dp1
S'com.schriftgestaltung.Glyphs.lastChange'
p2
S'2018-08-04 01:07:05 +0000'
p3
sS'com.fontlab.hintData'
p4
(dp5
S'vhints'
p6
(lp7
(dp8
S'position'
p9
I79
sS'width'
p10
I132
sa(dp11
g9
I395
sg10
I121
sa(dp12
g9
I859
sg10
I137
sa(dp13
g9
I933
sg10
I116
sa(dp14
g9
I1360
sg10
I131
sa(dp15
g9
I1434
sg10
I107
sa(dp16
g9
I1674
sg10
I132
sasS'hhints'
p17
(lp18
(dp19
g9
I-34
sg10
I132
sa(dp20
g9
I570
sg10
I112
sa(dp21
g9
I1028
sg10
I116
sa(dp22
g9
I1243
sg10
I124
sa(dp23
g9
I1360
sg10
I123
sa(dp24
g9
I2061
sg10
I150
sass."
EndChar

StartChar: sinCha.reph
Encoding: 128 -1 128
GlifName: sinC_ha.reph
Width: 683
VWidth: 0
Flags: W
LayerCount: 2
Fore
SplineSet
656 247 m 256
 656 347 620 401 581 432 c 256
 555 453 512 455 489 452 c 257
 525 467 541 489 541 510 c 256
 541 593 424 643 424 721 c 256
 424 780 486 815 578 815 c 256
 599 815 609 828 609 843 c 256
 609 858 598 869 578 869 c 256
 455 869 374 817 374 722 c 256
 374 620 495 565 495 510 c 256
 495 489 468 472 434 461 c 256
 386 445 342 419 342 352 c 256
 342 289 392 249 455 249 c 256
 516 249 559 290 559 347 c 256
 559 369 552 395 528 411 c 257
 578 393 609 342 609 247 c 256
 609 119 492 39 344 39 c 256
 193 39 75 118 75 245 c 256
 75 331 110 393 177 393 c 258
 184 393 l 258
 202 393 220 391 238 385 c 256
 241 384 243 383 246 383 c 256
 259 383 270 390 272 402 c 256
 274 416 267 426 243 435 c 256
 203 450 185 462 185 486 c 256
 185 502 200 513 218 513 c 256
 221 513 223 512 226 511 c 256
 259 504 262 480 306 480 c 256
 321 480 326 491 326 503 c 256
 326 514 319 525 306 525 c 256
 274 525 266 556 215 556 c 256
 169 556 142 520 142 486 c 256
 142 466 149 450 169 435 c 257
 167 435 l 258
 77 435 27 346 27 245 c 256
 27 92 165 -9 344 -9 c 256
 520 -9 656 93 656 247 c 256
383 353 m 256
 383 393 413 411 451 411 c 256
 489 411 521 383 521 347 c 256
 521 310 491 289 455 289 c 256
 415 289 383 315 383 353 c 256
423 714 m 256
 423 780 380 829 311 829 c 256
 259 829 221 800 221 755 c 256
 221 726 241 705 269 705 c 256
 295 705 307 725 307 743 c 256
 307 755 302 764 294 771 c 257
 300 775 310 778 325 778 c 256
 353 778 374 749 374 714 c 256
 374 663 321 629 269 629 c 256
 197 629 139 673 139 763 c 256
 139 862 221 923 331 923 c 256
 439 923 523 842 523 730 c 256
 523 700 517 666 505 629 c 256
 504 625 504 621 504 618 c 256
 504 603 516 596 527 596 c 256
 537 596 545 600 549 610 c 256
 564 655 571 693 571 730 c 256
 571 875 463 970 331 970 c 256
 188 970 92 886 92 763 c 256
 92 642 172 581 269 581 c 256
 344 581 423 630 423 714 c 256
EndSplineSet
PickledDataWithLists: "(dp1
S'com.schriftgestaltung.Glyphs.lastChange'
p2
S'2018-08-04 01:07:05 +0000'
p3
s."
EndChar

StartChar: sinDI
Encoding: 140 -1 140
GlifName: sinD_I_
Width: 603
VWidth: 603
Flags: W
HStem: -34 132 497 38 998 129 1269 144 1364 132
VStem: 89 44<770 770> 101 132 1120 125 1217 124
LayerCount: 2
Fore
SplineSet
472 520 m 256
 477 534 471 534 463 535 c 256
 239 572 131 675 133 770 c 256
 135 889 228 934 334 924 c 256
 427 915 496 866 490 779 c 256
 484 702 444 675 404 670 c 256
 384 667 366 674 338 692 c 256
 334 695 330 698 323 698 c 256
 313 698 305 691 305 680 c 256
 305 674 307 667 311 662 c 256
 334 633 370 621 404 625 c 256
 461 632 531 665 536 779 c 256
 541 904 450 961 334 972 c 256
 206 983 82 918 89 770 c 256
 95 630 215 549 411 497 c 256
 431 492 467 506 472 520 c 256
EndSplineSet
Refer: 162 3503 N 1 0 0 1 0 0 2
PickledDataWithLists: "(dp1
S'com.schriftgestaltung.Glyphs.lastChange'
p2
S'2018-08-04 01:07:06 +0000'
p3
sS'com.fontlab.hintData'
p4
(dp5
S'vhints'
p6
(lp7
(dp8
S'position'
p9
I89
sS'width'
p10
I44
sa(dp11
g9
I101
sg10
I132
sa(dp12
g9
I1120
sg10
I125
sa(dp13
g9
I1217
sg10
I124
sasS'hhints'
p14
(lp15
(dp16
g9
I-34
sg10
I132
sa(dp17
g9
I497
sg10
I38
sa(dp18
g9
I998
sg10
I129
sa(dp19
g9
I1269
sg10
I144
sa(dp20
g9
I1364
sg10
I132
sass."
Ligature2: "sin_abvs subtable" sinDa sinMatraI
EndChar

StartChar: sinDIi
Encoding: 141 -1 141
GlifName: sinD_I_i
Width: 603
VWidth: 603
Flags: W
HStem: -34 132 498 38 998 129 1269 144 1364 132
VStem: 86 48<778 778> 101 132 491 45 1120 125 1217 124
LayerCount: 2
Fore
SplineSet
460 508 m 256
 475 520 478 532 461 536 c 256
 323 566 127 626 134 778 c 256
 139 892 226 931 320 924 c 256
 434 917 491 852 491 764 c 256
 491 698 458 671 419 641 c 257
 428 654 435 664 440 678 c 256
 458 726 438 778 381 799 c 256
 327 819 274 789 257 743 c 256
 232 675 270 629 330 607 c 256
 406 579 537 619 536 770 c 256
 535 898 450 964 320 972 c 256
 196 980 89 917 86 778 c 256
 84 616 234 553 408 498 c 256
 424 493 450 500 460 508 c 256
299 725 m 256
 310 753 337 766 365 755 c 256
 396 744 409 717 398 688 c 256
 387 657 358 648 330 659 c 256
 301 669 288 695 299 725 c 256
EndSplineSet
Refer: 162 3503 N 1 0 0 1 0 0 2
PickledDataWithLists: "(dp1
S'com.schriftgestaltung.Glyphs.lastChange'
p2
S'2018-08-04 01:07:06 +0000'
p3
sS'com.fontlab.hintData'
p4
(dp5
S'vhints'
p6
(lp7
(dp8
S'position'
p9
I86
sS'width'
p10
I48
sa(dp11
g9
I101
sg10
I132
sa(dp12
g9
I491
sg10
I45
sa(dp13
g9
I1120
sg10
I125
sa(dp14
g9
I1217
sg10
I124
sasS'hhints'
p15
(lp16
(dp17
g9
I-34
sg10
I132
sa(dp18
g9
I498
sg10
I38
sa(dp19
g9
I998
sg10
I129
sa(dp20
g9
I1269
sg10
I144
sa(dp21
g9
I1364
sg10
I132
sass."
Ligature2: "sin_abvs subtable" sinDa sinMatraIi
EndChar

StartChar: sinDRa.alt
Encoding: 146 -1 146
GlifName: sinD_R_a.alt
Width: 545
VWidth: 0
Flags: W
LayerCount: 2
Fore
SplineSet
500 -56 m 256
 500 -159 383 -195 288 -195 c 256
 195 -195 125 -167 74 -138 c 256
 53 -126 53 -163 51 -173 c 256
 47 -194 180 -237 282 -237 c 256
 461 -237 543 -145 543 -53 c 256
 543 -3 525 29 483 75 c 256
 478 80 488 94 488 100 c 256
 488 119 477 130 469 130 c 256
 466 130 463 128 462 126 c 256
 432 91 375 32 272 32 c 256
 143 32 71 116 71 246 c 256
 71 330 116 457 238 457 c 256
 349 457 392 335 481 335 c 256
 494 335 501 345 501 356 c 256
 501 366 494 378 483 378 c 256
 463 378 430 393 415 418 c 256
 411 424 410 430 410 435 c 256
 410 445 415 452 423 452 c 256
 426 452 430 451 434 448 c 256
 447 441 463 425 485 425 c 256
 498 425 504 435 504 446 c 256
 504 459 496 473 484 473 c 256
 457 473 442 501 413 501 c 256
 391 501 368 479 368 452 c 256
 368 447 369 442 370 437 c 257
 355 451 303 501 238 501 c 256
 94 501 27 370 27 246 c 256
 27 94 109 -12 272 -12 c 256
 348 -12 426 34 447 53 c 257
 490 13 500 -21 500 -56 c 256
EndSplineSet
PickledDataWithLists: "(dp1
S'com.schriftgestaltung.Glyphs.lastChange'
p2
S'2018-08-04 01:07:06 +0000'
p3
s."
EndChar

StartChar: sinDU
Encoding: 147 -1 147
GlifName: sinD_U_
Width: 672
VWidth: 672
Flags: W
HStem: -432 48<240 470> 392 39 468 45<218.5 280> 495 48
VStem: 62 48<4.29497e+009 4.29497e+009> 494 48
LayerCount: 2
Fore
SplineSet
501 -432 m 258
 524 -432 541 -420 541 -397 c 258
 541 29 l 258
 541 35 541 40 541 45 c 256
 540 62 512 70 494 57 c 256
 462 36 401 10 304 17 c 256
 187 25 115 100 110 246 c 256
 107 331 157 468 280 468 c 256
 364 467 399 397 490 388 c 256
 510 386 520 387 529 392 c 256
 540 398 541 410 539 415 c 256
 534 430 518 428 501 431 c 256
 489 433 478 437 469 442 c 256
 457 449 437 467 441 484 c 256
 443 492 450 499 465 495 c 256
 497 487 506 475 527 475 c 256
 535 475 548 483 548 496 c 256
 548 512 541 520 526 526 c 256
 505 534 477 543 454 543 c 256
 426 543 402 535 396 514 c 256
 390 496 392 481 400 468 c 257
 389 477 329 513 281 513 c 256
 127 513 57 376 60 253 c 256
 64 76 140 -23 304 -34 c 256
 371 -39 428 -25 479 0 c 256
 484 3 494 6 494 6 c 257
 494 -353 l 258
 494 -374 489 -384 470 -384 c 258
 240 -384 l 258
 151 -384 119 -348 110 -274 c 256
 101 -196 121 -127 159 -46 c 256
 166 -30 154 -11 141 -11 c 256
 132 -11 122 -16 117 -26 c 256
 76 -106 54 -195 62 -274 c 256
 72 -366 120 -432 240 -432 c 258
 501 -432 l 258
EndSplineSet
PickledDataWithLists: "(dp1
S'com.schriftgestaltung.Glyphs.lastChange'
p2
S'2018-08-04 01:07:06 +0000'
p3
sS'com.fontlab.hintData'
p4
(dp5
S'vhints'
p6
(lp7
(dp8
S'position'
p9
I62
sS'width'
p10
I48
sa(dp11
g9
I494
sg10
I48
sasS'hhints'
p12
(lp13
(dp14
g9
I-432
sg10
I48
sa(dp15
g9
I392
sg10
I39
sa(dp16
g9
I468
sg10
I45
sa(dp17
g9
I495
sg10
I48
sass."
Ligature2: "sin_blws subtable" sinDa sinMatraU
EndChar

StartChar: sinDUu
Encoding: 149 -1 149
GlifName: sinD_U_u
Width: 720
VWidth: 720
Flags: W
HStem: -432 48<185.5 253.5 185.5 277> 392 39 468 45<218.5 280> 495 48
VStem: 60 50
LayerCount: 2
Fore
SplineSet
494 6 m 257
 494 -362 l 257
 477 -328 419 -247 399 -224 c 256
 380 -203 372 -189 360 -189 c 256
 349 -189 340 -197 340 -209 c 256
 340 -228 338 -254 337 -271 c 256
 329 -345 288 -384 219 -384 c 256
 152 -384 110 -324 104 -278 c 256
 94 -196 118 -117 164 -40 c 256
 166 -36 166 -32 166 -29 c 256
 166 -16 153 -7 140 -7 c 256
 133 -7 126 -11 122 -19 c 256
 80 -95 47 -191 56 -278 c 256
 64 -348 119 -432 219 -432 c 256
 335 -432 367 -353 374 -289 c 256
 374 -284 375 -274 375 -268 c 257
 400 -294 433 -344 471 -409 c 256
 482 -429 500 -432 511 -432 c 256
 530 -432 542 -422 542 -399 c 258
 542 30 l 258
 542 35 541 41 541 45 c 256
 540 62 513 68 494 57 c 256
 460 38 401 10 304 17 c 256
 187 25 115 100 110 246 c 256
 107 331 157 468 280 468 c 256
 364 467 399 397 490 388 c 256
 510 386 520 387 529 392 c 256
 540 398 541 410 539 415 c 256
 534 430 518 428 501 431 c 256
 489 433 478 437 469 442 c 256
 457 449 437 467 441 484 c 256
 443 492 450 499 465 495 c 256
 497 487 506 475 527 475 c 256
 535 475 548 483 548 496 c 256
 548 512 541 520 526 526 c 256
 505 534 477 543 454 543 c 256
 426 543 402 535 396 514 c 256
 390 496 392 481 400 468 c 257
 389 477 329 513 281 513 c 256
 127 513 57 376 60 253 c 256
 64 76 140 -23 304 -34 c 256
 371 -39 439 -18 479 0 c 256
 485 2 494 6 494 6 c 257
EndSplineSet
PickledDataWithLists: "(dp1
S'com.schriftgestaltung.Glyphs.lastChange'
p2
S'2018-08-04 01:07:06 +0000'
p3
sS'com.fontlab.hintData'
p4
(dp5
S'vhints'
p6
(lp7
(dp8
S'position'
p9
I60
sS'width'
p10
I50
sasS'hhints'
p11
(lp12
(dp13
g9
I-432
sg10
I48
sa(dp14
g9
I392
sg10
I39
sa(dp15
g9
I468
sg10
I45
sa(dp16
g9
I495
sg10
I48
sass."
Ligature2: "sin_blws subtable" sinDa sinMatraUu
EndChar

StartChar: sinDa
Encoding: 162 3503 162
GlifName: sinD_a
Width: 603
VWidth: 603
Flags: W
HStem: -34 132 998 129 1269 144 1364 132
VStem: 101 132 1120 125 1217 124
LayerCount: 2
Fore
SplineSet
510 -320 m 256
 539 -337 565 -298 537 -277 c 256
 505 -253 484 -236 480 -167 c 256
 477 -118 499 -54 534 25 c 256
 537 32 538 39 537 45 c 256
 536 62 504 73 488 57 c 256
 461 32 395 10 298 17 c 256
 181 25 109 100 104 246 c 256
 101 331 151 468 274 468 c 256
 358 468 393 397 484 388 c 256
 511 385 542 393 533 415 c 256
 528 430 512 428 495 431 c 256
 470 435 428 456 435 484 c 256
 437 492 444 499 459 495 c 256
 491 487 500 475 521 475 c 256
 529 475 542 483 542 496 c 256
 542 512 535 520 520 526 c 256
 499 534 471 543 448 543 c 256
 420 543 396 535 390 514 c 256
 384 496 386 481 394 468 c 257
 383 477 323 513 275 513 c 256
 121 513 51 376 54 253 c 256
 58 76 134 -22 298 -34 c 256
 365 -39 453 -17 473 0 c 257
 452 -59 429 -108 432 -170 c 256
 436 -260 468 -295 510 -320 c 256
EndSplineSet
PickledDataWithLists: "(dp1
S'com.schriftgestaltung.Glyphs.lastChange'
p2
S'2018-08-04 01:07:05 +0000'
p3
sS'com.fontlab.hintData'
p4
(dp5
S'vhints'
p6
(lp7
(dp8
S'position'
p9
I101
sS'width'
p10
I132
sa(dp11
g9
I1120
sg10
I125
sa(dp12
g9
I1217
sg10
I124
sasS'hhints'
p13
(lp14
(dp15
g9
I-34
sg10
I132
sa(dp16
g9
I998
sg10
I129
sa(dp17
g9
I1269
sg10
I144
sa(dp18
g9
I1364
sg10
I132
sass."
EndChar

StartChar: sinDdI
Encoding: 165 -1 165
GlifName: sinD_dI_
Width: 770
VWidth: 770
Flags: W
HStem: 0 48<184 259 504.5 590> 370 29<150.5 251.5> 388 51 400 44<121.5 127.5 100 144> 447 45<355.5 378 355.5 378.5> 490 44 584 48 928 48
VStem: 36 48 194 46<461 471 450.5 485.5> 356 48<168 225>
LayerCount: 2
Fore
SplineSet
663 272 m 256
 683 169 640 48 540 48 c 256
 453 48 404 117 404 219 c 256
 404 231 399 242 380 242 c 256
 362 242 356 231 356 219 c 256
 356 117 308 48 220 48 c 256
 148 48 83 107 83 211 c 256
 83 301 141 370 231 370 c 256
 272 370 284 364 310 355 c 256
 314 354 315 354 319 354 c 256
 331 354 332 363 342 372 c 256
 343 374 343 376 343 379 c 256
 343 389 334 399 317 405 c 256
 260 426 240 438 240 463 c 256
 240 479 255 490 273 490 c 256
 276 490 279 489 281 488 c 256
 314 482 327 447 372 447 c 256
 385 447 391 458 391 470 c 256
 391 480 384 492 372 492 c 256
 339 492 322 533 271 533 c 256
 220 533 194 502 194 469 c 256
 194 453 199 438 210 425 c 257
 182 438 145 444 110 444 c 256
 90 444 71 443 54 440 c 256
 37 436 29 424 29 413 c 256
 29 400 38 388 55 388 c 258
 65 388 l 257
 84 393 104 400 139 400 c 256
 149 400 161 400 174 399 c 257
 127 399 36 341 36 211 c 256
 36 73 123 0 220 0 c 256
 298 0 360 45 380 108 c 257
 397 44 469 0 540 0 c 256
 682 0 733 144 710 272 c 256
 643 648 151 532 163 756 c 256
 170 897 301 932 410 928 c 256
 554 923 640 841 621 738 c 256
 609 674 546 631 466 632 c 256
 424 633 376 657 360 677 c 256
 354 685 332 692 322 683 c 256
 306 669 317 647 338 630 c 256
 356 615 416 584 468 584 c 256
 544 585 652 633 668 738 c 256
 686 856 585 971 413 976 c 256
 237 981 110 891 115 750 c 256
 124 485 597 615 663 272 c 256
EndSplineSet
PickledDataWithLists: "(dp1
S'com.schriftgestaltung.Glyphs.lastChange'
p2
S'2018-08-04 01:07:06 +0000'
p3
sS'com.fontlab.hintData'
p4
(dp5
S'vhints'
p6
(lp7
(dp8
S'position'
p9
I36
sS'width'
p10
I48
sa(dp11
g9
I194
sg10
I46
sa(dp12
g9
I356
sg10
I48
sasS'hhints'
p13
(lp14
(dp15
g9
I0
sg10
I48
sa(dp16
g9
I370
sg10
I29
sa(dp17
g9
I388
sg10
I51
sa(dp18
g9
I400
sg10
I44
sa(dp19
g9
I447
sg10
I45
sa(dp20
g9
I490
sg10
I44
sa(dp21
g9
I584
sg10
I48
sa(dp22
g9
I928
sg10
I48
sass."
Ligature2: "sin_abvs subtable" sinDda sinMatraI
EndChar

StartChar: sinDdIi
Encoding: 166 -1 166
GlifName: sinD_dI_i
Width: 770
VWidth: 770
Flags: W
HStem: 0 48<184 259 504.5 577.5> 370 29<150.5 251.5> 388 55 400 44<121.5 127.5 100 144> 447 45<355.5 378 355.5 378.5> 490 44 789 43<459 492> 924 48
VStem: 36 48 121 48 194 46<461 471 450.5 485.5> 356 48<168 225> 535 47<723.5 749.5> 612 47<749 823>
LayerCount: 2
Fore
SplineSet
655 282 m 256
 577 598 130 519 121 772 c 256
 116 900 237 976 403 972 c 256
 575 968 659 878 659 784 c 256
 659 669 572 629 506 624 c 256
 433 618 369 672 370 728 c 256
 372 810 434 832 473 832 c 256
 551 832 582 789 582 733 c 256
 582 714 570 684 561 670 c 256
 548 649 538 642 525 640 c 256
 501 636 442 677 467 674 c 256
 503 669 535 697 535 729 c 256
 535 770 509 789 475 789 c 256
 443 789 414 762 416 730 c 256
 418 700 447 665 504 672 c 256
 570 680 612 714 612 784 c 256
 612 862 544 919 400 924 c 256
 298 927 166 900 169 778 c 256
 174 571 630 615 703 282 c 256
 738 122 649 0 540 0 c 256
 469 0 397 44 380 108 c 257
 360 45 298 0 220 0 c 256
 123 0 36 73 36 211 c 256
 36 341 127 399 174 399 c 257
 161 400 149 400 139 400 c 256
 104 400 84 393 65 388 c 257
 55 388 l 258
 38 388 29 400 29 413 c 256
 29 424 37 436 54 440 c 256
 71 443 90 444 110 444 c 256
 145 444 182 438 210 425 c 257
 199 438 194 453 194 469 c 256
 194 502 220 533 271 533 c 256
 322 533 339 492 372 492 c 256
 384 492 391 480 391 470 c 256
 391 458 385 447 372 447 c 256
 327 447 314 482 281 488 c 256
 279 489 276 490 273 490 c 256
 255 490 240 479 240 463 c 256
 240 438 260 426 317 405 c 256
 334 399 343 389 343 379 c 256
 343 376 343 374 342 372 c 256
 332 363 331 354 319 354 c 256
 315 354 314 354 310 355 c 256
 284 364 272 370 231 370 c 256
 141 370 83 301 83 211 c 256
 83 107 148 48 220 48 c 256
 308 48 356 117 356 219 c 256
 356 231 362 242 380 242 c 256
 399 242 404 231 404 219 c 256
 404 117 453 48 540 48 c 256
 615 48 689 146 655 282 c 256
EndSplineSet
PickledDataWithLists: "(dp1
S'com.schriftgestaltung.Glyphs.lastChange'
p2
S'2018-08-04 01:07:06 +0000'
p3
sS'com.fontlab.hintData'
p4
(dp5
S'vhints'
p6
(lp7
(dp8
S'position'
p9
I36
sS'width'
p10
I48
sa(dp11
g9
I121
sg10
I48
sa(dp12
g9
I194
sg10
I46
sa(dp13
g9
I356
sg10
I48
sa(dp14
g9
I535
sg10
I47
sa(dp15
g9
I612
sg10
I47
sasS'hhints'
p16
(lp17
(dp18
g9
I0
sg10
I48
sa(dp19
g9
I370
sg10
I29
sa(dp20
g9
I388
sg10
I55
sa(dp21
g9
I400
sg10
I44
sa(dp22
g9
I447
sg10
I45
sa(dp23
g9
I490
sg10
I44
sa(dp24
g9
I789
sg10
I43
sa(dp25
g9
I924
sg10
I48
sass."
Ligature2: "sin_abvs subtable" sinDda sinMatraIi
EndChar

StartChar: sinDdRa
Encoding: 170 -1 170
GlifName: sinD_dR_a
Width: 802
VWidth: 802
Flags: W
HStem: 0 48 370 29 388 51 400 44 447 45 490 44 741 48
VStem: 36 48 194 46 356 48 701 48
LayerCount: 2
Fore
SplineSet
692 -174 m 256
 704 -113 705 -64 701 -25 c 256
 699 -3 688 4 672 0 c 256
 659 -3 654 -17 656 -37 c 256
 659 -64 662 -112 646 -176 c 256
 614 -306 491 -386 354 -386 c 256
 338 -386 320 -386 301 -383 c 256
 282 -380 270 -384 267 -398 c 256
 264 -411 269 -425 290 -430 c 256
 307 -434 333 -434 351 -434 c 256
 516 -432 661 -332 692 -174 c 256
EndSplineSet
Refer: 175 3497 N 1 0 0 1 0 0 2
PickledDataWithLists: "(dp1
S'com.schriftgestaltung.Glyphs.lastChange'
p2
S'2018-08-04 01:07:06 +0000'
p3
sS'com.fontlab.hintData'
p4
(dp5
S'vhints'
p6
(lp7
(dp8
S'position'
p9
I36
sS'width'
p10
I48
sa(dp11
g9
I194
sg10
I46
sa(dp12
g9
I356
sg10
I48
sa(dp13
g9
I701
sg10
I48
sasS'hhints'
p14
(lp15
(dp16
g9
I0
sg10
I48
sa(dp17
g9
I370
sg10
I29
sa(dp18
g9
I388
sg10
I51
sa(dp19
g9
I400
sg10
I44
sa(dp20
g9
I447
sg10
I45
sa(dp21
g9
I490
sg10
I44
sa(dp22
g9
I741
sg10
I48
sass."
Ligature2: "sin_rakar subtable" sinDda sinVirama zerowidthjoiner sinRa
EndChar

StartChar: sinDdU
Encoding: 171 -1 171
GlifName: sinD_dU_
Width: 802
VWidth: 802
Flags: W
HStem: -432 48<332 612> 0 48 370 29 388 51 400 44 447 45 490 44 741 48
VStem: 36 48 194 46 356 48 636 48<-363.5 -353 -353 80> 701 48
LayerCount: 2
Fore
SplineSet
643 -432 m 258
 666 -432 684 -420 684 -397 c 258
 684 80 l 257
 636 80 l 257
 636 -353 l 258
 636 -374 631 -384 612 -384 c 258
 332 -384 l 258
 243 -384 201 -348 192 -274 c 256
 183 -196 203 -127 241 -46 c 256
 248 -30 236 -11 223 -11 c 256
 214 -11 204 -16 199 -26 c 256
 158 -106 136 -195 145 -274 c 256
 154 -366 212 -432 332 -432 c 258
 643 -432 l 258
EndSplineSet
Refer: 175 3497 N 1 0 0 1 0 0 2
PickledDataWithLists: "(dp1
S'com.schriftgestaltung.Glyphs.lastChange'
p2
S'2018-08-04 01:07:06 +0000'
p3
sS'com.fontlab.hintData'
p4
(dp5
S'vhints'
p6
(lp7
(dp8
S'position'
p9
I36
sS'width'
p10
I48
sa(dp11
g9
I194
sg10
I46
sa(dp12
g9
I356
sg10
I48
sa(dp13
g9
I636
sg10
I48
sa(dp14
g9
I701
sg10
I48
sasS'hhints'
p15
(lp16
(dp17
g9
I-432
sg10
I48
sa(dp18
g9
I0
sg10
I48
sa(dp19
g9
I370
sg10
I29
sa(dp20
g9
I388
sg10
I51
sa(dp21
g9
I400
sg10
I44
sa(dp22
g9
I447
sg10
I45
sa(dp23
g9
I490
sg10
I44
sa(dp24
g9
I741
sg10
I48
sass."
Ligature2: "sin_blws subtable" sinDda sinMatraU
EndChar

StartChar: sinDdU.reph
Encoding: 172 -1 172
GlifName: sinD_dU_.reph
Width: 743
VWidth: 0
Flags: W
LayerCount: 2
Fore
SplineSet
185 -64 m 256
 176 -64 166 -68 160 -79 c 256
 131 -132 116 -193 116 -248 c 256
 116 -348 169 -432 304 -432 c 258
 655 -432 l 258
 679 -432 696 -419 696 -397 c 258
 696 148 l 257
 648 148 l 257
 648 -353 l 258
 648 -374 642 -384 624 -384 c 258
 304 -384 l 258
 205 -384 162 -339 162 -246 c 256
 162 -197 176 -151 202 -99 c 256
 204 -95 205 -90 205 -86 c 256
 205 -73 198 -64 185 -64 c 256
EndSplineSet
Refer: 176 -1 N 1 0 0 1 0 0 2
PickledDataWithLists: "(dp1
S'com.schriftgestaltung.Glyphs.lastChange'
p2
S'2018-08-04 01:07:06 +0000'
p3
s."
EndChar

StartChar: sinDdUu.reph
Encoding: 174 -1 174
GlifName: sinD_dU_u.reph
Width: 743
VWidth: 0
Flags: W
LayerCount: 2
Fore
SplineSet
161 -243 m 256
 161 -195 181 -144 201 -93 c 256
 203 -88 204 -83 204 -79 c 256
 204 -67 196 -56 183 -56 c 256
 174 -56 165 -61 159 -72 c 256
 131 -123 114 -183 114 -242 c 256
 114 -365 195 -430 299 -430 c 256
 396 -430 454 -373 466 -321 c 256
 469 -308 473 -287 475 -268 c 257
 508 -299 568 -356 625 -409 c 256
 642 -425 653 -432 665 -432 c 256
 683 -432 696 -423 696 -399 c 258
 696 150 l 257
 648 150 l 257
 648 -362 l 257
 603 -320 532 -253 499 -220 c 256
 479 -200 469 -189 456 -189 c 256
 442 -189 431 -200 431 -214 c 256
 431 -234 431 -261 429 -278 c 256
 420 -351 363 -382 299 -382 c 256
 218 -382 161 -335 161 -243 c 256
EndSplineSet
Refer: 176 -1 N 1 0 0 1 0 0 2
PickledDataWithLists: "(dp1
S'com.schriftgestaltung.Glyphs.lastChange'
p2
S'2018-08-04 01:07:06 +0000'
p3
s."
EndChar

StartChar: sinDda
Encoding: 175 3497 175
GlifName: sinD_da
Width: 802
VWidth: 802
Flags: W
HStem: 0 48 370 29 388 51 400 44 447 45 490 44 741 48
VStem: 36 48 194 46 356 48 701 48
LayerCount: 2
Fore
SplineSet
137 439 m 256
 103 439 56 439 56 408 c 256
 56 395 65 383 82 383 c 258
 92 383 l 257
 112 388 132 395 166 395 c 256
 177 395 188 395 201 394 c 257
 153 394 63 335 63 206 c 256
 63 67 149 -5 247 -5 c 256
 323 -5 384 40 403 103 c 257
 419 38 486 -5 553 -5 c 256
 680 -5 741 111 741 292 c 256
 741 588 506 783 258 783 c 256
 199 783 140 774 82 754 c 256
 69 749 63 740 63 729 c 256
 63 717 72 706 88 706 c 256
 91 706 94 707 98 708 c 256
 152 726 207 736 261 736 c 256
 485 736 694 559 694 292 c 256
 694 130 644 43 553 43 c 256
 472 43 427 112 427 214 c 256
 427 226 421 237 403 237 c 256
 385 237 379 226 379 214 c 256
 379 112 332 43 247 43 c 256
 174 43 110 102 110 206 c 256
 110 296 168 365 258 365 c 256
 303 365 312 349 346 349 c 256
 360 349 370 357 370 374 c 256
 370 385 361 393 344 400 c 256
 287 421 267 433 267 458 c 256
 267 474 282 485 300 485 c 256
 303 485 305 483 308 483 c 256
 341 476 354 442 399 442 c 256
 412 442 418 453 418 465 c 256
 418 476 411 487 399 487 c 256
 366 487 349 528 298 528 c 256
 248 528 221 497 221 464 c 256
 221 448 226 433 237 420 c 257
 209 433 173 439 137 439 c 256
EndSplineSet
PickledDataWithLists: "(dp1
S'com.schriftgestaltung.Glyphs.lastChange'
p2
S'2018-08-04 01:07:05 +0000'
p3
sS'com.fontlab.hintData'
p4
(dp5
S'vhints'
p6
(lp7
(dp8
S'position'
p9
I36
sS'width'
p10
I48
sa(dp11
g9
I194
sg10
I46
sa(dp12
g9
I356
sg10
I48
sa(dp13
g9
I701
sg10
I48
sasS'hhints'
p14
(lp15
(dp16
g9
I0
sg10
I48
sa(dp17
g9
I370
sg10
I29
sa(dp18
g9
I388
sg10
I51
sa(dp19
g9
I400
sg10
I44
sa(dp20
g9
I447
sg10
I45
sa(dp21
g9
I490
sg10
I44
sa(dp22
g9
I741
sg10
I48
sass."
EndChar

StartChar: sinDda.reph
Encoding: 176 -1 176
GlifName: sinD_da.reph
Width: 739
VWidth: 0
Flags: W
LayerCount: 2
Fore
SplineSet
108 439 m 256
 74 439 27 439 27 408 c 256
 27 395 36 383 53 383 c 258
 63 383 l 257
 83 388 103 395 137 395 c 256
 148 395 159 395 172 394 c 257
 124 394 34 335 34 206 c 256
 34 67 120 -5 218 -5 c 256
 294 -5 355 40 374 103 c 257
 390 38 457 -5 524 -5 c 256
 651 -5 712 111 712 292 c 256
 712 617 513 831 303 831 c 256
 267 831 231 828 196 815 c 256
 183 810 177 801 177 790 c 256
 177 778 186 767 202 767 c 256
 205 767 208 768 212 769 c 256
 243 779 275 784 306 784 c 256
 492 784 665 588 665 292 c 256
 665 130 615 43 524 43 c 256
 443 43 398 112 398 214 c 256
 398 226 392 237 374 237 c 256
 356 237 350 226 350 214 c 256
 350 112 303 43 218 43 c 256
 145 43 81 102 81 206 c 256
 81 296 139 365 229 365 c 256
 274 365 283 349 317 349 c 256
 331 349 341 357 341 374 c 256
 341 385 332 394 315 400 c 256
 258 421 238 433 238 458 c 256
 238 474 253 485 271 485 c 256
 274 485 276 484 279 483 c 256
 312 476 325 442 370 442 c 256
 383 442 389 453 389 465 c 256
 389 476 382 487 370 487 c 256
 337 487 320 528 269 528 c 256
 219 528 192 497 192 464 c 256
 192 448 197 433 208 420 c 257
 180 433 144 439 108 439 c 256
358 714 m 256
 358 780 315 829 246 829 c 256
 195 829 156 800 156 755 c 256
 156 726 176 705 204 705 c 256
 230 705 242 725 242 743 c 256
 242 755 237 764 229 771 c 257
 236 775 245 778 261 778 c 256
 290 778 311 749 311 714 c 256
 311 663 257 629 204 629 c 256
 133 629 75 673 75 763 c 256
 75 862 156 923 266 923 c 256
 374 923 459 842 459 730 c 256
 459 700 453 666 440 629 c 256
 439 625 439 621 439 618 c 256
 439 603 451 596 463 596 c 256
 472 596 480 600 484 610 c 256
 500 655 506 693 506 730 c 256
 506 875 398 970 266 970 c 256
 123 970 27 886 27 763 c 256
 27 642 108 581 204 581 c 256
 279 581 358 630 358 714 c 256
EndSplineSet
PickledDataWithLists: "(dp1
S'com.schriftgestaltung.Glyphs.lastChange'
p2
S'2018-08-04 01:07:05 +0000'
p3
s."
EndChar

StartChar: sinDdhI
Encoding: 179 -1 179
GlifName: sinD_dhI_
Width: 837
VWidth: 837
Flags: W
HStem: 0 51<199 280> 382 31<158 266> 402 56 415 47<125.5 132 102.5 150> 456 47<371.5 394.5 371.5 395> 512 47<280 291.5> 528 45<463.5 508.5 463.5 512>
VStem: 38 51 204 50<480.5 491.5 469.5 506.5> 385 51<237 237> 740 51<222 379.5>
LayerCount: 2
Fore
SplineSet
411 117 m 257
 429 47 506 0 583 0 c 256
 723 0 791 119 791 305 c 256
 791 521 627 711 519 825 c 256
 495 852 474 875 460 893 c 257
 451 878 443 865 435 852 c 257
 440 844 445 836 450 828 c 257
 417 795 362 740 354 675 c 256
 342 581 418 528 485 528 c 256
 539 528 597 554 631 607 c 257
 674 555 740 454 740 305 c 256
 740 139 684 47 583 51 c 256
 473 56 444 131 436 237 c 256
 435 249 431 261 411 261 c 256
 391 261 384 249 385 237 c 256
 392 129 332 51 238 51 c 256
 160 51 90 115 90 228 c 256
 90 315 150 382 244 382 c 256
 288 382 301 376 330 366 c 256
 334 365 335 365 340 365 c 256
 352 365 354 374 364 385 c 256
 365 386 365 389 365 392 c 256
 365 403 355 413 337 420 c 256
 275 443 254 456 254 483 c 256
 254 500 270 512 290 512 c 256
 293 512 295 511 298 510 c 256
 332 503 344 456 388 456 c 256
 402 456 409 467 409 479 c 256
 409 492 401 503 388 503 c 256
 355 503 338 559 287 559 c 256
 233 559 204 524 204 489 c 256
 204 472 210 456 221 442 c 257
 191 456 151 462 113 462 c 256
 92 462 71 462 53 457 c 256
 35 453 26 440 26 429 c 256
 26 415 36 402 54 402 c 258
 64 402 l 257
 86 408 107 415 144 415 c 256
 156 415 169 415 183 413 c 257
 133 413 38 356 38 228 c 256
 38 78 133 0 238 0 c 256
 322 0 389 48 411 117 c 257
401 675 m 256
 408 729 448 758 485 791 c 257
 515 757 568 698 596 650 c 257
 581 601 532 573 485 573 c 256
 442 573 392 606 401 675 c 256
EndSplineSet
PickledDataWithLists: "(dp1
S'com.schriftgestaltung.Glyphs.lastChange'
p2
S'2018-08-04 01:07:06 +0000'
p3
sS'com.fontlab.hintData'
p4
(dp5
S'vhints'
p6
(lp7
(dp8
S'position'
p9
I38
sS'width'
p10
I51
sa(dp11
g9
I204
sg10
I50
sa(dp12
g9
I385
sg10
I51
sa(dp13
g9
I740
sg10
I51
sasS'hhints'
p14
(lp15
(dp16
g9
I0
sg10
I51
sa(dp17
g9
I382
sg10
I31
sa(dp18
g9
I402
sg10
I56
sa(dp19
g9
I415
sg10
I47
sa(dp20
g9
I456
sg10
I47
sa(dp21
g9
I512
sg10
I47
sa(dp22
g9
I528
sg10
I45
sass."
Ligature2: "sin_abvs subtable" sinDdha sinMatraI
EndChar

StartChar: sinDdhIi
Encoding: 180 -1 180
GlifName: sinD_dhI_i
Width: 837
VWidth: 837
Flags: W
HStem: 0 51<199 280> 382 31<158 266> 402 56 415 47<125.5 132 102.5 150> 456 47<371.5 394.5 371.5 395> 512 47<280 291.5> 528 45<463.5 508.5 463.5 512>
VStem: 38 51 204 50<480.5 491.5 469.5 506.5> 385 51<237 237> 740 51<222 379.5>
LayerCount: 2
Fore
SplineSet
411 117 m 257
 429 47 506 0 583 0 c 256
 723 0 791 119 791 305 c 256
 791 521 627 711 519 825 c 256
 495 852 474 875 460 893 c 257
 451 878 443 865 435 852 c 257
 440 844 445 836 450 828 c 257
 417 795 362 740 354 675 c 256
 342 581 418 528 485 528 c 256
 539 528 597 554 631 607 c 257
 674 555 740 454 740 305 c 256
 740 139 684 47 583 51 c 256
 473 56 444 131 436 237 c 256
 435 249 431 261 411 261 c 256
 391 261 384 249 385 237 c 256
 392 129 332 51 238 51 c 256
 160 51 90 115 90 228 c 256
 90 315 150 382 244 382 c 256
 288 382 301 376 330 366 c 256
 334 365 335 365 340 365 c 256
 352 365 354 374 364 385 c 256
 365 386 365 389 365 392 c 256
 365 403 355 413 337 420 c 256
 275 443 254 456 254 483 c 256
 254 500 270 512 290 512 c 256
 293 512 295 511 298 510 c 256
 332 503 344 456 388 456 c 256
 402 456 409 467 409 479 c 256
 409 492 401 503 388 503 c 256
 355 503 338 559 287 559 c 256
 233 559 204 524 204 489 c 256
 204 472 210 456 221 442 c 257
 191 456 151 462 113 462 c 256
 92 462 71 462 53 457 c 256
 35 453 26 440 26 429 c 256
 26 415 36 402 54 402 c 258
 64 402 l 257
 86 408 107 415 144 415 c 256
 156 415 169 415 183 413 c 257
 133 413 38 356 38 228 c 256
 38 78 133 0 238 0 c 256
 322 0 389 48 411 117 c 257
401 675 m 256
 408 729 448 758 485 791 c 257
 515 757 568 698 596 650 c 257
 581 601 532 573 485 573 c 256
 442 573 392 606 401 675 c 256
EndSplineSet
PickledDataWithLists: "(dp1
S'com.schriftgestaltung.Glyphs.lastChange'
p2
S'2018-08-04 01:07:06 +0000'
p3
sS'com.fontlab.hintData'
p4
(dp5
S'vhints'
p6
(lp7
(dp8
S'position'
p9
I38
sS'width'
p10
I51
sa(dp11
g9
I204
sg10
I50
sa(dp12
g9
I385
sg10
I51
sa(dp13
g9
I740
sg10
I51
sasS'hhints'
p14
(lp15
(dp16
g9
I0
sg10
I51
sa(dp17
g9
I382
sg10
I31
sa(dp18
g9
I402
sg10
I56
sa(dp19
g9
I415
sg10
I47
sa(dp20
g9
I456
sg10
I47
sa(dp21
g9
I512
sg10
I47
sa(dp22
g9
I528
sg10
I45
sass."
Ligature2: "sin_abvs subtable" sinDdha sinMatraIi
EndChar

StartChar: sinDdhR.virama
Encoding: 181 -1 181
GlifName: sinD_dhR_.virama
Width: 794
VWidth: 0
Flags: W
LayerCount: 2
Fore
SplineSet
514 937 m 256
 514 956 519 972 539 972 c 256
 555 972 563 959 563 942 c 257
 571 936 579 934 589 934 c 256
 630 934 650 958 687 958 c 256
 723 958 767 930 767 867 c 256
 767 789 714 726 642 726 c 256
 607 726 581 738 560 753 c 257
 560 674 l 256
 560 669 l 257
 515 673 l 257
 514 686 514 698 514 707 c 256
 514 784 514 860 514 937 c 256
673 910 m 256
 641 910 625 890 593 890 c 256
 579 890 569 894 562 898 c 257
 561 867 561 835 561 803 c 257
 576 788 601 772 636 772 c 256
 686 772 716 810 716 860 c 256
 716 899 695 910 673 910 c 256
710 -174 m 256
 722 -113 723 -64 719 -25 c 256
 717 -3 706 4 690 0 c 256
 677 -3 672 -17 674 -37 c 256
 677 -64 680 -112 664 -176 c 256
 632 -306 509 -386 372 -386 c 256
 356 -386 338 -386 319 -383 c 256
 300 -380 288 -384 285 -398 c 256
 282 -411 287 -425 308 -430 c 256
 325 -434 351 -434 369 -434 c 256
 534 -432 679 -332 710 -174 c 256
EndSplineSet
Refer: 189 3498 N 1 0 0 1 0 0 2
PickledDataWithLists: "(dp1
S'com.schriftgestaltung.Glyphs.lastChange'
p2
S'2018-08-04 01:07:06 +0000'
p3
s."
EndChar

StartChar: sinDdhRI
Encoding: 182 -1 182
GlifName: sinD_dhR_I_
Width: 751
VWidth: 0
Flags: W
LayerCount: 2
Fore
SplineSet
323 717 m 256
 330 709 324 691 313 674 c 256
 288 634 242 623 208 633 c 256
 159 647 121 679 121 760 c 256
 121 909 270 972 400 972 c 256
 550 972 676 868 674 752 c 256
 673 690 661 654 612 635 c 256
 543 609 497 661 490 668 c 256
 482 675 481 693 488 701 c 256
 496 710 510 710 520 703 c 256
 525 700 552 656 587 671 c 256
 623 687 626 711 628 755 c 256
 631 850 485 929 400 925 c 256
 279 919 165 869 165 755 c 256
 165 705 181 689 217 675 c 256
 236 668 269 673 285 708 c 256
 293 725 313 729 323 717 c 256
689 -174 m 256
 701 -113 702 -64 698 -25 c 256
 696 -3 685 4 669 0 c 256
 656 -3 651 -17 653 -37 c 256
 656 -64 659 -112 643 -176 c 256
 611 -306 488 -386 351 -386 c 256
 335 -386 317 -386 298 -383 c 256
 279 -380 267 -384 264 -398 c 256
 261 -411 266 -425 287 -430 c 256
 304 -434 330 -434 348 -434 c 256
 513 -432 658 -332 689 -174 c 256
EndSplineSet
Refer: 189 3498 N 1 0 0 1 0 0 2
PickledDataWithLists: "(dp1
S'com.schriftgestaltung.Glyphs.lastChange'
p2
S'2018-08-04 01:07:06 +0000'
p3
s."
EndChar

StartChar: sinDdhRIi
Encoding: 183 -1 183
GlifName: sinD_dhR_I_i
Width: 751
VWidth: 0
Flags: W
LayerCount: 2
Fore
SplineSet
607 827 m 257
 554 891 472 924 394 924 c 256
 313 924 174 873 174 764 c 256
 174 750 171 713 201 694 c 256
 242 668 274 689 294 728 c 256
 299 739 324 740 328 726 c 256
 331 716 329 705 318 685 c 256
 293 639 230 630 181 655 c 256
 131 681 126 730 126 764 c 256
 126 898 287 972 394 972 c 256
 562 972 674 878 674 758 c 256
 674 679 628 643 589 638 c 256
 525 630 473 668 473 739 c 256
 473 787 512 834 570 834 c 256
 584 834 596 831 607 827 c 257
519 736 m 256
 519 704 540 685 570 685 c 256
 601 685 625 703 625 736 c 256
 625 766 603 787 570 787 c 256
 540 787 519 766 519 736 c 256
689 -174 m 256
 701 -113 702 -64 698 -25 c 256
 696 -3 685 4 669 0 c 256
 656 -3 651 -17 653 -37 c 256
 656 -64 659 -112 643 -176 c 256
 611 -306 488 -386 351 -386 c 256
 335 -386 317 -386 298 -383 c 256
 279 -380 267 -384 264 -398 c 256
 261 -411 266 -425 287 -430 c 256
 304 -434 330 -434 348 -434 c 256
 513 -432 658 -332 689 -174 c 256
EndSplineSet
Refer: 189 3498 N 1 0 0 1 0 0 2
PickledDataWithLists: "(dp1
S'com.schriftgestaltung.Glyphs.lastChange'
p2
S'2018-08-04 01:07:06 +0000'
p3
s."
EndChar

StartChar: sinDdhRa
Encoding: 184 -1 184
GlifName: sinD_dhR_a
Width: 751
VWidth: 0
Flags: W
LayerCount: 2
Fore
SplineSet
689 -174 m 256
 701 -113 702 -64 698 -25 c 256
 696 -3 685 4 669 0 c 256
 656 -3 651 -17 653 -37 c 256
 656 -64 659 -112 643 -176 c 256
 611 -306 488 -386 351 -386 c 256
 335 -386 317 -386 298 -383 c 256
 279 -380 267 -384 264 -398 c 256
 261 -411 266 -425 287 -430 c 256
 304 -434 330 -434 348 -434 c 256
 513 -432 658 -332 689 -174 c 256
EndSplineSet
Refer: 189 3498 N 1 0 0 1 0 0 2
PickledDataWithLists: "(dp1
S'com.schriftgestaltung.Glyphs.lastChange'
p2
S'2018-08-04 01:07:06 +0000'
p3
s."
EndChar

StartChar: sinDdhU
Encoding: 185 -1 185
GlifName: sinD_dhU_
Width: 881
VWidth: 881
Flags: W
HStem: -432 48<358 638> 0 132 985 140 1026 81 1077 143 1113 120 1216 124 1360 123
VStem: 100 132 539 128 662 48 995 120 1946 135
LayerCount: 2
Fore
SplineSet
668 -432 m 258
 692 -432 709 -420 709 -397 c 258
 709 60 l 257
 662 60 l 257
 662 -353 l 258
 662 -374 656 -384 638 -384 c 258
 358 -384 l 258
 269 -384 226 -348 218 -274 c 256
 209 -196 229 -127 266 -46 c 256
 274 -30 262 -11 249 -11 c 256
 240 -11 229 -16 224 -26 c 256
 184 -106 162 -195 170 -274 c 256
 180 -366 237 -432 358 -432 c 258
 668 -432 l 258
EndSplineSet
Refer: 189 3498 N 1 0 0 1 0 0 2
PickledDataWithLists: "(dp1
S'com.schriftgestaltung.Glyphs.lastChange'
p2
S'2018-08-04 01:07:06 +0000'
p3
sS'com.fontlab.hintData'
p4
(dp5
S'vhints'
p6
(lp7
(dp8
S'position'
p9
I100
sS'width'
p10
I132
sa(dp11
g9
I539
sg10
I128
sa(dp12
g9
I662
sg10
I48
sa(dp13
g9
I995
sg10
I120
sa(dp14
g9
I1946
sg10
I135
sasS'hhints'
p15
(lp16
(dp17
g9
I-432
sg10
I48
sa(dp18
g9
I0
sg10
I132
sa(dp19
g9
I985
sg10
I140
sa(dp20
g9
I1026
sg10
I81
sa(dp21
g9
I1077
sg10
I143
sa(dp22
g9
I1113
sg10
I120
sa(dp23
g9
I1216
sg10
I124
sa(dp24
g9
I1360
sg10
I123
sass."
Ligature2: "sin_blws subtable" sinDdha sinMatraU
EndChar

StartChar: sinDdhU.reph
Encoding: 186 -1 186
GlifName: sinD_dhU_.reph
Width: 763
VWidth: 0
Flags: W
LayerCount: 2
Fore
SplineSet
225 -64 m 256
 238 -64 245 -73 245 -86 c 256
 245 -90 244 -95 242 -99 c 256
 218 -152 202 -197 202 -246 c 256
 202 -339 245 -384 344 -384 c 258
 664 -384 l 258
 682 -384 688 -374 688 -353 c 258
 688 148 l 257
 736 148 l 257
 736 -397 l 258
 736 -419 719 -432 695 -432 c 258
 344 -432 l 258
 209 -432 156 -348 156 -248 c 256
 156 -193 169 -131 200 -79 c 256
 206 -68 216 -64 225 -64 c 256
EndSplineSet
Refer: 190 -1 N 1 0 0 1 0 0 2
PickledDataWithLists: "(dp1
S'com.schriftgestaltung.Glyphs.lastChange'
p2
S'2018-08-04 01:07:06 +0000'
p3
s."
EndChar

StartChar: sinDdhUu.reph
Encoding: 188 -1 188
GlifName: sinD_dhU_u.reph
Width: 763
VWidth: 0
Flags: W
LayerCount: 2
Fore
SplineSet
201 -243 m 256
 201 -335 258 -382 339 -382 c 256
 403 -382 461 -351 469 -278 c 256
 471 -261 471 -234 471 -214 c 256
 471 -200 482 -189 496 -189 c 256
 509 -189 519 -200 539 -220 c 256
 572 -253 643 -320 688 -362 c 257
 688 150 l 257
 736 150 l 257
 736 -399 l 258
 736 -423 723 -432 705 -432 c 256
 693 -432 682 -425 665 -409 c 256
 608 -356 548 -299 515 -268 c 257
 513 -287 509 -308 506 -321 c 256
 494 -373 436 -430 339 -430 c 256
 235 -430 154 -365 154 -242 c 256
 154 -183 173 -124 199 -72 c 256
 205 -61 214 -56 223 -56 c 256
 236 -56 244 -67 244 -79 c 256
 244 -83 243 -88 241 -93 c 256
 216 -142 201 -195 201 -243 c 256
EndSplineSet
Refer: 190 -1 N 1 0 0 1 0 0 2
PickledDataWithLists: "(dp1
S'com.schriftgestaltung.Glyphs.lastChange'
p2
S'2018-08-04 01:07:06 +0000'
p3
s."
EndChar

StartChar: sinDdha
Encoding: 189 3498 189
GlifName: sinD_dha
Width: 881
VWidth: 881
Flags: W
HStem: 0 132 985 140 1026 81 1077 143 1113 120 1216 124 1360 123
VStem: 100 132 539 128 995 120 1946 135
LayerCount: 2
Fore
SplineSet
435 113 m 257
 453 43 524 -4 597 -4 c 256
 718 -4 787 116 777 301 c 256
 767 504 594 700 487 821 c 256
 471 839 464 850 447 866 c 256
 438 874 421 881 412 872 c 256
 402 863 402 847 409 837 c 257
 412 832 415 829 418 824 c 257
 388 793 340 740 333 679 c 256
 325 606 372 546 450 546 c 256
 504 546 562 569 596 615 c 257
 647 562 714 454 726 301 c 256
 739 136 688 54 597 47 c 256
 494 39 468 127 460 233 c 256
 459 246 455 257 435 257 c 256
 415 257 408 246 409 233 c 256
 417 125 356 47 262 47 c 256
 198 47 140 102 140 199 c 256
 140 286 200 353 294 353 c 256
 338 353 350 344 380 337 c 256
 384 336 386 336 390 336 c 256
 399 336 415 349 415 363 c 256
 415 374 406 384 387 391 c 256
 326 414 304 427 304 454 c 256
 304 471 320 483 340 483 c 256
 343 483 345 482 348 481 c 256
 381 476 393 441 436 441 c 256
 450 441 457 453 457 464 c 256
 457 477 449 488 436 488 c 256
 404 488 387 530 337 530 c 256
 283 530 254 496 254 460 c 256
 254 443 260 427 271 413 c 257
 241 427 201 433 163 433 c 256
 142 433 121 432 103 428 c 256
 84 424 76 411 76 400 c 256
 76 386 85 373 104 373 c 258
 114 373 l 257
 135 379 157 386 194 386 c 256
 205 386 219 385 233 384 c 257
 184 384 88 327 88 199 c 256
 88 65 171 -4 262 -4 c 256
 346 -4 414 45 435 113 c 257
379 671 m 256
 385 725 421 754 453 787 c 257
 482 756 533 702 561 658 c 257
 546 616 497 591 450 591 c 256
 414 591 374 623 379 671 c 256
EndSplineSet
PickledDataWithLists: "(dp1
S'com.schriftgestaltung.Glyphs.lastChange'
p2
S'2018-08-04 01:07:05 +0000'
p3
sS'com.fontlab.hintData'
p4
(dp5
S'vhints'
p6
(lp7
(dp8
S'position'
p9
I100
sS'width'
p10
I132
sa(dp11
g9
I539
sg10
I128
sa(dp12
g9
I995
sg10
I120
sa(dp13
g9
I1946
sg10
I135
sasS'hhints'
p14
(lp15
(dp16
g9
I0
sg10
I132
sa(dp17
g9
I985
sg10
I140
sa(dp18
g9
I1026
sg10
I81
sa(dp19
g9
I1077
sg10
I143
sa(dp20
g9
I1113
sg10
I120
sa(dp21
g9
I1216
sg10
I124
sa(dp22
g9
I1360
sg10
I123
sass."
EndChar

StartChar: sinDdha.reph
Encoding: 190 -1 190
GlifName: sinD_dha.reph
Width: 751
VWidth: 0
Flags: W
LayerCount: 2
Fore
SplineSet
378 674 m 256
 378 590 299 541 224 541 c 256
 124 541 42 604 42 729 c 256
 42 872 157 970 328 970 c 256
 478 970 602 875 602 730 c 256
 602 702 592 666 583 639 c 256
 580 630 572 626 563 626 c 256
 553 626 543 633 543 647 c 256
 543 650 542 654 544 657 c 256
 558 678 561 698 561 715 c 256
 561 836 459 923 328 923 c 256
 191 923 89 849 89 729 c 256
 89 635 150 589 224 589 c 256
 276 589 330 623 330 674 c 256
 330 709 309 738 280 738 c 256
 264 738 255 735 249 731 c 257
 257 724 262 715 262 703 c 256
 262 685 250 665 224 665 c 256
 196 665 176 686 176 715 c 256
 176 760 214 789 266 789 c 256
 334 789 378 740 378 674 c 256
360 235 m 256
 360 247 367 257 386 257 c 256
 406 257 410 246 411 233 c 256
 419 131 451 46 549 46 c 256
 633 46 674 111 674 227 c 256
 674 376 609 529 565 607 c 257
 537 566 497 546 444 546 c 256
 375 546 331 597 331 664 c 256
 331 734 393 790 430 823 c 257
 425 830 423 836 423 844 c 256
 423 853 432 864 446 864 c 256
 454 864 463 862 475 843 c 256
 566 701 724 477 724 227 c 256
 724 82 669 -4 549 -4 c 256
 472 -4 405 43 386 113 c 257
 365 45 297 -4 213 -4 c 256
 122 -4 39 65 39 199 c 256
 39 327 135 384 184 384 c 257
 170 385 156 386 145 386 c 256
 108 386 87 373 65 373 c 256
 41 373 27 380 27 400 c 256
 27 431 79 433 114 433 c 256
 152 433 192 427 222 413 c 257
 211 427 205 443 205 460 c 256
 205 496 234 530 288 530 c 256
 338 530 355 488 387 488 c 256
 400 488 408 477 408 464 c 256
 408 453 401 441 387 441 c 256
 341 441 330 483 291 483 c 256
 271 483 255 471 255 454 c 256
 255 427 277 414 338 391 c 256
 357 384 364 372 364 361 c 256
 364 346 352 338 339 338 c 256
 335 338 331 338 327 340 c 256
 299 353 293 355 245 355 c 256
 151 355 91 286 91 199 c 256
 91 102 149 47 213 47 c 256
 301 47 361 116 361 214 c 256
 361 221 360 228 360 235 c 256
378 664 m 256
 378 622 412 593 444 593 c 256
 489 593 522 617 543 654 c 257
 516 700 480 756 460 784 c 257
 425 752 378 721 378 664 c 256
EndSplineSet
PickledDataWithLists: "(dp1
S'com.schriftgestaltung.Glyphs.lastChange'
p2
S'2018-08-04 01:07:05 +0000'
p3
s."
EndChar

StartChar: sinDhI
Encoding: 192 -1 192
GlifName: sinD_hI_
Width: 770
VWidth: 770
Flags: W
HStem: 0 48<179.5 261 506 591> 400 44 584 48 928 48
VStem: 359 48
LayerCount: 2
Fore
SplineSet
722 269 m 256
 640 616 149 509 163 756 c 256
 171 897 301 932 410 928 c 256
 554 923 640 841 621 738 c 256
 609 674 546 631 466 632 c 256
 424 633 376 657 360 677 c 256
 354 685 332 692 322 683 c 256
 306 669 317 647 338 630 c 256
 356 615 416 584 468 584 c 256
 544 585 652 633 668 738 c 256
 686 856 585 971 413 976 c 256
 237 981 110 891 115 750 c 256
 126 448 614 586 676 252 c 256
 700 121 641 48 541 48 c 256
 455 48 406 117 406 219 c 256
 406 231 401 242 382 242 c 256
 363 242 359 231 359 219 c 256
 359 117 310 48 223 48 c 256
 136 48 71 125 85 230 c 256
 98 319 140 376 219 396 c 256
 269 409 288 400 301 400 c 256
 311 400 324 410 320 428 c 256
 317 440 278 456 219 444 c 256
 119 423 54 363 36 247 c 256
 12 93 111 0 223 0 c 256
 299 0 363 45 382 108 c 257
 400 44 471 0 541 0 c 256
 691 0 755 126 722 269 c 256
EndSplineSet
PickledDataWithLists: "(dp1
S'com.schriftgestaltung.Glyphs.lastChange'
p2
S'2018-08-04 01:07:06 +0000'
p3
sS'com.fontlab.hintData'
p4
(dp5
S'vhints'
p6
(lp7
(dp8
S'position'
p9
I359
sS'width'
p10
I48
sasS'hhints'
p11
(lp12
(dp13
g9
I0
sg10
I48
sa(dp14
g9
I400
sg10
I44
sa(dp15
g9
I584
sg10
I48
sa(dp16
g9
I928
sg10
I48
sass."
Ligature2: "sin_abvs subtable" sinDha sinMatraI
EndChar

StartChar: sinDhIi
Encoding: 193 -1 193
GlifName: sinD_hI_i
Width: 770
VWidth: 770
Flags: W
HStem: 0 48<184 223 184 261 506 595> 789 43<459 492> 924 48
VStem: 121 48 359 48 535 47<723.5 749.5> 612 47<749 823>
LayerCount: 2
Fore
SplineSet
680 237 m 256
 630 569 121 455 121 772 c 256
 121 900 237 976 403 972 c 256
 575 968 659 878 659 784 c 256
 659 669 572 629 506 624 c 256
 433 618 369 672 370 728 c 256
 372 810 434 832 473 832 c 256
 551 832 582 789 582 733 c 256
 582 714 570 684 561 670 c 256
 548 649 538 642 525 640 c 256
 501 636 442 677 467 674 c 256
 503 669 535 697 535 729 c 256
 535 770 509 789 475 789 c 256
 443 789 414 762 416 730 c 256
 418 700 447 665 504 672 c 256
 570 680 612 714 612 784 c 256
 612 862 544 919 400 924 c 256
 298 927 166 900 169 778 c 256
 175 518 664 591 727 248 c 256
 746 144 699 0 541 0 c 256
 471 0 400 44 382 108 c 257
 363 45 299 0 223 0 c 256
 125 0 19 80 35 230 c 256
 50 372 124 422 219 444 c 256
 280 457 318 443 321 425 c 256
 323 413 315 400 304 400 c 256
 290 400 270 411 219 396 c 256
 146 375 101 333 85 228 c 256
 68 117 145 48 223 48 c 256
 310 47 359 117 359 219 c 256
 359 231 363 242 382 242 c 256
 401 242 406 231 406 219 c 256
 406 117 455 48 541 48 c 256
 649 48 694 146 680 237 c 256
EndSplineSet
PickledDataWithLists: "(dp1
S'com.schriftgestaltung.Glyphs.lastChange'
p2
S'2018-08-04 01:07:06 +0000'
p3
sS'com.fontlab.hintData'
p4
(dp5
S'vhints'
p6
(lp7
(dp8
S'position'
p9
I121
sS'width'
p10
I48
sa(dp11
g9
I359
sg10
I48
sa(dp12
g9
I535
sg10
I47
sa(dp13
g9
I612
sg10
I47
sasS'hhints'
p14
(lp15
(dp16
g9
I0
sg10
I48
sa(dp17
g9
I789
sg10
I43
sa(dp18
g9
I924
sg10
I48
sass."
Ligature2: "sin_abvs subtable" sinDha sinMatraIi
EndChar

StartChar: sinDhRa
Encoding: 197 -1 197
GlifName: sinD_hR_a
Width: 829
VWidth: 829
Flags: W
HStem: 0 132 1100 132 2055 135
VStem: 89 132 979 132 1935 135
LayerCount: 2
Fore
SplineSet
683 -174 m 256
 695 -113 696 -64 692 -25 c 256
 690 -3 679 4 663 0 c 256
 650 -3 645 -17 647 -37 c 256
 650 -64 653 -112 637 -176 c 256
 605 -306 482 -386 345 -386 c 256
 329 -386 311 -386 292 -383 c 256
 273 -380 261 -384 258 -398 c 256
 255 -411 260 -425 281 -430 c 256
 298 -434 324 -434 342 -434 c 256
 507 -432 652 -332 683 -174 c 256
EndSplineSet
Refer: 202 3504 N 1 0 0 1 0 0 2
PickledDataWithLists: "(dp1
S'com.schriftgestaltung.Glyphs.lastChange'
p2
S'2018-08-04 01:07:06 +0000'
p3
sS'com.fontlab.hintData'
p4
(dp5
S'vhints'
p6
(lp7
(dp8
S'position'
p9
I89
sS'width'
p10
I132
sa(dp11
g9
I979
sg10
I132
sa(dp12
g9
I1935
sg10
I135
sasS'hhints'
p13
(lp14
(dp15
g9
I0
sg10
I132
sa(dp16
g9
I1100
sg10
I132
sa(dp17
g9
I2055
sg10
I135
sass."
Ligature2: "sin_rakar subtable" sinDha sinVirama zerowidthjoiner sinRa
EndChar

StartChar: sinDhU
Encoding: 198 -1 198
GlifName: sinD_hU_
Width: 829
VWidth: 829
Flags: W
HStem: -432 48<321 601> 0 132 1100 132 2055 135
VStem: 89 132 625 48 979 132 1935 135
LayerCount: 2
Fore
SplineSet
631 -432 m 258
 655 -432 672 -420 672 -397 c 258
 672 50 l 257
 625 50 l 257
 625 -353 l 258
 625 -374 619 -384 601 -384 c 258
 321 -384 l 258
 232 -384 189 -348 181 -274 c 256
 172 -196 192 -127 229 -46 c 256
 237 -30 225 -11 212 -11 c 256
 203 -11 192 -16 187 -26 c 256
 147 -106 125 -195 133 -274 c 256
 143 -366 200 -432 321 -432 c 258
 631 -432 l 258
EndSplineSet
Refer: 202 3504 N 1 0 0 1 0 0 2
PickledDataWithLists: "(dp1
S'com.schriftgestaltung.Glyphs.lastChange'
p2
S'2018-08-04 01:07:06 +0000'
p3
sS'com.fontlab.hintData'
p4
(dp5
S'vhints'
p6
(lp7
(dp8
S'position'
p9
I89
sS'width'
p10
I132
sa(dp11
g9
I625
sg10
I48
sa(dp12
g9
I979
sg10
I132
sa(dp13
g9
I1935
sg10
I135
sasS'hhints'
p14
(lp15
(dp16
g9
I-432
sg10
I48
sa(dp17
g9
I0
sg10
I132
sa(dp18
g9
I1100
sg10
I132
sa(dp19
g9
I2055
sg10
I135
sass."
Ligature2: "sin_blws subtable" sinDha sinMatraU
EndChar

StartChar: sinDhU.reph
Encoding: 199 -1 199
GlifName: sinD_hU_.reph
Width: 739
VWidth: 0
Flags: W
LayerCount: 2
Fore
SplineSet
168 -64 m 256
 159 -64 149 -68 143 -79 c 256
 114 -132 99 -193 99 -248 c 256
 99 -348 152 -432 287 -432 c 258
 638 -432 l 258
 662 -432 679 -419 679 -397 c 258
 682 118 l 257
 634 118 l 257
 631 -353 l 258
 631 -374 625 -384 607 -384 c 258
 287 -384 l 258
 188 -384 145 -339 145 -246 c 256
 145 -197 159 -151 185 -99 c 256
 187 -95 188 -90 188 -86 c 256
 188 -73 181 -64 168 -64 c 256
EndSplineSet
Refer: 203 -1 N 1 0 0 1 0 0 2
PickledDataWithLists: "(dp1
S'com.schriftgestaltung.Glyphs.lastChange'
p2
S'2018-08-04 01:07:06 +0000'
p3
s."
EndChar

StartChar: sinDhUu
Encoding: 200 -1 200
GlifName: sinD_hU_u
Width: 829
VWidth: 829
Flags: W
HStem: -432 48<286.5 352.5 286.5 376> 0 132 1100 132 2055 135
VStem: 89 132 459 37<-307 -286.5 -321.5 -262.5 -321.5 -209> 979 132 1935 135
LayerCount: 2
Fore
SplineSet
715 -399 m 258
 715 119 l 257
 668 119 l 257
 668 -362 l 257
 650 -328 538 -247 518 -224 c 256
 499 -203 492 -189 479 -189 c 256
 468 -189 459 -197 459 -209 c 256
 459 -228 459 -254 459 -271 c 256
 459 -343 387 -384 318 -384 c 256
 255 -384 196 -348 183 -278 c 256
 168 -195 198 -117 243 -40 c 256
 245 -36 246 -32 246 -29 c 256
 246 -16 233 -7 219 -7 c 256
 213 -7 205 -11 201 -19 c 256
 160 -95 123 -191 136 -278 c 256
 149 -367 225 -432 318 -432 c 256
 434 -432 496 -354 496 -289 c 256
 496 -284 496 -275 495 -268 c 257
 519 -294 606 -344 644 -409 c 256
 656 -429 673 -432 685 -432 c 256
 703 -432 715 -422 715 -399 c 258
EndSplineSet
Refer: 202 3504 N 1 0 0 1 0 0 2
PickledDataWithLists: "(dp1
S'com.schriftgestaltung.Glyphs.lastChange'
p2
S'2018-08-04 01:07:06 +0000'
p3
sS'com.fontlab.hintData'
p4
(dp5
S'vhints'
p6
(lp7
(dp8
S'position'
p9
I89
sS'width'
p10
I132
sa(dp11
g9
I459
sg10
I37
sa(dp12
g9
I979
sg10
I132
sa(dp13
g9
I1935
sg10
I135
sasS'hhints'
p14
(lp15
(dp16
g9
I-432
sg10
I48
sa(dp17
g9
I0
sg10
I132
sa(dp18
g9
I1100
sg10
I132
sa(dp19
g9
I2055
sg10
I135
sass."
Ligature2: "sin_blws subtable" sinDha sinMatraUu
EndChar

StartChar: sinDhUu.reph
Encoding: 201 -1 201
GlifName: sinD_hU_u.reph
Width: 739
VWidth: 0
Flags: W
LayerCount: 2
Fore
SplineSet
146 -243 m 256
 146 -195 161 -142 186 -93 c 256
 188 -88 189 -83 189 -79 c 256
 189 -67 181 -56 168 -56 c 256
 159 -56 150 -61 144 -72 c 256
 118 -124 99 -183 99 -242 c 256
 99 -365 180 -430 284 -430 c 256
 381 -430 439 -373 451 -321 c 256
 454 -308 458 -287 460 -268 c 257
 493 -299 553 -356 610 -409 c 256
 627 -425 638 -432 650 -432 c 256
 668 -432 681 -423 681 -399 c 258
 681 125 l 257
 633 105 l 257
 633 -362 l 257
 588 -320 517 -253 484 -220 c 256
 464 -200 454 -189 441 -189 c 256
 427 -189 416 -200 416 -214 c 256
 416 -234 416 -261 414 -278 c 256
 406 -351 348 -382 284 -382 c 256
 203 -382 146 -335 146 -243 c 256
EndSplineSet
Refer: 203 -1 N 1 0 0 1 0 0 2
PickledDataWithLists: "(dp1
S'com.schriftgestaltung.Glyphs.lastChange'
p2
S'2018-08-04 01:07:06 +0000'
p3
s."
EndChar

